<?xml version="1.0" encoding="utf-8"?>
<!-- Generated by IcoMoon.io -->
<!DOCTYPE svg PUBLIC "-//W3C//DTD SVG 1.1//EN" "http://www.w3.org/Graphics/SVG/1.1/DTD/svg11.dtd">
<svg version="1.1" xmlns="http://www.w3.org/2000/svg" xmlns:xlink="http://www.w3.org/1999/xlink" width="20" height="20" viewBox="0 0 20 20">
<path fill="#444" d="M10 16.016q3.164 0 5-2.695-0.039-1.094-1.758-1.836t-3.242-0.742-3.242 0.723-1.758 1.855q1.836 2.695 5 2.695zM10 4.18q-1.016 0-1.758 0.742t-0.742 1.758 0.742 1.758 1.758 0.742 1.758-0.742 0.742-1.758-0.742-1.758-1.758-0.742zM10 1.68q3.438 0 5.879 2.441t2.441 5.879-2.441 5.879-5.879 2.441-5.879-2.441-2.441-5.879 2.441-5.879 5.879-2.441z"></path>
</svg>
