<?xml version="1.0" encoding="utf-8"?>
<!-- Generated by IcoMoon.io -->
<!DOCTYPE svg PUBLIC "-//W3C//DTD SVG 1.1//EN" "http://www.w3.org/Graphics/SVG/1.1/DTD/svg11.dtd">
<svg version="1.1" xmlns="http://www.w3.org/2000/svg" xmlns:xlink="http://www.w3.org/1999/xlink" width="20" height="20" viewBox="0 0 20 20">
<path fill="#444" d="M10 9.57q0.859 0 1.465-0.605t0.605-1.465-0.605-1.465-1.465-0.605-1.465 0.605-0.605 1.465 0.605 1.465 1.465 0.605zM10 1.68q2.422 0 4.121 1.699t1.699 4.121q0 1.211-0.605 2.773t-1.465 2.93-1.699 2.559-1.426 1.895l-0.625 0.664q-0.234-0.273-0.625-0.723t-1.406-1.797-1.777-2.617-1.387-2.871-0.625-2.813q0-2.422 1.699-4.121t4.121-1.699z"></path>
</svg>
