<?xml version="1.0" encoding="utf-8"?>
<!-- Generated by IcoMoon.io -->
<!DOCTYPE svg PUBLIC "-//W3C//DTD SVG 1.1//EN" "http://www.w3.org/Graphics/SVG/1.1/DTD/svg11.dtd">
<svg version="1.1" xmlns="http://www.w3.org/2000/svg" xmlns:xlink="http://www.w3.org/1999/xlink" width="20" height="20" viewBox="0 0 20 20">
<path fill="#444" d="M15.82 12.5v-1.68h-1.641v1.68h1.641zM15.82 15.82v-1.641h-1.641v1.641h1.641zM10.82 5.82v-1.641h-1.641v1.641h1.641zM10.82 9.18v-1.68h-1.641v1.68h1.641zM10.82 12.5v-1.68h-1.641v1.68h1.641zM10.82 15.82v-1.641h-1.641v1.641h1.641zM5.82 9.18v-1.68h-1.641v1.68h1.641zM5.82 12.5v-1.68h-1.641v1.68h1.641zM5.82 15.82v-1.641h-1.641v1.641h1.641zM12.5 9.18h5v8.32h-15v-11.68h5v-1.641l2.5-2.5 2.5 2.5v5z"></path>
</svg>
