<?xml version="1.0" encoding="utf-8"?>
<!-- Generated by IcoMoon.io -->
<!DOCTYPE svg PUBLIC "-//W3C//DTD SVG 1.1//EN" "http://www.w3.org/Graphics/SVG/1.1/DTD/svg11.dtd">
<svg version="1.1" xmlns="http://www.w3.org/2000/svg" xmlns:xlink="http://www.w3.org/1999/xlink" width="20" height="20" viewBox="0 0 20 20">
<path fill="#444" d="M15 13.398q1.016 0 1.719 0.723t0.703 1.699q0 1.016-0.723 1.738t-1.699 0.723-1.699-0.723-0.723-1.738q0-0.391 0.039-0.547l-5.898-3.438q-0.742 0.664-1.719 0.664-1.016 0-1.758-0.742t-0.742-1.758 0.742-1.758 1.758-0.742q0.977 0 1.719 0.664l5.859-3.398q-0.078-0.391-0.078-0.586 0-1.016 0.742-1.758t1.758-0.742 1.758 0.742 0.742 1.758-0.742 1.758-1.758 0.742q-0.938 0-1.719-0.703l-5.859 3.438q0.078 0.391 0.078 0.586t-0.078 0.586l5.938 3.438q0.703-0.625 1.641-0.625z"></path>
</svg>
