<?xml version="1.0" encoding="utf-8"?>
<!-- Generated by IcoMoon.io -->
<!DOCTYPE svg PUBLIC "-//W3C//DTD SVG 1.1//EN" "http://www.w3.org/Graphics/SVG/1.1/DTD/svg11.dtd">
<svg version="1.1" xmlns="http://www.w3.org/2000/svg" xmlns:xlink="http://www.w3.org/1999/xlink" width="80" height="32" viewBox="0 0 80 32">
<path fill="#009fdb" d="M15.667 7.639v0c-2.889 0-5.5 0.778-7.389 2.056v-5.25h-3v10.139c0.028 3.806 4.667 6.889 10.389 6.889s10.389-3.083 10.389-6.917c0-3.806-4.639-6.917-10.389-6.917zM15.667 9.333c4 0 7.278 2.333 7.278 5.222s-3.25 5.222-7.278 5.222c-4 0-7.278-2.333-7.278-5.222 0.028-2.889 3.278-5.222 7.278-5.222v0z"></path>
<path fill="#009fdb" d="M30.472 8.611v12.306h-3v-12.333c0.5 0.111 1.028 0.167 1.583 0.167 0.5-0.028 0.972-0.056 1.417-0.139v0z"></path>
<path fill="#009fdb" d="M35.694 20.917h-3c0-2.389 0.028-5 0.028-7.417 0-2.722 2-4.306 4.389-5.167 1.472-0.556 3.194-0.861 5-0.889 2.083 0 3.944 0.361 5.5 1.028 2.111 0.917 3.917 2.611 3.917 5.028 0 2.389-0.028 5-0.028 7.417h-3c0-2.472 0-4.639 0-7.111 0-1.333-0.639-2.333-1.75-3.028-1.278-0.806-3.083-1.25-4.611-1.25-1.306 0-2.833 0.333-4.056 0.917-1.389 0.667-2.361 1.778-2.361 3.361-0.028 2.472-0.028 4.611-0.028 7.111v0z"></path>
<path fill="#f7b533" d="M28.972 3.944c1.278 0 2.306 0.694 2.306 1.556s-1.028 1.556-2.306 1.556c-1.278 0-2.306-0.694-2.306-1.556-0.028-0.861 1.028-1.556 2.306-1.556v0z"></path>
<path fill="#009fdb" d="M61.167 7.611v0c-4.833 0-8.75 2.611-8.75 5.833s3.917 5.833 8.75 5.833c0.75 0 1.5-0.083 2.194-0.194 2 0.611 3.389 2.028 3.389 3.694 0 2.222-2.5 4.028-5.583 4.028-2.306 0-4.278-1-5.139-2.444h-3.278c1.028 2.444 4.417 4.25 8.417 4.25 4.833 0 8.75-2.611 8.75-5.833 0-1.917-1.361-3.611-3.5-4.667 2.111-1.056 3.5-2.75 3.5-4.667 0-1.306-0.639-2.5-1.722-3.472 0.278-0.083 0.611-0.111 0.944-0.111h2.222v-2.75h-1.111c-1.278 0-3.306 0.583-4.556 1.333-1.333-0.528-2.889-0.833-4.528-0.833zM61.167 9.417c3.083 0 5.583 1.806 5.583 4.028s-2.5 4.028-5.583 4.028c-3.083 0-5.583-1.806-5.583-4.028-0.028-2.25 2.472-4.028 5.583-4.028v0z"></path>
<path fill="#009fdb" d="M72.667 8.472v-1.083h-0.389v-0.222h1.028v0.222h-0.389v1.083h-0.25zM73.417 8.472v-1.306h0.389l0.25 1 0.25-1h0.389v1.306h-0.25v-1.056l-0.278 1.056h-0.278l-0.278-1.056v1.056h-0.194z"></path>
</svg>
