<?xml version="1.0" encoding="utf-8"?>
<!-- Generated by IcoMoon.io -->
<!DOCTYPE svg PUBLIC "-//W3C//DTD SVG 1.1//EN" "http://www.w3.org/Graphics/SVG/1.1/DTD/svg11.dtd">
<svg version="1.1" xmlns="http://www.w3.org/2000/svg" xmlns:xlink="http://www.w3.org/1999/xlink" width="128" height="32" viewBox="0 0 128 32">
<path fill="#444" d="M28.667 23.467c-0.756 1.333-1.556 2.711-3.511 3.911-2.444 1.556-5.6 2-7.956 2-8.044 0-12.044-4.622-12.044-10.489 0-4.667 2.311-6.844 3.689-7.867 0.844-0.667 3.2-2.489 8.267-2.489 1.422 0 4.889 0.178 7.556 1.867 2.089 1.333 3.067 2.978 3.6 3.867l-3.022 0.667c-0.444-0.8-0.933-1.644-2.178-2.444-1.2-0.8-3.333-1.467-5.867-1.467-4.711 0-9.067 2.222-9.067 7.778 0 1.956 0.578 4 2.044 5.644 1.333 1.378 3.644 2.533 7.2 2.533 3.067 0.044 5.111-0.756 6.311-1.733 1.067-0.8 1.689-1.778 2-2.4l2.978 0.622z"></path>
<path fill="#444" d="M35.156 9.111h2.8v19.778h-2.8v-19.778z"></path>
<path fill="#444" d="M48 11.511v7.156h9.778c1.556 0 3.511-0.044 4.622-1.511 0.489-0.622 0.667-1.422 0.667-2.089 0-0.756-0.178-1.511-0.578-2.089-0.889-1.422-2.311-1.422-3.6-1.467h-10.889zM45.2 9.111h13.467c1.733 0.044 3.822 0.044 5.556 1.6 0.622 0.578 1.778 1.867 1.778 4.222 0 4.756-4 5.378-5.333 5.6l7.289 8.356h-3.689l-6.711-7.911h-9.556v7.911h-2.8v-19.778z"></path>
<path fill="#444" d="M73.689 19.111c0 1.556 0.4 3.556 1.733 5.067 1.867 2.178 4.756 2.844 7.6 2.844 7.333 0 9.067-4.622 9.067-8 0-5.2-4.178-8.089-9.6-7.956-4.089 0.089-8.8 2.178-8.8 8.044zM94.933 19.289c0 6.756-5.556 10.133-11.911 10.133-2.889 0-5.822-0.533-8.133-2.178-1.956-1.333-4-3.822-4-8 0-7.333 6.044-10.622 11.956-10.622 6.889 0.044 12.089 4.133 12.089 10.667z"></path>
<path fill="#444" d="M122.8 23.467c-0.756 1.333-1.556 2.711-3.511 3.911-2.444 1.556-5.6 2-7.956 2-8.044 0-12.044-4.622-12.044-10.489 0-4.667 2.311-6.844 3.689-7.867 0.844-0.667 3.2-2.489 8.267-2.489 1.422 0 4.889 0.178 7.556 1.867 2.089 1.333 3.067 2.978 3.6 3.867l-3.022 0.667c-0.444-0.8-0.933-1.644-2.178-2.444-1.2-0.8-3.333-1.467-5.867-1.467-4.711 0-9.067 2.222-9.067 7.778 0 1.956 0.578 4 2.044 5.644 1.333 1.378 3.644 2.533 7.2 2.533 3.067 0.044 5.111-0.756 6.311-1.733 1.067-0.8 1.733-1.778 2-2.4l2.978 0.622z"></path>
<path fill="#444" d="M36.622 2.578l1.111 1.911-5.022 2.933-1.111-1.956 5.022-2.889z"></path>
<path fill="#444" d="M35.511 4.489l1.156-1.956 5.2 3.022-1.111 1.956-5.244-3.022z"></path>
</svg>
