<?xml version="1.0" encoding="utf-8"?>
<!-- Generated by IcoMoon.io -->
<!DOCTYPE svg PUBLIC "-//W3C//DTD SVG 1.1//EN" "http://www.w3.org/Graphics/SVG/1.1/DTD/svg11.dtd">
<svg version="1.1" xmlns="http://www.w3.org/2000/svg" xmlns:xlink="http://www.w3.org/1999/xlink" width="213" height="32" viewBox="0 0 213 32">
<path fill="#db88b8" d="M101.63 7.17c0.089 1.393 0.533 2.637 0.622 4.030 0.119 1.57-0.296 3.348-0.296 4.978 0 0.77 0.207 1.481 0.237 2.163 0.030 0.415-0.059 0.978-0.089 1.57-0.030 0.504 0.030 1.096 0 1.63-0.030 0.978-0.148 2.696-0.563 3.17-0.356 0.385-1.748 0.83-2.637 0.919-1.807 0.178-3.852-0.059-5.896-0.059-1.007 0-2.044 0-3.081-0.059-0.889-0.030-1.837-0.178-2.726-0.178-1.244 0-2.43 0.237-3.585 0.296-1.244 0.059-2.43-0.178-3.556-0.178-0.356 0-0.859 0.119-1.156 0.089-0.267 0-0.593-0.119-0.948-0.148-1.126-0.089-2.578 0.119-3.319-0.059-0.652-0.148-1.274-0.77-2.104-0.444-0.563-0.504-1.422-1.067-1.541-2.074-0.030-0.237 0.119-0.504 0.089-0.77 0-0.237-0.148-0.444-0.148-0.622 0-0.77 0.267-1.57 0.237-2.4-0.030-0.533-0.089-1.156-0.178-1.63-0.059-0.326-0.267-0.622-0.296-0.919-0.030-0.533 0.237-1.037 0.326-1.57 0.148-0.8 0.237-1.659 0.444-2.489 0.267-1.156 0.415-2.341 0.059-3.348 0.859-0.533 1.185-1.57 1.956-2.193 0.593 0 1.452-0.178 2.015-0.474 0.296-0.148 0.563 0 1.007 0.059 0.504 0.030 1.037-0.059 1.481-0.059 0.356 0 0.741 0.148 1.096 0.178 1.985 0.207 4.178 0 6.489 0.089 2.104 0.089 4.267 0.178 6.341 0.178 1.274 0 2.519 0.119 3.644 0.178 0.919 0.059 1.896-0.089 2.785-0.059 0.237 0 0.474 0.089 0.711 0.089 0.889 0.059 1.748-0.326 2.578 0.119z"></path>
<path fill="#acacac" d="M106.252 6.933c3.407 0.415 7.822-0.267 11.556-0.059 1.274 0.089 2.667-0.030 3.97 0.059 1.274 0.089 2.459 0.089 3.556 0.178 0.415 0.030 0.919-0.059 1.304-0.059 0.178 0 0.385 0.119 0.622 0.148 0.622 0.059 1.096-0.089 1.481 0.237 0.178 0.178 0.178 0.444 0.385 0.681 0 1.126-0.415 2.667-0.059 3.881 0.178 0.563 0.563 1.067 0.563 1.837 0 0.385-0.059 0.741-0.059 1.096 0 0.83 0.237 2.015 0.237 3.081 0 0.8-0.119 1.63-0.178 2.4-0.059 0.741-0.237 1.481-0.178 2.163 0.030 0.593 0.089 0.978 0.059 1.481-0.030 0.296 0.059 0.415-0.059 0.563-0.178 0.267-0.593 0.296-0.919 0.326-0.622 0.681-1.837 0.474-3.022 0.444-2.252-0.089-4.652-0.089-6.993-0.089-1.096 0-2.311 0.207-3.348 0.296-0.622 0.030-1.185 0-1.689 0.089-0.533 0.119-1.037 0.326-1.867 0.178-0.207-0.030-0.356-0.148-0.533-0.178-0.444-0.059-0.978 0.059-1.481 0.089-0.296 0.030-0.593-0.030-0.83 0-0.356 0.030-0.593 0.207-1.067 0.089-0.948-0.237-1.481-1.304-2.104-1.778-0.030-0.504-0.237-1.807-0.089-2.341 0.059-0.207 0.237-0.356 0.237-0.563s-0.148-0.385-0.178-0.622c-0.030-0.148 0-0.296 0-0.474-0.030-0.83-0.415-2.252-0.385-3.319 0.030-1.867 0.178-3.822 0.059-5.57-0.089-1.333 0.207-2.637 0.533-3.733 0.207-0.148 0.296-0.385 0.474-0.533z"></path>
<path fill="#d54f45" d="M17.985 8.267c0.030 0.859 0.267 1.57 0.326 2.459 0.059 0.77-0.267 1.541-0.237 2.311 0 0.356 0.207 0.652 0.237 0.948 0.148 1.096-0.148 2.222-0.089 3.319 0.030 0.741 0.415 1.452 0.533 2.193 0.178 1.126-0.119 2.104-0.296 3.17-0.504 0.681-0.948 1.422-1.481 2.074-1.096 0.089-1.956 0-2.815 0.178-0.296 0.059-0.593 0.267-0.859 0.326-0.326 0.089-0.681 0.089-1.007 0.178-0.622 0.207-1.333 0.474-2.341 0.444-0.326 0-0.681-0.148-1.007-0.148-1.719 0-3.585 0.119-5.185 0.059-1.422-0.059-2.519-1.096-2.696-2.489-0.119-0.889 0.030-2.044 0.059-3.111 0-1.007-0.059-2.044 0.059-2.933 0.059-0.504 0.237-0.859 0.237-1.304 0-0.474-0.148-0.83-0.237-1.185-0.178-0.652-0.593-1.452-0.474-2.459 0.059-0.474 0.326-0.83 0.474-1.304 0.237-0.741 0.296-1.481 0.296-2.548 0.178-0.237 0.326-0.563 0.681-0.711 0.267-0.119 0.711-0.326 1.007-0.385 0.652-0.119 1.511 0.148 2.341 0.089 0.593-0.030 1.244-0.207 1.867-0.326 1.185-0.207 2.489-0.415 3.644-0.178 0.415 0.089 0.77 0.385 1.185 0.444 0.504 0.059 1.156-0.030 1.719-0.059 0.593-0.030 1.185 0.030 1.689 0 0.533-0.030 1.037-0.178 1.541 0 0.385 0.148 0.533 0.652 0.83 0.948z"></path>
<path fill="#bba489" d="M51.763 25.689c-0.148-0.148-0.326-0.237-0.474-0.385 0.148-0.978-0.593-1.037-0.711-1.719 0-0.296 0.444-0.444 0.533-0.711 0.148-0.444-0.178-1.067-0.089-1.689 0.030-0.178 0.148-0.296 0.178-0.474 0.148-0.889-0.089-1.956-0.148-3.081-0.030-0.8 0.178-1.748 0.237-2.637 0.059-0.741-0.030-1.363 0.059-2.104 0.030-0.237 0.178-0.504 0.178-0.77 0.030-0.593-0.148-1.156-0.148-1.689 0-0.385 0.237-0.859 0.296-1.333 0.059-0.593-0.089-1.067 0.385-1.481 0.059-0.030 0.089-0.148 0.178-0.237 0.296-0.267 1.452-0.326 2.341-0.385 0.474-0.030 0.83 0.119 1.185 0.148 0.444 0.030 0.948-0.148 1.452-0.148 0.474 0 1.067 0.119 1.57 0.148 0.652 0.030 1.304-0.059 1.867 0 0.326 0.030 0.652 0.207 0.948 0.237 0.593 0.059 1.304-0.237 1.837-0.059 0.207 0.089 0.444 0.385 0.681 0.444 0.504 0.089 0.978-0.356 1.333-0.385 0.533 0.119 1.037 0.267 1.393 0.681 0.030 1.037 0.178 1.926 0.178 3.081 0 0.919-0.296 1.837-0.178 2.726 0.030 0.296 0.089 0.622 0.178 1.096 0.119 0.533 0.415 1.067 0.474 1.63 0.059 0.533-0.030 1.096 0 1.689 0.059 0.83 0.178 1.659 0.178 2.341 0 0.415-0.148 0.77-0.148 1.156s0.207 0.859 0.178 1.541c0 0.237-0.119 0.504-0.148 0.77-0.059 0.652 0.059 1.156-0.237 1.393-0.178 0.178-1.037 0.444-1.481 0.444-0.267 0-0.533-0.119-0.77-0.148-0.296-0.030-0.563 0.059-0.77 0.059-0.237 0-0.504-0.148-0.77-0.178-1.452-0.178-2.963 0.089-4.741 0.148-2.459-0.030-5.096 0.119-7.022-0.119z"></path>
<path fill="#9aa1b6" d="M20.533 25.481c-0.504-1.748 0-3.763-0.148-5.956-0.030-0.622-0.207-1.185-0.178-1.837 0.030-1.185 0.119-2.37 0.148-3.467 0.030-0.119 0.148-0.148 0.237-0.178-0.444-0.593-0.059-1.452-0.089-2.163-0.059-0.622-0.207-1.807-0.148-2.756 0.059-0.652 0.385-1.156 0.681-1.63 0.859-0.059 1.748-0.415 2.696-0.385 0.474 0 0.978 0.148 1.481 0.148 0.652 0 1.393-0.089 2.104-0.059 0.296 0.030 0.563 0.148 0.859 0.148 0.593 0 1.393-0.237 1.867-0.237 0.415 0 0.8 0.148 1.185 0.148 0.504 0 0.978-0.178 1.481-0.148 0.593 0.059 1.304 0.119 2.074 0.178 0.444 0.030 0.919 0.178 1.333 0.178 0.504 0 1.007-0.237 1.481-0.296 0.711-0.059 1.452 0.089 2.163 0.089 1.719 0 3.407-0.237 4.889-0.059 0.563-0.296 0.978-0.059 1.393 0.237 0.77-0.504 2.459 0.356 2.637 1.096 0.030 0.148-0.059 0.356-0.059 0.533 0 0.681 0.207 1.511 0.178 2.341-0.030 0.741-0.207 1.481-0.148 2.163 0.030 0.356 0.207 0.711 0.237 1.067 0.059 0.593-0.148 1.156-0.089 1.719 0.030 0.326 0.237 0.563 0.296 0.859s-0.059 0.681-0.059 1.067c0.030 0.267 0.119 0.504 0.089 0.681-0.059 0.474-0.385 0.77-0.444 1.185-0.030 0.207 0.089 0.415 0.089 0.622s-0.059 0.356-0.059 0.533c0.030 0.237 0.207 0.444 0.237 0.711 0.030 0.356-0.178 0.563-0.178 0.919-0.030 0.474 0.207 0.889 0.089 1.185-0.385 1.007-2.578 0.711-3.704 0.859-0.741 0.089-1.452 0.267-2.193 0.326-0.8 0.059-1.63-0.059-2.489-0.059-1.037 0-2.133 0.030-3.2 0.059-1.837 0-3.644 0.711-5.363 0.059-1.037 0.385-2.133-0.059-3.259-0.059-0.267 0-0.504 0.148-0.77 0.148-0.593 0.030-1.185 0-1.837 0.059-0.622 0.030-1.304 0.059-1.867 0-0.326-0.030-0.622-0.207-0.948-0.178-0.178 0-0.326 0.119-0.533 0.148-0.711 0.178-1.511 0.148-2.163 0z"></path>
<path fill="#3b486c" d="M45.541 8.8h0.474v6.4h-0.474c-0.296-0.83-0.356-0.948-0.622-1.452-0.237-0.504-0.533-0.919-0.83-1.304-0.83-1.096-1.896-1.956-3.17-2.607s-2.578-0.948-3.941-0.948c-0.711 0-1.393 0.119-2.074 0.356s-1.244 0.533-1.689 0.919c-0.711 0.652-1.215 1.511-1.541 2.637s-0.474 2.578-0.474 4.356c0 0.533 0.030 1.067 0.089 1.57 0.059 0.533 0.119 0.978 0.207 1.393s0.178 0.8 0.326 1.185c0.119 0.385 0.267 0.711 0.415 0.948 0.267 0.385 0.563 0.741 0.889 1.037s0.741 0.563 1.185 0.77c0.444 0.237 0.948 0.385 1.452 0.504 0.504 0.089 0.859 0.148 1.422 0.148 0.711 0 1.215-0.089 1.926-0.237 0.711-0.178 1.126-0.385 1.541-0.652 0.83-0.533 1.067-1.215 1.067-2.104v-0.83c0-1.956-0.148-3.467-3.052-3.467h-0.711v-0.415h10.844v0.415c-1.096 0-1.63 0.326-2.163 0.8s-0.741 1.659-0.741 2.667l0.267 2.548-0.237 0.207c-1.274-0.622-3.911 0.444-4.504 0.652-0.919 0.296-1.719 0.563-2.281 0.681-0.533 0.089-1.215 0.148-2.015 0.148-1.511 0-2.904-0.207-4.207-0.622s-2.43-0.978-3.378-1.748c-0.948-0.741-1.689-1.63-2.222-2.637s-0.8-2.104-0.8-3.259c0-0.711 0.089-1.393 0.296-2.104 0.207-0.681 0.504-1.333 0.889-1.926s0.859-1.156 1.422-1.689c0.652-0.593 1.393-1.096 2.193-1.511s1.63-0.711 2.519-0.948c0.889-0.237 1.778-0.326 2.667-0.326s1.748 0.089 2.607 0.296c0.859 0.207 1.778 0.533 2.785 0.978 0.77 0.356 1.304 0.533 1.6 0.533 0.326 0 0.622-0.119 0.919-0.326 0.415-0.178 0.741-0.533 1.126-1.037z"></path>
<path fill="#626363" d="M128.385 9.511v-0.593h-10.519v0.593h1.215l1.778 2.459-6.756 5.185v-6.578l1.096-1.067h1.007v-0.593h-9.63v0.593h2.104l1.422 1.363v11.763l-1.333 1.481h-2.222v0.593h10.163v-0.593h-1.422l-1.215-1.363v-4.859l2.548-1.896 4.326 6.459-0.415 1.719h-1.719v0.593h9.57v-0.593h-1.244c-0.889-0.711-1.541-1.6-1.541-1.6l-5.748-8.741 5.748-4.296h2.785z"></path>
<path fill="#e47d5e" d="M151.467 24.681c-1.481 0.059-2.726 0.415-4.119 0.681-0.444 0.089-0.83 0.326-1.185 0.385-0.593 0.059-1.333-0.148-2.074-0.148-0.296 0-0.652 0.089-0.948 0.089-0.533 0-1.037-0.148-1.541-0.178-0.444-0.030-0.889 0.059-1.304 0.059-0.326-0.030-0.622-0.178-0.948-0.178-0.296 0-0.533 0.119-0.83 0.148-1.215 0.148-2.756 0.326-4.030 0.148-0.83-0.119-1.511-0.296-1.867-0.919-0.593-1.007-0.504-1.985-0.533-3.467 0-0.474-0.148-0.919-0.148-1.304 0-0.326 0.148-0.681 0.148-1.007 0-0.474-0.119-0.919-0.148-1.393-0.059-2.044 0.030-4.059-0.089-6.044-0.119-2.044 0.415-3.289 1.481-4.267 0.237-0.207 0.711-0.533 0.948-0.563 0.326-0.059 0.622 0.119 0.948 0.148 0.77 0.089 1.6-0.148 2.489-0.178 1.126-0.059 2.341-0.030 3.17-0.059 0.681 0 1.363 0.059 2.074 0.089 0.622 0.030 1.244 0.178 1.867 0.178 1.719 0.059 3.467-0.059 4.889 0.326 0.77 0.207 1.393 0.652 2.074 0.919 0.148 0.415 0.474 0.593 0.563 1.007 0.089 0.326-0.059 0.711-0.089 1.156-0.089 1.215 0.119 2.489 0.089 3.793 0 0.593-0.119 1.215-0.148 1.837-0.030 0.741 0.119 1.452 0.059 2.015-0.030 0.326-0.237 0.622-0.237 0.919-0.030 0.444 0.119 0.889 0.089 1.333-0.030 0.267-0.178 0.533-0.178 0.83-0.089 1.215 0.326 2.696-0.474 3.644z"></path>
<path fill="#9b9a6d" d="M156.474 25.244c-0.178-0.148-0.356-0.622-0.681-0.77 0.178-1.037-0.326-1.926-0.237-3.022 0.030-0.267 0.178-0.474 0.237-0.711 0.119-0.563 0.059-1.363-0.148-2.015-0.089-0.296-0.326-0.533-0.385-0.919-0.148-1.215 0-2.667-0.089-3.881-0.059-0.622-0.207-1.067 0.089-1.541-0.207-0.652-0.148-1.926 0.059-2.874 0.059-0.296 0.148-0.8 0.237-0.948 0.326-0.652 1.126-0.474 1.63-0.919 0.474 0.385 1.304 0 1.719-0.059 0.919-0.119 1.867-0.089 2.815-0.237 0.356-0.059 0.77-0.059 0.948-0.178 0.030-0.030 0.474-0.148 0.563-0.296 0.207 0.119 0.267 0.119 0.533 0 0.652 0.385 1.452 0.089 2.4 0.296 0.119 0.030 0.237 0.119 0.385 0.148 0.652 0.059 1.304-0.267 2.163-0.178 0.948 0.059 1.985 0.267 3.081 0.237 0.652-0.030 1.215-0.030 1.689 0 0.919 0.059 1.837-0.089 2.637-0.059 1.037 0.059 2.222 0.178 3.319 0.237 0.919 0.059 1.719-0.059 2.489 0.326 0.178 0.030 0.207 0.504 0.385 0.385 0.237 0.919-0.030 2.459 0.089 3.941 0.059 0.681 0.059 1.511 0.148 2.252 0.059 0.741 0.356 1.511 0.326 2.163 0 0.296-0.178 0.593-0.178 0.859-0.059 0.533 0.059 1.037 0.089 1.57 0 0.296-0.089 0.563-0.059 0.859 0.030 0.267 0.119 0.444 0.148 0.711 0.059 1.6-0.504 2.933-0.919 4.326-0.593 0.474-1.393 0.83-2.311 0.77-0.237-0.030-0.415-0.119-0.622-0.148-0.681-0.059-1.185 0.237-1.867 0.296-0.652 0.059-1.333-0.119-2.015-0.059-0.119 0-0.267 0.119-0.385 0.148-0.296 0.059-0.652 0.059-0.948 0.059-1.037 0-2.133 0.030-3.111-0.059-0.563-0.059-1.096-0.267-1.57-0.178-0.178 0.030-0.326 0.148-0.533 0.178-0.356 0.089-0.889 0.030-1.452 0.059-0.741 0.030-1.452 0.178-2.252 0.148-0.415-0.030-0.83-0.207-1.244-0.237-0.504-0.030-1.007 0.089-1.541 0.089-0.415 0-0.83-0.148-1.185-0.178-0.267-0.030-0.533 0.059-0.77 0.059-0.356-0.030-0.741-0.178-1.156-0.178-0.681-0.030-1.363 0.089-1.926-0.059-0.207-0.059-0.385-0.237-0.563-0.326-0.030-0.059-0.178 0.089-0.030-0.089z"></path>
<path fill="#49481e" d="M177.985 24.148c0 0-1.333-0.089-1.719-1.393-0.385-1.274-1.481-4.889-1.481-4.889s-4.919-0.148-4-1.422c3.615-0.296 7.378-1.244 7.378-3.941 0-3.852-7.17-3.585-7.17-3.585h-13.452v0.593h2.548l1.422 1.333v11.822l-1.333 1.481h-2.667v0.593h11.585v-0.593h-2.37l-1.215-1.363v-6.193c0.563 0 1.274 0 2.193 0 0.119 0 0.237 0 0.326 0 0.741 0.119 2.074 0.504 2.519 1.985 0.622 2.104 1.956 6.133 1.956 6.133h6.37v-0.533h-0.889zM165.481 10.785l1.363-1.274h0.711v-0.030c0.948 0 1.956 0 2.489 0 1.156 0 3.556 0.385 3.556 2.963 0 3.852-5.363 3.585-5.363 3.585h-2.726v-5.244z"></path>
<path fill="#c3a14d" d="M212.148 20.030c-0.089 0.207-0.119-0.119-0.178 0.089-0.030 0.415-0.207 1.037 0.089 1.244-0.148 0.83-0.089 1.689-0.178 2.637-0.178 0.356-0.356 0.681-0.474 1.096-0.237-0.089-0.178 0.148-0.237 0.237-0.474 0.089-0.889-0.119-1.333-0.178-0.919-0.148-1.985-0.089-3.022-0.148-1.719-0.089-3.526-0.089-5.274-0.089-0.859 0-1.807 0.030-2.696 0.089-0.504 0.030-0.978 0.207-1.481 0.237-2.785 0.178-5.452 0.089-7.911 0.237-0.533 0.030-1.067 0.267-1.541 0.178-0.326-0.059-0.563-0.356-0.919-0.444-0.207-0.059-0.415 0.030-0.622 0-0.089-0.030-0.207-0.148-0.326-0.178-0.385-0.148-0.652-0.237-0.948-0.326-0.207-0.622-0.385-0.919-0.296-1.63-0.059-0.030-0.207-0.296-0.385-0.474-0.089-1.096 0.148-2.756-0.178-3.585 0.059-1.274-0.089-2.489 0-3.704 0.089-1.067 0.326-2.163 0.237-3.2-0.030-0.385-0.148-0.741-0.089-1.096 0.030-0.237 0.267-0.474 0.326-0.711 0.207-0.77 0-2.281 0.444-2.696 0.089-0.089 0.711-0.296 1.067-0.326 0.148 0 0.326 0.089 0.474 0.059 0.178-0.030 0.385-0.178 0.533-0.178 0.178-0.030 0.385 0.059 0.622 0.059 0.207 0 0.415-0.119 0.563-0.089 0.207 0 0.356 0.178 0.533 0.148s0.356-0.296 0.533-0.326c0.237-0.059 0.711 0.059 1.096 0.059 1.185 0 2.785-0.059 4.267 0 0.474 0.030 0.919-0.059 1.333 0 0.444 0.059 0.919 0.267 1.481 0.296 1.067 0.059 1.926-0.652 2.637-0.059 0.444-0.089 0.919 0.059 1.393 0 0.178-0.030 0.326-0.148 0.474-0.148 0.563-0.030 1.215 0.148 1.837 0.148 1.541 0 2.904-0.030 4.326-0.059 0.474 0 0.77-0.148 1.156 0 0.148 0.059 0.178 0.178 0.326 0.296 0.089 0.059 0.296 0.030 0.385 0.089 0.267 0.148 0.474 0.415 0.622 0.563 0.711 0.178 1.244 0.593 1.719 1.007 0.356 1.037 0.119 2.252 0.059 3.644-0.059 1.422 0.059 3.081 0.178 4.356 0.030 0.296 0.030 0.681 0 0.919-0.030 0.148-0.148 0.296-0.178 0.474-0.059 0.207 0 0.385-0.059 0.533-0.207 0.326-0.681 0.622-0.385 0.948z"></path>
<path fill="#7f5823" d="M60 24.207v0.504h7.615c0-0.207 0-0.415 0.030-0.652 0.030-0.267 0.148-0.533 0.148-0.77 0-0.059 0-0.119 0-0.178l-6.548-14.578h-1.63c0 0-6.37 11.17-7.348 12.948-0.593 1.067-1.244 1.837-1.63 2.281 0.148 0.385 0.474 0.563 0.622 0.919h4.533v-0.593h-1.274l-1.126-2.607 0.948-1.689h7.289l1.452 3.319-0.83 1.126h-2.252zM54.726 18.993l3.674-6.459 2.815 6.459h-6.489z"></path>
<path fill="#ca218b" d="M101.244 9.215h0.741c-0.030-0.207-0.089-0.385-0.119-0.593h-8.563v0.593h1.985l2.607 3.2-3.763 7.2-4.948-10.993h-1.422l-4.741 10.904-4.059-8.681 0.978-1.63h2.133v-0.593h-10.015c-0.148 0.178-0.326 0.326-0.533 0.474 0 0.030 0.030 0.089 0.030 0.119h1.007l2.074 1.926 6.311 13.481h0.889l4.741-11.17 5.037 11.259h0.741l6.163-12.207 2.726-3.289z"></path>
<path fill="#d62028" d="M143.052 24.119l-1.126-1.244v-6.459h2.548l3.141 3.556 0.030 0.030h0.296v-7.852h-0.296l-0.030 0.030-3.2 3.615h-2.489v-5.333l1.007-0.978h5.837l3.378 4.681v-5.244h-18.044v0.593h2.281l1.422 1.363v11.763l-1.333 1.481h-2.519v0.593h16.859c0.207-0.030 0.415-0.030 0.622-0.030 0.8-0.948 0.356-2.43 0.474-3.704 0.030-0.296 0.178-0.533 0.178-0.83 0-0.178 0-0.356-0.030-0.533l-3.941 4.504h-5.067z"></path>
</svg>
