<?xml version="1.0" encoding="utf-8"?>
<!-- Generated by IcoMoon.io -->
<!DOCTYPE svg PUBLIC "-//W3C//DTD SVG 1.1//EN" "http://www.w3.org/Graphics/SVG/1.1/DTD/svg11.dtd">
<svg version="1.1" xmlns="http://www.w3.org/2000/svg" xmlns:xlink="http://www.w3.org/1999/xlink" width="48" height="32" viewBox="0 0 48 32">
<path fill="#444" d="M40.956 22.489v0 0c0.089-0.222 0.156-0.467 0.156-0.844 0-0.356-0.044-0.578-0.156-0.756v1.6zM40.956 17.289h-0.022v-0.178h2.378v0.111c0 0-0.133 0.022-0.244 0.067-0.067 0.044-0.2 0.111-0.222 0.2s0 0.2 0.022 0.267c0.022 0.067 1.289 3.8 1.289 3.8s1.222-3.444 1.267-3.578c0.044-0.178 0.044-0.333 0-0.467s-0.111-0.178-0.178-0.244c-0.067-0.022-0.178-0.044-0.178-0.044v-0.111h1.711v0.089c0 0-0.178 0.022-0.311 0.133-0.089 0.067-0.178 0.133-0.289 0.311-0.111 0.156-0.2 0.422-0.267 0.578-0.044 0.156-2.133 5.867-2.222 6.067-0.111 0.289-0.333 0.622-0.756 0.889-0.444 0.289-0.956 0.311-1.267 0.178-0.311-0.156-0.422-0.333-0.422-0.578 0-0.2 0.267-0.422 0.6-0.422s0.422 0.156 0.533 0.222c0.111 0.067 0.244 0.133 0.422 0.044 0.2-0.067 0.356-0.244 0.533-0.689s0.2-0.578 0.2-0.578c0 0-2.067-5.578-2.133-5.689-0.044-0.089-0.111-0.222-0.244-0.289-0.067-0.044-0.133-0.067-0.2-0.089zM40.956 17.111h-0.156v0.156c0 0 0.067 0 0.156 0.044v-0.2zM40.956 20.889c-0.089-0.156-0.178-0.267-0.311-0.4-0.289-0.289-0.822-0.644-1.333-0.956-0.533-0.311-0.844-0.422-1.067-0.8-0.222-0.356-0.111-0.667 0-0.822s0.333-0.4 0.689-0.4c0.356 0 0.622 0.133 0.889 0.333 0.333 0.244 0.422 0.378 0.622 0.667 0.111 0.156 0.178 0.333 0.178 0.333h0.111l-0.089-1.756h-0.133c0 0-0.022 0.2-0.156 0.244-0.156 0.044-0.178 0.044-0.333 0-0.133-0.044-0.511-0.244-1.044-0.244s-1.089 0.2-1.444 0.578c-0.378 0.378-0.511 0.733-0.511 1.133 0 0.422 0.133 0.978 0.511 1.267 0.356 0.289 0.889 0.6 1.267 0.8 0.356 0.2 0.911 0.6 1.022 0.889 0.111 0.311 0.089 0.667-0.133 0.956-0.222 0.267-0.533 0.444-1.067 0.289-0.556-0.156-0.711-0.333-0.978-0.733s-0.378-0.822-0.378-0.822l-0.156 0.022 0.089 2.067 0.133-0.022c0 0 0.089-0.222 0.289-0.267 0.289-0.067 0.289 0 0.578 0.111 0.267 0.133 0.556 0.156 1 0.156 0.467 0 1.133-0.244 1.444-0.6 0.133-0.156 0.244-0.289 0.311-0.444v-1.578zM28.956 27.333h0.511l0.156 0.311c0.067 0.111 0.089 0.178 0.089 0.222 0 0.022-0.022 0.067-0.067 0.089-0.022 0.022-0.089 0.022-0.2 0.044v0.067h1.022v-0.067c-0.089-0.022-0.178-0.044-0.244-0.089-0.067-0.022-0.133-0.111-0.2-0.267l-0.911-1.756h-0.067l-0.089 0.156v0.356l0.022-0.022 0.444 0.844h-0.467v0.111zM28.956 23.467v-1.378c0.6 0.511 1.156 0.422 1.689 0.2 0.6-0.267 0.956-1.133 0.956-1.133h0.156c0 0 0 0.6-0.6 1.4-0.556 0.756-1.378 0.889-1.956 0.911-0.067 0.022-0.156 0.022-0.244 0v0 0zM28.956 19.556v-0.489h1.644c0 0 0.022-0.533-0.244-1.022-0.244-0.489-0.622-0.6-0.844-0.6-0.156 0-0.356 0.044-0.578 0.178v-0.511c0.222-0.067 0.422-0.111 0.667-0.111 0.889 0.022 1.444 0.467 1.844 1.022 0.4 0.6 0.378 1.511 0.378 1.511l-2.867 0.022zM28.956 14.6v0 0c0.444 0 0.6-0.222 0.711-0.422-0.178 0.244-0.422 0.356-0.711 0.378v0.044zM28.956 12.867v0 0c0.044-0.044 0.111-0.089 0.2-0.133v0c0.022-0.022 0.044-0.067 0.089-0.111 0.111-0.133 0.311-0.356 0.378-0.333 0 0.022 0.022 0.022 0.022 0.022h-0.022c0.022 0.022 0.044 0.044 0 0.089l-0.533 0.644h0.133l0.4-0.489c0.222-0.222 0.333-0.267 0.378-0.244h0.067c0.067 0.156-0.511 0.378-0.356 0.667v0c0 0.044 0.022 0.044 0.044 0.067 0.089 0.022 0.267-0.089 0.556-0.4 0 0 0 0-0.022-0.022h-0.022c-0.356 0.356-0.489 0.422-0.533 0.4l-0.022-0.022c-0.089-0.133 0.378-0.4 0.378-0.622 0-0.022 0-0.022 0-0.022 0-0.067-0.022-0.089-0.067-0.111-0.067-0.022-0.178 0.044-0.356 0.2 0.022-0.067 0-0.111-0.022-0.156 0-0.022-0.022-0.022-0.044-0.044-0.089-0.022-0.222 0.133-0.4 0.333-0.022 0.022-0.022 0.022-0.044 0.044v0c-0.067 0.089-0.133 0.133-0.2 0.2v0.044zM28.956 12.6h0.022v-0.044c0.089-0.044 0.222-0.156 0.222-0.244 0 0 0-0.022-0.022-0.022-0.022-0.022-0.022-0.022-0.044-0.022-0.044 0-0.111 0.044-0.178 0.089v-0.089c0.022 0 0.067 0 0.111-0.022 0 0 0 0 0.022 0h0.022c0.022 0 0.044 0 0.067 0.022 0 0 0 0.022 0.022 0.022v0c0.044 0.089-0.089 0.244-0.244 0.311zM33.089 25.867v-0.022h-0.044c0 0.067-0.022 0.089-0.067 0.133-0.022 0-0.044 0.022-0.089 0.022-0.022 0-0.067-0.022-0.111-0.044-0.178-0.067-0.378-0.111-0.556-0.111-0.267 0-0.489 0.067-0.689 0.156-0.222 0.089-0.378 0.222-0.489 0.4-0.111 0.2-0.178 0.378-0.178 0.6 0 0.267 0.089 0.489 0.267 0.689 0.244 0.244 0.578 0.378 1 0.378 0.244 0 0.444-0.044 0.622-0.133 0.178-0.067 0.333-0.2 0.467-0.4l-0.067-0.044c-0.156 0.178-0.289 0.289-0.422 0.356-0.156 0.044-0.289 0.089-0.467 0.089-0.2 0-0.378-0.022-0.533-0.111-0.133-0.067-0.244-0.178-0.333-0.311-0.067-0.156-0.111-0.311-0.111-0.511 0-0.244 0.044-0.422 0.133-0.578s0.2-0.267 0.333-0.333c0.133-0.067 0.289-0.111 0.467-0.111 0.2 0 0.378 0.044 0.533 0.156 0.133 0.089 0.244 0.244 0.333 0.467h0.067l-0.067-0.733zM36.178 18.867l-0.089-1.756h-0.111c0 0-0.022 0.2-0.178 0.244-0.133 0.044-0.178 0.044-0.311 0-0.156-0.044-0.533-0.244-1.067-0.244s-1.089 0.2-1.444 0.578c-0.378 0.378-0.511 0.733-0.511 1.133 0 0.422 0.133 0.978 0.511 1.267s0.889 0.6 1.267 0.8c0.356 0.2 0.933 0.6 1.022 0.889 0.111 0.311 0.089 0.667-0.133 0.956-0.222 0.267-0.533 0.444-1.067 0.289-0.556-0.156-0.711-0.333-0.978-0.733-0.244-0.4-0.356-0.822-0.356-0.822l-0.156 0.022 0.067 2.067 0.133-0.022c0 0 0.089-0.222 0.289-0.267 0.289-0.067 0.289 0 0.578 0.111 0.267 0.133 0.556 0.156 1.022 0.156s1.133-0.244 1.444-0.6c0.311-0.356 0.467-0.644 0.467-1.267 0-0.644-0.178-0.867-0.467-1.156-0.267-0.289-0.822-0.644-1.333-0.956-0.533-0.311-0.844-0.422-1.067-0.8-0.222-0.356-0.111-0.667 0-0.822 0.089-0.156 0.333-0.4 0.689-0.4s0.644 0.133 0.889 0.333c0.333 0.244 0.422 0.378 0.622 0.667 0.111 0.156 0.178 0.333 0.178 0.333h0.089zM28.956 12.289v0 0c-0.133 0.044-0.222 0.133-0.311 0.289-0.133 0.156-0.2 0.311-0.156 0.444h0.022v0.022c0.022 0.022 0.044 0.022 0.067 0.044 0.089 0.022 0.222-0.044 0.4-0.178v-0.044c-0.178 0.133-0.333 0.2-0.4 0.178h-0.022c-0.044-0.044 0.022-0.2 0.133-0.311 0.089-0.022 0.178-0.044 0.244-0.067v0c0-0.022 0-0.022 0.022-0.022v0c0 0 0-0.022 0.022-0.022v-0.044c-0.022 0-0.044 0.022-0.067 0.022v0c-0.044 0.022-0.089 0.022-0.156 0.044-0.044 0-0.044 0-0.022-0.044 0.067-0.089 0.156-0.156 0.222-0.222v-0.089zM28.956 14.556v0 0c-0.044 0-0.111 0-0.156 0 0.156-0.4-0.2-0.978-0.956-0.956v0.044c0.756 0 1.044 0.533 0.867 0.889-0.2-0.022-0.422-0.089-0.667-0.222-0.067-0.044-0.133-0.067-0.222-0.111v0.111c0.067 0.022 0.111 0.044 0.178 0.067 0.289 0.089 0.511 0.156 0.689 0.2-0.111 0.222-0.4 0.378-0.844 0.311v0.022c0.511 0.044 0.822-0.111 0.933-0.333 0.067 0 0.111 0.022 0.178 0.022v-0.044zM28.956 17.111v0 0c-0.422 0.111-0.8 0.378-1.111 0.689v5.156c0.378 0.356 0.8 0.511 1.111 0.556v-1.378c-0.022-0.044-0.067-0.067-0.111-0.111-0.511-0.533-0.533-1.089-0.6-1.467-0.044-0.267-0.022-1-0.022-1h0.733v-0.489h-0.667c0 0 0.067-0.667 0.356-1.089 0.111-0.156 0.2-0.244 0.311-0.333v-0.533zM28.956 26.022v0.356l-0.444 0.844h0.444v0.111h-0.511l-0.178 0.333c-0.044 0.089-0.067 0.133-0.067 0.178s0.022 0.067 0.067 0.089c0.044 0.044 0.133 0.044 0.244 0.067v0.067h-0.667v-0.111c0.022 0 0.044-0.022 0.044-0.022 0.067-0.044 0.133-0.156 0.222-0.289l0.844-1.622zM27.844 12.889v0 0c0.089-0.044 0.156-0.133 0.244-0.2v-0.022c0-0.022-0.022-0.022-0.022 0-0.089 0.067-0.156 0.133-0.222 0.178v0.044zM27.844 12.644v0 0c0.156-0.067 0.311-0.244 0.267-0.333v0c-0.022 0-0.022-0.022-0.022-0.022-0.022-0.022-0.044-0.022-0.089-0.022v0c0 0 0 0-0.022 0 0 0 0 0-0.022 0-0.044 0.022-0.089 0.022-0.133 0.044v0.089c0.067-0.044 0.133-0.067 0.178-0.089 0.022 0 0.022 0.022 0.044 0.022s0.022 0 0.022 0.022c0 0.089-0.133 0.2-0.222 0.244v0.044zM27.844 11v0c0.067-0.044 0.111-0.111 0.133-0.178l-0.133-0.133v-0.022c0.044 0.044 0.067 0.067 0.089 0.022 0-0.044-0.067-0.089-0.044-0.133 0 0 0.022-0.022 0.044-0.022 0-0.067-0.022-0.111-0.067-0.156 0 0 0 0-0.022 0.022v-0.111c0.022 0.022 0.044 0.044 0.067 0.067 0.111 0.156 0.111 0.311 0.044 0.489l-0.111-0.156v0.111c0.022 0 0.022 0 0 0.022v0.178zM27.844 10.289v0 0c-0.044-0.044-0.111-0.111-0.2-0.156v0.2c0.022 0.022 0.022 0.044 0.044 0.067 0.022-0.044-0.044-0.111-0.022-0.133 0.067 0.044 0.111 0.089 0.156 0.156 0 0 0.022 0 0.022-0.022v-0.111zM27.844 10.689v0 0c0-0.022 0-0.022-0.044-0.044l0.044 0.044v0.111c-0.022-0.044-0.067-0.089-0.044-0.133l0.044 0.022zM27.844 10.822v0 0 0c-0.067 0.044-0.067-0.067-0.156-0.067-0.022 0.089 0.067 0.089 0.044 0.178-0.022 0-0.067-0.022-0.089-0.044v0.222c0.022 0 0.044-0.022 0.067-0.022 0.044-0.022 0.089-0.044 0.133-0.089v-0.178zM27.844 12.333v0 0c-0.067 0.022-0.133 0.067-0.2 0.111v0.178c0.067-0.067 0.133-0.133 0.2-0.2v-0.089zM27.844 12.6v0 0.044h-0.022c-0.022 0-0.022 0.022-0.022 0.022v0c-0.044 0-0.111 0.022-0.178 0.044v-0.044c0 0 0 0 0.022 0 0.067-0.022 0.111-0.022 0.156-0.044v0c0 0 0.022 0 0.044-0.022zM27.844 12.844v0 0c-0.067 0.067-0.133 0.133-0.2 0.133v0.044c0.067-0.044 0.133-0.089 0.2-0.133v-0.044zM27.844 13.578v0 0c-0.044 0-0.111 0.022-0.2 0.022v0.044c0.067 0 0.133-0.022 0.2-0.022v-0.044zM27.844 14.2v0 0c-0.067-0.022-0.133-0.044-0.2-0.067v0.111c0.067 0.022 0.133 0.044 0.2 0.067v-0.111zM27.844 14.889v0 0c0 0 0 0 0 0-0.067-0.022-0.133-0.044-0.222-0.044v0.022c0.067 0.022 0.133 0.044 0.2 0.067 0.022 0 0.022 0 0.022 0v-0.044zM27.844 17.8v0 0c-0.067 0.067-0.133 0.156-0.2 0.244v4.667c0.067 0.089 0.133 0.156 0.2 0.222v-5.133zM27.844 27.956v0 0c-0.022 0-0.089 0.022-0.178 0.044v0.067h0.178v-0.111zM27.644 12.178l0.111-0.044c0.067 0 0.022-0.111-0.044-0.067l-0.067 0.044v0.067zM27.644 4.222v0c0.067-0.022 0.133-0.044 0.222-0.111l-0.022-0.044c-0.044 0.022-0.067 0.022-0.111 0.022s-0.067 0.022-0.089 0.022v0.111zM27.644 4.133v0 0c-0.133 0-0.267-0.022-0.4-0.089v0.067c0.111 0.022 0.222 0.022 0.333 0.044l-0.333 0.067v0.067l0.067 0.022-0.067 0.022v0.111c0.089-0.089 0.244-0.156 0.4-0.222v-0.089zM27.644 10.133v0 0c-0.111-0.067-0.244-0.111-0.4-0.178 0 0 0 0-0.022 0v0.111c0.067 0.044 0.156 0.133 0.244 0.267-0.022-0.133-0.022-0.178 0.022-0.156 0.022 0 0.089 0.044 0.156 0.156v-0.2zM27.644 10.867v0.222c-0.156 0.044-0.289 0.022-0.4-0.044v-0.311c0.067 0.067 0.044 0.156 0.156 0.178 0.111 0.044-0.044-0.089-0.022-0.156 0.111 0.044 0.067 0.133 0.222 0.178 0.022-0.067-0.067-0.089-0.044-0.178 0.022 0.044 0.044 0.089 0.089 0.111v0 0zM27.644 12.111l-0.133 0.089 0.133-0.022v-0.067zM27.644 12.444v0 0c-0.044 0.022-0.067 0.067-0.067 0.133-0.044 0.022-0.067 0.067-0.089 0.111-0.022 0-0.022 0-0.022 0-0.089 0.089-0.156 0.133-0.222 0.2v0.044c0.044-0.044 0.111-0.089 0.178-0.156-0.067 0.089-0.067 0.178-0.022 0.267v0c0 0.022 0 0.022 0 0.022v0c0.022 0.022 0.044 0.022 0.067 0.044 0.044 0 0.111 0 0.178-0.044v-0.044c-0.067 0.044-0.133 0.067-0.178 0.044 0 0 0 0-0.022 0v0c-0.044-0.044 0.022-0.2 0.133-0.311 0.022 0 0.044-0.022 0.067-0.022v-0.044c-0.022 0-0.022-0.022 0-0.044 0-0.022 0-0.022 0-0.022v-0.178zM27.644 13.6v0 0c-0.133 0.022-0.267 0.067-0.4 0.111v0.022c0.133-0.044 0.267-0.067 0.4-0.089v-0.044zM27.644 14.133v0 0c-0.133-0.044-0.267-0.067-0.4-0.089v0.067c0.133 0.022 0.267 0.067 0.4 0.111v-0.089zM27.644 14.822v0 0c-0.178-0.067-0.289-0.133-0.4-0.2v0.044c0.089 0.044 0.2 0.111 0.4 0.178v-0.022zM27.644 18.044v4.667c-0.156-0.178-0.267-0.4-0.378-0.667-0.022-0.044-0.022-0.067-0.044-0.111v-3.178c0.111-0.244 0.244-0.489 0.422-0.711v0 0zM27.244 12.622v0-0.022c0.089-0.044 0.222-0.156 0.222-0.244 0 0-0.022-0.022-0.022-0.022-0.022-0.022-0.022-0.022-0.044-0.022-0.044 0-0.111 0.022-0.178 0.089v-0.089c0.044 0 0.089-0.022 0.133-0.022 0 0 0.022 0 0.022 0 0-0.022 0.022-0.022 0.022-0.022v0c0.022 0 0.044 0 0.067 0.022 0 0 0 0.022 0.022 0.022v0c0.044 0.089-0.089 0.244-0.244 0.311zM27.244 11.867l0.178-0.2h-0.178v0.2zM27.244 10.244v-0.067c0.022 0.022 0.067 0.067 0.044 0.111-0.022-0.022-0.022-0.022-0.044-0.044zM27.4 11.667v0 0 0 0zM27.244 4.089v0 0c-0.111-0.022-0.2-0.044-0.289-0.067v0.044c0.111 0.044 0.2 0.067 0.289 0.089v-0.067zM27.244 4.244l-0.289 0.089v0.044l0.267-0.067h0.022v-0.067zM27.244 4.333h0.044v0.133c-0.089 0.067-0.178 0.133-0.222 0.2l-0.022 0.022-0.022-0.022c-0.022 0-0.022 0-0.044-0.022v-0.044c0.022 0 0.022 0.022 0.044 0.022 0.022-0.022 0.044-0.067 0.067-0.089l-0.111 0.022v-0.067l0.111-0.022-0.089-0.044-0.044 0.022v-0.044l0.289-0.067zM27.244 9.956v0 0c-0.111-0.044-0.222-0.067-0.289-0.089v0.2c0.022 0.044 0.067 0.089 0.111 0.133 0-0.089-0.089-0.156-0.022-0.178 0.044 0 0.067 0.089 0.2 0.222v-0.089c-0.022-0.044-0.067-0.067 0-0.089v-0.111zM27.244 10.733v0.311c-0.044-0.022-0.089-0.067-0.133-0.089-0.044-0.044-0.111-0.067-0.156-0.067v-0.2c0.044 0.044 0.067 0.089 0.111 0.133-0.022-0.067-0.089-0.133-0.067-0.178 0.111 0.044 0.089 0.178 0.222 0.222 0.044-0.022-0.067-0.133-0.022-0.156 0.022 0 0.044 0.022 0.044 0.022v0 0zM27.244 11.667l-0.289 0.333v0.222l0.289-0.356v-0.2zM27.244 12.311v0.089c-0.067 0.067-0.156 0.133-0.222 0.2-0.022 0.044-0.022 0.044 0.022 0.044 0.067-0.022 0.111-0.022 0.156-0.044v0c0.022 0 0.022-0.022 0.044-0.022v0.044l-0.022 0.022c-0.089 0.022-0.156 0.044-0.267 0.067 0 0-0.022 0-0.022 0.022v-0.2c0.089-0.111 0.178-0.178 0.311-0.222v0 0zM27.244 12.844v0 0c-0.133 0.111-0.222 0.156-0.289 0.156v0.044c0.089-0.022 0.178-0.067 0.289-0.156v-0.044zM27.244 13.711v0 0c-0.044 0-0.067 0.022-0.067 0.022h0.022c0 0 0.022 0 0.044-0.022v0zM27.244 14.044v0 0c-0.111 0-0.2-0.022-0.289-0.044v0.067c0.089 0 0.2 0.022 0.289 0.044v-0.067zM27.244 14.622v0 0c-0.111-0.044-0.178-0.111-0.289-0.133v0.022c0.111 0.044 0.2 0.089 0.289 0.156v-0.044zM27.244 18.756v0 0c-0.044 0.111-0.089 0.2-0.089 0.311-0.133 0.467-0.2 0.889-0.2 1.333 0 0.467 0.089 0.956 0.289 1.533v-3.178zM26.956 26v0 0c0.044 0 0.089-0.022 0.156-0.022h0.111v-0.067h-0.267v0.089zM26.956 3.178v0c0.067-0.044 0.111-0.067 0.2-0.089l0.044-0.022-0.044-0.044c-0.067-0.022-0.133-0.044-0.2-0.089v0.067c0.044 0.022 0.089 0.044 0.133 0.067-0.044 0-0.089 0.022-0.133 0.044v0.067zM26.956 2.956v0 0c-0.089-0.044-0.2-0.067-0.267-0.067v0.044c0.089 0.022 0.178 0.044 0.267 0.089v-0.067zM26.956 3.111v0 0c-0.111 0.044-0.2 0.089-0.267 0.156v0.044c0.067-0.044 0.156-0.089 0.267-0.133v-0.067zM26.956 4.022v0 0c-0.044-0.022-0.067-0.022-0.089-0.044h-0.022l-0.022 0.022c-0.044 0.044-0.089 0.089-0.156 0.133v0.067c0.067-0.044 0.133-0.111 0.178-0.156 0.044 0 0.067 0.022 0.111 0.022v-0.044zM26.956 4.311l-0.267 0.067v0.044l0.267-0.067v-0.044zM26.956 4.4v0.044l-0.178 0.044v-0.044l0.178-0.044zM26.956 4.489l-0.156 0.044v0.022c-0.044 0-0.067 0-0.111-0.022v0.044c0.089 0.022 0.178 0.044 0.267 0.067v-0.044c-0.044 0-0.067-0.022-0.111-0.022l0.111-0.022v-0.067zM26.956 9.867v0 0c-0.067 0-0.111-0.022-0.178-0.022-0.022-0.022-0.067-0.022-0.111-0.044v0.178c0.044 0.022 0.089 0.089 0.156 0.156-0.022-0.133-0.089-0.178-0.022-0.2 0.067 0.022 0.111 0.067 0.156 0.133v-0.2zM26.956 10.711v0 0c-0.089-0.111-0.156-0.267-0.267-0.356h-0.022v-0.022c0.022 0.022 0.044 0.044 0.067 0.067l-0.067 0.022v0.044c0.111 0.133 0.156 0.2 0.111 0.222-0.022 0.022-0.044-0.022-0.111-0.089v0.333c0.089 0 0.178 0 0.267-0.022h0.022v-0.2zM26.956 12l-0.267 0.333v0.222l0.267-0.333v-0.222zM26.956 12.511c-0.022 0.022-0.022 0.022-0.022 0.022-0.044 0.067-0.089 0.111-0.111 0.178v0c-0.044 0.044-0.089 0.089-0.133 0.133v0.044c0.044-0.044 0.067-0.067 0.111-0.111-0.022 0.089-0.022 0.156 0 0.222 0 0.022 0.022 0.022 0.022 0.022s0 0 0 0.022v0c0.022 0.022 0.044 0.044 0.067 0.044 0.022 0.022 0.067 0.022 0.111 0v-0.044c-0.044 0.022-0.089 0.022-0.111 0.022 0 0-0.022 0-0.022-0.022v0.022c-0.067-0.044 0.022-0.2 0.111-0.311v-0.244h-0.022zM26.956 14.022v0 0c-0.111 0-0.2 0-0.267 0v0.044c0.089 0 0.178 0 0.267 0.022v-0.067zM26.956 14.489v0 0c-0.044-0.022-0.067-0.022-0.111-0.044h-0.089c0.089 0.022 0.133 0.044 0.2 0.067v-0.022zM26.956 25.933h-0.289v2.067l0.111 0.089h0.067v-1.778c0-0.111 0.022-0.178 0.044-0.222 0.022-0.022 0.044-0.044 0.067-0.067v-0.089zM26.667 3.044v-0.022l0.067 0.044c0 0 0 0.022-0.022 0.022l-0.044-0.044zM26.667 2.867v0 0c-0.067-0.022-0.133-0.022-0.222-0.044v0.044c0.067 0 0.156 0.022 0.222 0.044v-0.044zM26.667 3.022l-0.044-0.022c0-0.022-0.044 0-0.022 0.022l0.067 0.044v-0.044zM26.667 3.267v0 0c-0.089 0.044-0.156 0.111-0.222 0.178v0.089c0.044-0.089 0.133-0.156 0.222-0.222v-0.044zM26.667 4.133v0 0c-0.067 0.044-0.133 0.089-0.222 0.156v0.044c0.089-0.044 0.156-0.089 0.222-0.133v-0.067zM26.667 4.378l-0.133 0.022 0.022 0.044 0.111-0.022v-0.044zM26.667 4.533v0 0c-0.067 0-0.133 0-0.222 0.022v0.044c0.067-0.022 0.133-0.022 0.222-0.022v-0.044zM26.667 9.8v0 0c-0.044 0-0.111 0-0.2-0.022 0 0 0 0-0.022 0v0.133c0.044 0.044 0.111 0.111 0.2 0.2-0.022-0.089-0.156-0.178-0.067-0.2 0.022 0 0.044 0.022 0.089 0.067v-0.178zM26.667 10.333v0.022h-0.067c0.022 0.022 0.044 0.044 0.067 0.089v-0.022h-0.022c-0.067-0.111-0.133-0.2-0.2-0.267v-0.111c0.044 0.067 0.111 0.156 0.222 0.289zM26.667 10.578v0 0c-0.044-0.067-0.111-0.156-0.178-0.267h-0.022v-0.022c0 0.022 0.022 0.044 0.044 0.067h-0.044l-0.022-0.022c0.156 0.222 0.244 0.333 0.222 0.378-0.067-0.044-0.133-0.133-0.222-0.222v0.089c0.044 0.067 0.067 0.111 0.044 0.111 0 0-0.022 0-0.044-0.022v0.222c0.067 0 0.156 0.022 0.222 0.022v-0.333zM26.667 12.333l-0.022 0.022c0-0.022 0-0.044-0.022-0.067-0.022 0-0.044-0.022-0.067-0.022v0c-0.022 0-0.022 0-0.022 0-0.022 0-0.044 0-0.067 0.022-0.022 0-0.022 0-0.044 0.022v0.067c0.044-0.044 0.067-0.067 0.111-0.067 0.022 0 0.022 0 0.044 0.022 0.044 0.022 0.044 0.044 0.022 0.089l-0.156 0.2v0.222l0.222-0.289v-0.222zM26.667 12.844v0 0c-0.089 0.067-0.156 0.156-0.222 0.178v0.044c0.044-0.022 0.133-0.089 0.222-0.178v-0.044zM26.667 14.044v0 0c-0.089 0-0.156 0.022-0.222 0.044v0.022c0.067 0 0.133-0.022 0.222-0.022v-0.044zM26.667 25.933v2.067l-0.222-0.222v-0.467l0.222 0.222v-1.222c0-0.133-0.022-0.222-0.044-0.244-0.044-0.044-0.111-0.044-0.178-0.067v-0.067h0.222zM26.444 23.378h0.178v-0.067c0 0-0.067 0-0.178-0.067v0.133zM26.444 5.444v0 0c0.022-0.044 0.044-0.089 0.067-0.111l0.022-0.022-0.022-0.022c-0.022-0.022-0.044-0.044-0.067-0.067v0.067c0.022 0 0.022 0 0.044 0.022-0.022 0-0.022 0.022-0.044 0.044v0.089zM26.444 3.2l0.022 0.022c0 0 0.044 0 0.022-0.022l-0.044-0.044v0.044zM26.444 3l0.111 0.111c0.022 0.022 0.044 0 0.022-0.022l-0.133-0.133v0.044zM26.444 2.822v0 0c-0.044 0-0.089 0-0.156-0.022v0.044c0.044 0 0.089 0.022 0.156 0.022v-0.044zM26.444 2.956v0 0 0c0-0.022-0.044 0-0.044 0l0.044 0.044v-0.044zM26.444 3.178v0.044l-0.156-0.156v-0.067l0.156 0.178zM26.444 3.444v0 0c-0.067 0.089-0.133 0.156-0.156 0.244v0.133c0.022-0.111 0.067-0.2 0.156-0.289v-0.089zM26.444 4.267v0.044c-0.044 0.022-0.089 0.044-0.133 0.067l0.067 0.2c0.022 0 0.044-0.022 0.089-0.022v0.044c-0.022 0-0.044 0.022-0.089 0.022l0.022 0.089c0.022 0.022 0 0.044-0.022 0.044l-0.089 0.022v-0.067l0.044-0.022-0.022-0.044-0.022 0.022v-0.044h0.022l-0.022-0.044v-0.289c0 0.022 0.022 0.022 0.022 0.022v0.022c0.044-0.044 0.089-0.067 0.133-0.067v0 0zM26.444 5.222v0 0c-0.067-0.067-0.133-0.178-0.156-0.311v0.156c0.022 0.089 0.089 0.156 0.156 0.222v-0.067zM26.444 5.356h0.022v0.089c-0.044 0.111-0.089 0.222-0.111 0.333l-0.022 0.067-0.022-0.044c-0.022-0.022-0.022-0.022-0.022-0.022v-0.244h0.022l0.044-0.067-0.067-0.178v-0.044l0.022-0.022 0.067 0.2 0.044-0.044c0 0 0-0.022 0.022-0.022zM26.444 9.8v0 0c-0.044-0.022-0.089-0.044-0.156-0.022v0.222c0.044 0.022 0.089 0.089 0.156 0.156v-0.111c-0.044-0.067-0.089-0.111-0.067-0.133 0 0 0.022 0 0.067 0.022v-0.133zM26.444 10.289h-0.022c0 0.022 0 0.022 0.022 0.044v0c-0.044-0.067-0.111-0.133-0.156-0.2v-0.067c0.022 0.044 0.089 0.133 0.156 0.222zM26.444 10.489v0.089c-0.044-0.067-0.089-0.133-0.156-0.222v-0.044l0.022 0.022c-0.022-0.022-0.022-0.022-0.022-0.044v0c0.067 0.089 0.111 0.156 0.156 0.2v0 0zM26.444 10.689v0.2c-0.044 0-0.089 0-0.156-0.022v-0.311c0.044 0.044 0.089 0.089 0.156 0.133zM26.444 12.311v0 0c-0.044 0.022-0.111 0.044-0.156 0.089v0.133c0.044-0.067 0.111-0.111 0.156-0.156v-0.067zM26.444 12.6l-0.178 0.2v0.222c0 0.022 0.022 0.022 0.044 0.044v0c0 0 0 0.022 0.022 0.022v0c0.022 0 0.022 0 0.044 0s0.044 0 0.067-0.022v-0.044c-0.022 0-0.044 0.022-0.067 0.022v0c-0.067-0.022-0.044-0.089 0-0.133l0.067-0.089v-0.222zM26.444 14.067v0 0c-0.067 0.022-0.133 0.022-0.156 0.022v0.022c0.044 0 0.089-0.022 0.156-0.022v-0.022zM26.444 23.244v0 0c-0.044-0.044-0.089-0.067-0.156-0.133v0.267h0.156v-0.133zM26.444 25.933h-0.156v0.067h0.089c0.022 0 0.044 0 0.067 0v-0.067zM26.444 27.289l-0.156-0.156v0.467l0.156 0.156v-0.467zM26.289 3.267l0.044 0.044c0.022 0.022 0.044 0 0.022-0.022l-0.067-0.067v0.044zM26.289 2.822v0 0c-0.089 0-0.156 0-0.244 0v0.044c0.089 0 0.156 0 0.244 0v-0.044zM26.289 3l-0.044-0.044c0-0.022-0.067 0-0.044 0.022l0.089 0.089v-0.067zM26.289 3.222v0.067l-0.244-0.222v-0.089l0.244 0.244zM26.289 3.689v0 0c-0.089 0.156-0.111 0.356-0.067 0.556l-0.178 0.044v0.089l0.2-0.044 0.044 0.2-0.244 0.067v0.044l0.244-0.067v-0.289h-0.022c-0.022-0.178-0.022-0.311 0.022-0.467v-0.133zM26.289 4.6v0.044l-0.244 0.067v-0.044l0.244-0.067zM26.289 4.689l-0.244 0.089v0.067l0.178-0.044c0 0.111 0.022 0.2 0.067 0.289v-0.156c0-0.044-0.022-0.111-0.022-0.156l0.022-0.022v-0.067zM26.289 5.222v0zM26.289 5.489h-0.022v0.267c-0.067-0.089-0.133-0.156-0.244-0.222v-0.089l0.067 0.044 0.022-0.022-0.044-0.244h0.044l0.044 0.244 0.044 0.022 0.022-0.022-0.089-0.4 0.044-0.022 0.089 0.422 0.022 0.022zM26.289 9.756v0 0c-0.067 0-0.133 0.022-0.2 0.044-0.022-0.022-0.022-0.022-0.044-0.022v0.111c0.089 0.044 0.156 0.133 0.244 0.222v-0.067c-0.044-0.044-0.067-0.089-0.067-0.111 0.022 0.022 0.044 0.022 0.067 0.044v-0.222zM26.289 10.289v0 0c-0.022 0-0.022 0 0-0.022h-0.067c0.022 0.022 0.044 0.067 0.067 0.089v-0.044h-0.044c-0.067-0.111-0.133-0.2-0.2-0.267v-0.089c0.044 0.067 0.111 0.178 0.244 0.333v0zM26.289 10.556v0.311c-0.089-0.022-0.156-0.044-0.244-0.067v-0.333c0.067 0.089 0.111 0.133 0.178 0.156 0.022-0.022-0.067-0.133-0.178-0.333v-0.044l0.067 0.022c-0.022-0.022-0.044-0.044-0.067-0.067v0.022h0.022c0.089 0.111 0.133 0.222 0.222 0.333v0 0zM26.289 12.378v0 0c-0.089 0.044-0.178 0.133-0.244 0.178v0.222c0.067-0.089 0.156-0.178 0.244-0.267v-0.133zM26.289 12.8v0 0.222c-0.022-0.022-0.022-0.044-0.022-0.089s-0.022-0.044-0.044-0.022c-0.067 0.089-0.111 0.133-0.178 0.156v-0.022c0.067-0.022 0.133-0.089 0.2-0.178v-0.022l0.044-0.044zM26.289 14.111v0 0c-0.044 0-0.044 0.022-0.067 0.022 0.022 0 0.044 0 0.067-0.022v0zM26.289 23.111v0 0c-0.022 0-0.022-0.022-0.022-0.022-0.156-0.178-0.156-0.511-0.156-0.511s0-3.867 0-3.956c0-0.044-0.022-0.2-0.067-0.4v5.133h0.244v-0.244zM26.289 27.133l-0.244-0.222v0.467l0.244 0.222v-0.467zM26.044 3.667v0 0c0.044-0.022 0.044-0.067 0.044-0.133 0-0.022 0-0.067-0.044-0.111l0.089 0.089c0 0.022-0.022 0.044-0.044 0.022l-0.044-0.044v0.178zM26.044 3.267l0.111 0.111c0 0 0.044 0 0.022-0.022l-0.133-0.133v0.044zM26.044 2.822v0 0c0 0-0.022 0-0.044 0v0.044c0.022 0 0.022 0 0.044 0v-0.044zM26.044 2.978v-0.022c-0.022 0-0.022 0-0.044 0v0.067l0.044 0.044v-0.089zM26.044 3.222l-0.044-0.067v0.067l0.044 0.044v-0.044zM26.044 3.444l-0.044-0.067v0.022c0.022 0 0.022 0.022 0.044 0.044v0zM26.044 3.511l-0.044-0.044v0.022c0.022 0.022 0.044 0.044 0.044 0.089s0 0.067-0.022 0.089c0-0.022 0-0.022-0.022-0.044v0.089h0.022c0 0 0.022-0.022 0.022-0.022v-0.178zM26.044 4.289l-0.044 0.022v0.089l0.044-0.022v-0.089zM26.044 4.6l-0.044 0.022v0.044l0.044-0.022v-0.044zM26.044 4.667h-0.044v0.067l0.044-0.022v-0.044zM26.044 4.733l-0.044 0.022v0.067h0.022l0.022-0.022v-0.067zM26.044 5.467l-0.044-0.022v0.067c0.022 0.022 0.022 0.022 0.044 0.044v-0.089zM26.044 9.778v0 0c0-0.022-0.022-0.022-0.044-0.022v0.244c0.022 0 0.022 0.022 0.044 0.044v-0.089c-0.022-0.044-0.022-0.044-0.022-0.067 0.022 0.022 0.022 0.022 0.022 0.022v-0.133zM26.044 10.2v0 0c0-0.022-0.022-0.022-0.044-0.044v0.067h0.044v-0.022zM26.044 10.267v0 0.022c0-0.022-0.022-0.044-0.044-0.067v0c0 0.022 0.022 0.022 0.022 0.044h0.022zM26.044 10.467v0 0c0-0.022-0.022-0.044-0.044-0.089v0.4c0.022 0 0.022 0.022 0.044 0.022v-0.333zM26.044 12.578v0 0c0 0-0.022 0.022-0.044 0.044v0.244c0.022-0.022 0.022-0.044 0.044-0.067v-0.222zM26.044 13.044v0 0c0 0-0.022 0-0.044 0v0.044c0.022 0 0.022 0 0.044-0.022v-0.022zM26.044 18.222v0 0c0-0.044-0.022-0.089-0.044-0.133v5.267h0.044v-5.133zM26.044 26.911l-0.044-0.044v0.467l0.044 0.044v-0.467zM26 4.556l0.022-0.044h-0.022v0.044zM26 3.911v0 0zM26 2.822v0 0c0 0-0.022 0-0.067 0.022v0.044c0.022 0 0.044-0.022 0.067-0.022v-0.044zM26 2.956v0 0c-0.022 0-0.044 0-0.022 0.022l0.022 0.044v-0.067zM26 3.156l-0.067-0.044v0.044l0.067 0.067v-0.067zM26 3.4l-0.067-0.067v0.044l0.067 0.067v0.022c0 0 0 0-0.022-0.022-0.022 0-0.022 0-0.044 0v-0.044c0.022 0 0.044 0 0.067 0 0 0 0 0 0 0v0zM26 3.6v0 0c0-0.022-0.022-0.044-0.067-0.044v0.044c0.022 0.022 0.022 0.022 0.044 0.067l0.022 0.044v-0.111zM26 3.911l-0.044-0.044h-0.022v0.044h0.067zM26 4.311l-0.067 0.022v0.089l0.067-0.022v-0.089zM26 4.533l-0.067 0.022v0.044l0.067-0.022v-0.044zM26 4.6l-0.067 0.022v0.044l0.067-0.022v-0.044zM26 4.667l-0.067 0.022v0.044l0.067-0.022v-0.044zM26 4.756h-0.067v0.089l0.067-0.022v-0.067zM26 5.444l-0.067-0.044v0.067c0.022 0.022 0.044 0.022 0.067 0.044v-0.067zM26 9.756v0 0c0-0.022-0.022-0.022-0.067-0.022v0.2c0.022 0 0.044 0.022 0.067 0.067v-0.244zM26 10.156v0 0c0-0.022-0.022-0.044-0.067-0.089v0.067c0.022 0.022 0.044 0.067 0.067 0.089v-0.067zM26 10.4v0 0c0-0.022-0.022-0.067-0.067-0.089v0.089c0.044 0.067 0.089 0.133 0.067 0.156-0.022 0-0.044-0.022-0.067-0.044v0.267c0.022 0 0.044 0 0.067 0.022v-0.4zM26 12.622v0 0c-0.022 0.022-0.022 0.067-0.067 0.111v0.356c0.022 0 0.022 0 0.044 0 0 0 0 0 0.022 0v-0.044c0 0.022 0 0.022-0.022 0.022-0.044-0.044-0.022-0.111 0.022-0.2v-0.244zM26 18.089v0 0c0-0.067-0.022-0.111-0.067-0.156v5.444h0.067v-5.289zM26 26.867l-0.067-0.067v0.467l0.067 0.067v-0.467zM25.956 5.422v0c0.067-0.222 0.067-0.4 0-0.578v0.178c0.022 0.044 0.022 0.133 0 0.2v0.2zM25.956 2.822v0 0c-0.044 0-0.111 0.022-0.133 0.022v0.044c0.044 0 0.089-0.022 0.133-0.022v-0.044zM25.956 3.111v0.067l-0.133-0.133v-0.044c0.022 0 0.022 0 0.044 0.022l0.089 0.089zM25.956 3.333l-0.133-0.156v0.067l0.133 0.156v-0.067zM25.956 3.4c-0.022 0-0.067 0-0.089 0.022 0-0.067-0.022-0.133-0.044-0.178v0.111c0 0.044 0 0.067 0 0.111v0.067l0.044-0.044c0.044-0.044 0.067-0.044 0.089-0.044v-0.044zM25.956 3.556v0 0c-0.022 0-0.022 0-0.067-0.022-0.044 0-0.067 0.022-0.067 0.089-0.022 0-0.022 0.022-0.044 0.022v0.044c0.022-0.022 0.044-0.022 0.067-0.022h0.022c0 0 0 0.022 0.022 0.022 0 0.022 0 0.044 0 0.044-0.044 0.022-0.067 0.022-0.111 0.044v0.022c0.022 0 0.044 0 0.089-0.022 0 0.022 0 0.022 0.022 0.044 0 0 0 0-0.022 0-0.022 0.022-0.022 0.044-0.044 0.067-0.022 0-0.022 0-0.044-0.022v0.067c0.022 0 0.022 0 0.044 0.022l0.022 0.044 0.022-0.044c0-0.044 0-0.044 0.022-0.067s0.022-0.022 0.044-0.022l0.022 0.022v-0.044c-0.022-0.022-0.022-0.044-0.022-0.067v0c0.044-0.022 0.022-0.044 0.022-0.089 0-0.022-0.022-0.022-0.044-0.044 0-0.022 0-0.044 0.022-0.044 0-0.022 0 0 0.022 0v-0.044zM25.956 4.311l-0.133 0.044v0.089l0.133-0.044v-0.089zM25.956 4.556v0.044l-0.133 0.044v-0.044l0.133-0.044zM25.956 4.622l-0.133 0.044v0.044l0.133-0.044v-0.044zM25.956 4.689v0.044l-0.133 0.022 0.022 0.044 0.111-0.022v0.267c0-0.067-0.022-0.111-0.044-0.178l-0.089 0.022v-0.178l0.022 0.044 0.111-0.067zM25.956 5.222v0.267c-0.022-0.022-0.022-0.022-0.044-0.022l-0.022-0.022 0.022-0.022c0.022-0.067 0.044-0.133 0.044-0.2v0 0zM25.956 9.733v0.2c-0.067-0.067-0.089-0.089-0.133-0.111-0.044 0 0 0.089 0.133 0.244v0.067c-0.044-0.067-0.089-0.133-0.133-0.178v-0.289c0.022 0 0.022 0 0.044 0.022s0.044 0.022 0.089 0.044v0 0zM25.956 10.311v0.067c-0.022-0.067-0.067-0.133-0.133-0.222l0.067 0.022c-0.022-0.022-0.044-0.044-0.067-0.067v0.044h0.022c0.044 0.044 0.067 0.089 0.111 0.156zM25.956 10.511v0.267c-0.044-0.022-0.089-0.044-0.133-0.067v-0.222h0.022c0-0.022-0.022-0.044-0.022-0.067v-0.089c0.022 0.067 0.089 0.133 0.133 0.178v0 0zM25.956 12.711v0.356c0-0.022-0.022-0.022-0.022-0.022h-0.022l-0.022-0.022c0-0.022 0-0.022 0-0.022-0.044-0.067-0.044-0.133 0-0.244-0.044 0.044-0.067 0.067-0.111 0.111v-0.044c0.067 0 0.111-0.044 0.178-0.111v0 0 0zM25.956 17.933v5.444h-0.133v-5.711c0.044 0.089 0.089 0.178 0.133 0.267v0 0zM25.956 26.8v0.467l-0.133-0.156v-0.444l0.133 0.133zM25.8 12.578v-0.244c0.022 0.022 0.044 0.044 0.044 0.089v0c0 0.044-0.022 0.111-0.044 0.156v0zM25.8 2.844v0 0c-0.067 0-0.133 0.022-0.2 0.022v0.067c0.067-0.022 0.133-0.022 0.2-0.044v-0.044zM25.8 2.978v0 0c-0.022 0-0.044 0.022-0.022 0.022l0.022 0.022v-0.044zM25.8 3.178v0.067l-0.2-0.2v-0.044c0-0.022 0.022-0.022 0.044 0l0.156 0.178zM25.8 3.244v0 0c-0.022-0.044-0.067-0.067-0.111-0.133h-0.022l-0.022 0.022c-0.022 0.022-0.022 0.044-0.044 0.067v-0.022l0.022 0.022-0.022 0.044v0.178l0.022 0.022c0.022 0.022 0 0.044-0.022 0.022v0.044c0 0 0 0 0.022 0l0.067 0.022-0.022-0.044c-0.067-0.111-0.067-0.2 0-0.289 0.067 0.022 0.111 0.067 0.133 0.156v-0.111zM25.8 3.667v0 0c-0.022 0-0.044 0-0.111 0-0.022-0.044-0.044-0.067-0.089-0.067 0 0 0 0.022-0.022 0.022v0.156c0-0.044 0.022-0.067 0.044-0.089 0.022 0 0.022 0 0.044 0.044 0 0-0.022 0.022-0.022 0.067 0 0.022 0.022 0.044 0.044 0.044v0.022c0.022 0.022 0.022 0.044 0.022 0.067l-0.044 0.044 0.067-0.022c0.022 0 0.044 0 0.067 0.022v-0.067c0 0-0.022 0-0.044 0 0 0 0-0.022 0-0.044 0 0 0.022-0.022 0.044-0.022v-0.044c-0.022 0-0.067 0.022-0.089 0.022-0.022-0.022-0.022-0.022-0.022-0.044-0.022-0.022 0-0.022 0-0.044h0.022c0.022 0 0.044-0.022 0.089-0.022v-0.044zM25.8 4.356l-0.089 0.022c-0.022-0.089-0.067-0.178-0.111-0.244v0.089c0.044 0.044 0.067 0.111 0.089 0.178-0.022 0-0.022 0.022-0.022 0.022-0.022 0-0.022 0.022-0.022 0.022l0.022 0.044-0.067 0.022v0.067l0.089-0.022 0.044 0.156-0.111 0.022v0.089l0.133-0.044 0.022 0.089c0 0 0 0 0.022 0.022 0 0 0 0 0.022 0v-0.222h-0.022l-0.022-0.044h0.022v-0.044l-0.022 0.022-0.044-0.133 0.067-0.022v-0.089zM25.8 9.689v0 0c-0.067-0.022-0.111-0.044-0.2-0.044v0.156c0.067 0.044 0.133 0.111 0.2 0.178v-0.289zM25.8 10.111v0.022h-0.022c0 0 0 0 0.022 0.022v0c-0.089-0.089-0.133-0.156-0.2-0.222v-0.089c0.022 0.067 0.089 0.133 0.2 0.267zM25.8 10.356v0 0c-0.044-0.067-0.111-0.156-0.156-0.2h-0.022v-0.022c0 0.022 0.022 0.044 0.044 0.067h-0.044c-0.022-0.022-0.022-0.022-0.022-0.022v0c0.089 0.111 0.156 0.2 0.2 0.267v-0.089zM25.8 10.489v0.222c-0.044-0.022-0.067-0.022-0.089-0.044s-0.067-0.044-0.111-0.044v-0.333c0.111 0.111 0.156 0.178 0.2 0.2zM25.8 12.333v0 0c0-0.022 0-0.022 0 0-0.044-0.022-0.111 0-0.222 0.044v0.044c0.089-0.067 0.156-0.089 0.178-0.067 0.022 0 0.022 0 0.022 0 0.044 0.067-0.067 0.156-0.178 0.267v0.178c0.067-0.067 0.133-0.133 0.2-0.222v-0.244zM25.8 12.867v0 0c-0.067 0.067-0.133 0.133-0.2 0.133v0.044c0.044-0.044 0.111-0.089 0.2-0.156v-0.022zM25.8 17.667v0 0c-0.044-0.067-0.111-0.133-0.178-0.2 0 0-0.022 0-0.022-0.022v5.911h0.2v-5.689zM25.8 26.667l-0.2-0.2v0.467l0.2 0.2v-0.467zM25.622 2.867v0 0c-0.044 0.022-0.089 0.022-0.133 0.044v0.067c0.044-0.022 0.089-0.022 0.133-0.044v-0.067zM25.622 3v0 0c-0.022 0-0.022 0.022-0.022 0.022l0.022 0.022v-0.044zM25.622 3.2l-0.133-0.089v0.067l0.133 0.111v0.156l-0.133-0.111v0.044l0.133 0.111v0.044c-0.044 0-0.089 0-0.111 0.022 0 0.022 0 0.044-0.022 0.067v-0.111c0.022-0.022 0.044-0.067 0.111-0.044-0.022-0.089-0.022-0.178 0.022-0.267v0zM25.622 3.622v0 0c-0.022 0.022-0.044 0.044-0.044 0.133-0.022-0.022-0.044-0.044-0.067-0.089 0-0.022-0.022-0.022-0.022-0.044v0.111c0.044 0.022 0.067 0.044 0.111 0.044h0.022v-0.156zM25.622 4.133v0 0c-0.044-0.044-0.089-0.089-0.133-0.133v0.067c0.044 0.044 0.089 0.089 0.133 0.156v-0.089zM25.622 4.489l-0.133 0.044v0.133l0.089-0.089 0.044-0.022v-0.067zM25.622 4.689l-0.133 0.022v0.089l0.133-0.022v-0.089zM25.622 9.644v0 0c-0.022 0-0.067 0-0.089-0.022 0 0.022-0.022 0.022-0.044 0.022v0.2c0.044 0.022 0.089 0.067 0.133 0.111v-0.089c-0.022-0.044-0.022-0.044 0-0.067v-0.156zM25.622 10.111v0 0c-0.044-0.067-0.089-0.111-0.133-0.156v0.044c0.044 0.044 0.089 0.089 0.133 0.156v0c0 0 0 0-0.022-0.022h0.022v-0.022zM25.622 10.289v0.333c-0.044 0-0.067 0-0.111 0.022 0 0 0 0-0.022 0v-0.133c0.022 0.022 0.022 0.022 0.044 0s0-0.044-0.044-0.089v-0.089c0.044 0.044 0.067 0.067 0.111 0.089 0-0.044-0.044-0.111-0.111-0.2v-0.044h0.022c0 0 0-0.022-0.022-0.022v0c0.044 0.044 0.089 0.089 0.133 0.133zM25.622 12.378v0 0c-0.044 0.022-0.089 0.067-0.133 0.089v0.044c0.044-0.022 0.089-0.067 0.133-0.089v-0.044zM25.622 12.622v0 0c-0.044 0.022-0.089 0.067-0.133 0.111v0.222c0.044-0.044 0.089-0.089 0.133-0.156v-0.178zM25.622 13.022v0 0c-0.067 0.044-0.111 0.044-0.133 0.067v0.022c0.044 0 0.067 0 0.133-0.044v-0.044zM25.622 17.444v0 0c-0.044-0.022-0.089-0.044-0.133-0.089v6h0.133v-5.911zM25.622 26.467l-0.133-0.111v0.467l0.133 0.111v-0.467zM25.489 2.911v0 0c0 0-0.022 0-0.044 0.044v0.044c0-0.022 0.022-0.022 0.044-0.022v-0.067zM25.489 3.111l-0.022-0.044c-0.022 0-0.022-0.022-0.022-0.022v0.089l0.044 0.044v-0.067zM25.489 3.311l-0.044-0.067v0.067l0.044 0.044v-0.044zM25.489 3.511v0 0c0 0 0 0 0 0-0.044 0.044-0.044 0.111-0.044 0.156 0.022 0.022 0.022 0.044 0.044 0.067v-0.111c0 0 0 0 0-0.022v-0.089c0 0.022 0 0.022-0.022 0.044l-0.022-0.022v-0.067l0.044 0.044c0 0 0 0 0 0v0zM25.489 4v0 0c0-0.022-0.022-0.022-0.044-0.044v0.067c0.022 0 0.022 0.022 0.044 0.044v-0.067zM25.489 4.511l-0.044 0.022v0.067h0.022l-0.022 0.022v0.089l0.044-0.067v-0.133zM25.489 4.733l-0.044 0.022v0.089l0.044-0.022v-0.089zM25.489 9.644v0 0c0 0-0.022 0-0.044 0v0.156c0 0 0.022 0.022 0.044 0.044v-0.2zM25.489 9.956v0 0c0-0.022-0.022-0.044-0.044-0.089v0.067c0 0.022 0.022 0.044 0.044 0.067v-0.044zM25.489 10.133v0 0c0 0-0.022-0.022-0.044-0.067v0.044l0.044 0.022zM25.489 10.156h-0.044c0 0 0 0 0-0.022v0.022c0.022 0.022 0.022 0.044 0.044 0.067v-0.067zM25.489 10.333v0 0c0-0.022-0.022-0.044-0.044-0.067v0.089c0.022 0.022 0.022 0.044 0.044 0.067v-0.089zM25.489 10.511v0 0c0 0-0.022-0.022-0.044-0.022v0.178c0 0 0.022-0.022 0.044-0.022v-0.133zM25.489 12.467v0 0c0 0.022-0.022 0.044-0.044 0.044v0.044c0.022 0 0.022-0.022 0.044-0.044v-0.044zM25.489 12.733v0 0c0 0.022-0.022 0.044-0.067 0.089v0.244c0.022 0.022 0.022 0.044 0.044 0.044s0.022 0 0.022 0v-0.022l-0.022-0.022c0-0.044 0-0.067 0.022-0.111v-0.222zM25.489 17.356v0 0c0 0-0.022-0.022-0.044-0.022v6.022h0.044v-6zM25.489 26.356l-0.044-0.044v0.467l0.044 0.044v-0.467zM25.444 12.511v-0.111c0.022 0.022 0.022 0.067 0 0.111zM25.444 11.578v0c0-0.022 0.022-0.022 0.022-0.022s0 0 0.022-0.022 0-0.044-0.022-0.067h-0.022v0.111zM25.444 2.933v0 0c-0.022 0-0.044 0-0.067 0.022s-0.044 0.022-0.089 0.044v0.044c0.044-0.022 0.067-0.022 0.111-0.044 0 0 0.022-0.022 0.044-0.022v-0.044zM25.444 3.067v0 0c-0.022 0-0.067 0.022-0.044 0.044l0.044 0.044v-0.089zM25.444 3.267v0 0.067l-0.156-0.133v-0.067h0.022l0.133 0.133zM25.444 3.467l-0.156-0.156v0.089l0.156 0.133v-0.067zM25.444 3.956v0 0c-0.044-0.022-0.089-0.067-0.156-0.089v0.044c0.067 0.044 0.111 0.067 0.156 0.111v-0.067zM25.444 4.533l-0.156 0.044v0.067l0.156-0.044v-0.067zM25.444 4.6v0.067l-0.067 0.067 0.067-0.022v0.089l-0.156 0.044v-0.089l0.156-0.156zM25.444 9.644v0 0c-0.067-0.022-0.111-0.022-0.156 0v0.2c0.044 0.022 0.089 0.067 0.156 0.133v-0.067c-0.067-0.089-0.067-0.133-0.044-0.133 0 0 0.022 0 0.044 0.022v-0.156zM25.444 10.089v0.067h-0.022c0 0 0.022 0 0.022 0.022v-0.022c-0.067-0.067-0.111-0.133-0.156-0.178v-0.067c0.044 0.044 0.089 0.111 0.156 0.178zM25.444 10.267v0 0c-0.044-0.044-0.067-0.111-0.111-0.156l-0.044 0.022v-0.067c0.022 0.022 0.044 0.067 0.067 0.089h-0.067c0.067 0.089 0.111 0.133 0.156 0.2v-0.089zM25.444 10.489v0 0c-0.044-0.022-0.111-0.089-0.156-0.111v0.089c0.022 0.022 0.067 0.044 0.044 0.067s-0.022 0.022-0.044 0v0.156c0.044 0 0.111-0.022 0.156-0.022v-0.178zM25.444 11.467v0 0c0 0-0.022 0-0.044 0.022 0 0.022 0 0.044 0.022 0.067-0.022 0.044-0.067 0.067-0.133 0.089v0.022c0.067 0 0.133-0.044 0.156-0.089v-0.111zM25.444 12.4v0 0c0-0.022 0-0.044 0.022-0.044-0.022 0-0.022 0-0.022 0v0 0c-0.022 0-0.022-0.022-0.022-0.022-0.022 0-0.067 0-0.111 0.044v0.044c0.022-0.022 0.067-0.044 0.089-0.044 0 0.022 0.022 0.044-0.022 0.089l-0.089 0.111v0.178l0.111-0.133c0-0.022 0.022-0.022 0.044-0.044v-0.044c0-0.022 0-0.022 0-0.022v-0.111zM25.444 12.8v0.244c0 0-0.022-0.022-0.022-0.022v0c-0.022-0.067-0.022-0.156 0.022-0.222v0 0zM25.444 17.333v0 0c-0.044-0.044-0.111-0.067-0.156-0.111v6.156h0.156v-6.044zM25.444 26.311l-0.156-0.156v0.467l0.156 0.156v-0.467zM25.289 28.044v0.022h0.111v-0.067h-0.089c0 0 0 0-0.022 0v0.044zM25.289 13.778v0 0c0.044 0 0.089-0.022 0.133-0.089 0.022 0 0-0.022-0.022-0.022-0.044 0.022-0.067 0.022-0.111 0.044v0.067zM25.289 3.778l0.022 0.022c0.022 0 0.044-0.022 0.022-0.022l-0.044-0.044v0.044zM25.289 3.6l0.022 0.022c0.022 0 0.044-0.022 0.022-0.044l-0.044-0.044v0.067zM25.289 2.978v0 0c-0.156 0.067-0.289 0.133-0.422 0.222v0.044c0.133-0.067 0.267-0.156 0.422-0.222v-0.044zM25.289 3.133v0.089l-0.044-0.044c-0.022-0.022 0-0.067 0.044-0.044zM25.289 3.311v0.089l-0.178-0.156c-0.022-0.022 0.022-0.089 0.067-0.044l0.111 0.111zM25.289 3.533v0.067l-0.311-0.289c-0.022-0.022 0-0.089 0.044-0.044l0.267 0.267zM25.289 3.756l-0.4-0.422c0-0.022-0.022-0.022-0.022 0v0.067l0.422 0.378v-0.022zM25.289 3.867v0.044c-0.111-0.044-0.267-0.089-0.422-0.111v-0.044c0.156 0 0.311 0.044 0.422 0.111zM25.289 4.556l-0.422 0.111v0.178l0.111-0.133 0.311-0.089v-0.067zM25.289 4.756v0.089l-0.422 0.111v-0.089l0.422-0.111zM25.289 9.6v0.2c-0.022-0.022-0.044-0.022-0.067-0.044-0.044-0.022-0.022 0.044 0.067 0.133v0.067c-0.111-0.111-0.178-0.178-0.222-0.178-0.044 0.022 0.089 0.133 0.222 0.289v0.067h-0.022c0 0.022 0.022 0.022 0.022 0.022v0c-0.111-0.2-0.267-0.311-0.422-0.378v-0.111c0.111-0.022 0.156-0.044 0.156-0.067-0.022-0.044-0.067-0.044-0.156-0.044v-0.222l0.267 0.178c0.067 0.044 0.111 0.067 0.156 0.089v0 0zM25.289 10.378v0 0c-0.022-0.022-0.022-0.022-0.067-0.044 0 0.044 0.022 0.067 0.067 0.111v-0.067zM25.289 10.511v0 0.156c-0.156 0.022-0.289 0.022-0.422 0v-0.222c0.067 0.089 0.111 0.156 0.156 0.089 0-0.067-0.178-0.089-0.133-0.2 0.178 0.133 0.222 0.267 0.311 0.222-0.022-0.067-0.133-0.156-0.111-0.222 0.089 0.044 0.156 0.156 0.2 0.178zM25.289 11.644v0 0c0 0-0.022 0-0.044 0.022-0.156 0-0.267 0-0.378-0.022v0.067c0.156 0 0.289 0.022 0.378-0.022 0 0 0.022-0.022 0.044-0.022v-0.022zM25.289 12.356v0 0c-0.044 0.044-0.111 0.111-0.222 0.178-0.044 0.044-0.111 0.111-0.156 0.133v0c-0.044 0-0.022-0.022-0.022-0.044 0.022 0 0-0.022 0-0.022 0.044-0.089 0.089-0.178 0.044-0.244 0-0.022 0-0.022-0.044-0.044h-0.044c0 0 0 0-0.022 0.022v0.044c0.022-0.022 0.044-0.022 0.067-0.022s0.022 0 0.022 0.022c0.022 0.044 0 0.133-0.044 0.222 0 0-0.022 0-0.022 0v0.156c0.022-0.022 0.022-0.044 0.044-0.067 0 0.022 0.022 0.022 0.022 0.022 0.044 0 0.089-0.067 0.2-0.156 0.044-0.044 0.111-0.111 0.178-0.156v-0.044zM25.289 12.556v0.2l-0.311 0.356h-0.111v-0.022l0.422-0.533zM25.289 13.733v0 0c-0.067 0-0.156 0-0.244-0.022 0 0 0 0-0.022 0v0 0c0 0 0 0 0 0.022l-0.156 0.178v0.044l0.111-0.156c0.111 0.022 0.222 0.022 0.311-0.022v-0.044zM25.289 17.222v0 0c-0.133-0.067-0.267-0.133-0.422-0.178v6.311h0.422v-6.133zM25.289 26.156l-0.222-0.222h-0.2v1.733c0 0 0 0.022 0 0.022v0.356h0.422v-0.067c-0.089 0-0.156-0.022-0.2-0.067-0.022-0.022-0.044-0.111-0.044-0.244v-1.289l0.244 0.244v-0.467zM24.867 14.822v0 0c0.289-0.267 0.267-0.667 0.044-0.689-0.022 0-0.022 0-0.044 0v0.022c0.156 0.022 0.156 0.311 0 0.533v0.133zM24.867 9.867v-0.022c0 0 0.022 0.022 0 0.022 0 0.022 0 0.022 0 0zM24.867 3.6v-0.044l0.022 0.022c0 0 0 0.044-0.022 0.022v0zM24.867 3.2v0 0c-0.044 0.022-0.067 0.044-0.133 0.067v0.067c0.044-0.022 0.089-0.044 0.133-0.089v-0.044zM24.867 3.356v0 0c-0.022 0-0.022 0.022-0.022 0.044l0.022 0.022v-0.067zM24.867 3.556l-0.111-0.089c0-0.022 0 0-0.022 0v0.044l0.133 0.089v-0.044zM24.867 3.756v0 0c-0.044 0-0.067-0.022-0.133-0.022v0.044c0.044 0 0.089 0.022 0.133 0.022v-0.044zM24.867 4.667l-0.133 0.044v0.067l0.133-0.044v-0.067zM24.867 4.733v0.111l-0.067 0.067 0.067-0.022v0.089l-0.133 0.022v-0.133l0.133-0.133zM24.867 9.333l-0.133-0.089v0.156c0.022 0 0.044 0 0.067 0.022 0.044 0.022 0.022 0.044-0.067 0.089v0.044c0.044 0 0.089 0 0.133 0v-0.222zM24.867 9.644v0 0c-0.022 0-0.044 0-0.089 0 0 0-0.022 0-0.044-0.022v0.133c0.044 0.044 0.089 0.067 0.133 0.111v-0.022c-0.044-0.044-0.067-0.067-0.022-0.089h0.022v-0.111zM24.867 10.444v0 0c-0.022-0.044-0.067-0.067-0.133-0.133v0.067c0.044 0.044 0.111 0.089 0.089 0.133-0.022 0-0.044 0-0.089-0.022v0.156c0.044 0.022 0.089 0.022 0.133 0.022v-0.222zM24.867 11.622v0 0c-0.044 0-0.067 0-0.133-0.022v0.067c0.044 0 0.089 0 0.133 0.022v-0.067zM24.867 12.333v0 0c-0.044 0-0.067 0-0.133 0.044v0.067c0.044-0.022 0.089-0.044 0.133-0.067v-0.044zM24.867 12.6v0 0c-0.022 0-0.044 0.022-0.089 0.067-0.022 0.044 0 0.067 0.022 0.089-0.022 0.022-0.044 0.044-0.067 0.067v0.044c0.044-0.044 0.067-0.067 0.089-0.111 0 0 0 0 0.022 0 0 0 0 0 0.022 0v-0.156zM24.867 13.067l-0.022 0.022h0.022v-0.022zM24.867 13.933l-0.133 0.156v0.044l0.133-0.156v-0.044zM24.867 14.133v0 0c-0.044-0.022-0.067 0-0.133 0v0.044c0.044-0.022 0.067-0.022 0.111-0.022v0c0 0 0 0 0.022 0v-0.022zM24.867 14.689v0 0c-0.022 0.044-0.067 0.089-0.133 0.156v0.067c0.044-0.022 0.089-0.067 0.133-0.089v-0.133zM24.867 17.044v6.311h-0.133v-0.467c0.067-0.156 0.067-0.311 0.067-0.311v-3.578c0 0 0.022-0.222-0.067-0.489v-1.511c0.067 0.022 0.089 0.044 0.133 0.044v0 0zM24.867 25.933v-0.022h-0.133v0.178c0.044 0.022 0.089 0.067 0.133 0.111v-0.267zM24.867 27.689v0 0c0 0.111-0.022 0.178-0.044 0.2s-0.044 0.044-0.089 0.067v0.089h0.133v-0.356zM24.756 11.8v0 0c0.022-0.022 0.044-0.044 0.067-0.067-0.022 0.022-0.044 0.022-0.067 0.044v0.022zM24.756 3.667v0c0 0 0.022-0.022 0-0.044v0.044zM24.756 3.289v0 0c-0.111 0.089-0.2 0.2-0.267 0.267v0.089c0.067-0.111 0.156-0.2 0.267-0.311v-0.044zM24.756 3.489v0.044c-0.022-0.022 0-0.022 0-0.044zM24.756 3.622v0.022c0 0 0 0-0.022 0l-0.089-0.067c-0.022-0.022-0.022-0.044 0.022-0.022l0.089 0.067zM24.756 3.733v0 0c-0.089 0-0.178 0-0.267 0.022v0.044c0.089-0.022 0.178-0.022 0.267-0.022v-0.044zM24.756 4.689l-0.267 0.067 0.022 0.067 0.244-0.067v-0.067zM24.756 4.867l-0.022 0.044-0.2 0.044 0.022 0.089 0.2-0.044v-0.133zM24.756 9.244l-0.156-0.111c-0.044-0.022-0.067-0.044-0.111-0.067v0.2c0.022 0 0.067 0 0.089 0.044 0.044 0.022-0.022 0.044-0.089 0.067v0.044c0.089-0.022 0.2-0.044 0.267-0.022v-0.156zM24.756 9.511v0 0c-0.044 0-0.089 0.022-0.133 0.044 0.044 0 0.089 0 0.133 0v-0.044zM24.756 9.622v0 0.133c-0.044-0.044-0.089-0.067-0.133-0.089-0.089 0 0.067 0.089 0.044 0.156-0.067-0.067-0.133-0.111-0.178-0.156v-0.133c0.089 0.022 0.178 0.044 0.267 0.089zM24.756 10.333v0 0c0 0-0.022 0-0.022-0.022 0 0.044 0 0.067 0.022 0.089v-0.067zM24.756 10.489v0.178c-0.089-0.022-0.178-0.044-0.267-0.067v-0.2c0.044 0.044 0.089 0.089 0.156 0.111 0.044-0.022-0.111-0.111-0.111-0.2 0.111 0.044 0.156 0.133 0.222 0.178zM24.756 11.6v0 0c-0.089 0-0.156-0.022-0.267-0.044v0.067c0.089 0.022 0.178 0.022 0.267 0.044v-0.067zM24.756 11.778v0 0c-0.089 0.044-0.178 0.133-0.267 0.222v0.178c0.089-0.156 0.178-0.267 0.267-0.378v-0.022zM24.756 12.356v0 0c-0.089 0.022-0.178 0.089-0.267 0.178v0.178c0.067-0.089 0.178-0.222 0.267-0.289v-0.067zM24.756 12.8v0 0c-0.089 0.133-0.2 0.222-0.267 0.222v0.044c0.067-0.022 0.178-0.111 0.267-0.222v-0.044zM24.756 14.067l-0.111 0.156 0.022 0.022c0.022-0.022 0.044-0.044 0.089-0.067v-0.044c0 0.022 0 0.022-0.022 0.022l0.022-0.044v-0.044zM24.756 14.822v0 0c-0.022 0.044-0.067 0.067-0.089 0.089v0c-0.067 0.022-0.133 0.044-0.178 0.044v0.044c0.044 0 0.089-0.022 0.156-0.044 0.044-0.022 0.067-0.044 0.111-0.067v-0.067zM24.756 17v0 0c-0.089 0-0.178-0.022-0.267-0.044v1.067c0.133 0.133 0.222 0.311 0.267 0.489v-1.511zM24.756 22.889v0 0c-0.022 0.089-0.044 0.133-0.089 0.178-0.067 0.067-0.111 0.133-0.178 0.156v0.133h0.267v-0.467zM24.756 25.933v-0.022h-0.267v0.067c0.022 0 0.022 0.022 0.044 0.022 0.067 0.022 0.133 0.044 0.178 0.067 0 0 0.022 0.022 0.044 0.044v-0.178zM24.756 27.956v0 0c-0.044 0.022-0.089 0.044-0.156 0.044h-0.089v0.044h0.244v-0.089zM24.467 13.778v0 0c0.089-0.022 0.133-0.044 0.156-0.044 0.022 0.022 0.022 0 0.022 0 0.022 0 0-0.022 0-0.022-0.044-0.022-0.111-0.022-0.178 0.022v0.044zM24.467 12.356h0.022v-0.022c0.044-0.022 0.067-0.044 0.111-0.089v0c-0.022-0.044-0.022-0.089 0-0.133 0.022-0.111 0.178-0.044 0.111 0.044-0.022 0.044-0.044 0.067-0.089 0.089-0.044 0.044-0.089 0.067-0.156 0.111zM24.467 9.844v0 0 0c0-0.022 0-0.022 0-0.022v0.022zM24.467 5.511h-0.022v-0.111l0.022-0.022 0.044-0.133c-0.022-0.133-0.044-0.222-0.022-0.267l-0.022-0.156c0-0.022 0-0.022-0.022-0.044v-0.089c0 0 0.022 0 0.022 0.022 0.022 0.022 0.044 0.067 0.067 0.111l0.022 0.178c-0.022 0.044 0 0.133 0.022 0.267v0.022l-0.044 0.133v0.022l-0.067 0.067zM24.467 3.578v0 0c-0.044 0.067-0.067 0.133-0.111 0.2l-0.022 0.044h0.044c0.022-0.022 0.044-0.022 0.089-0.022v-0.044c-0.022 0-0.044 0-0.067 0 0.022-0.022 0.044-0.044 0.067-0.089v-0.089zM24.467 4.756v0 0c-0.022-0.044-0.044-0.089-0.089-0.111v-0.022c-0.022-0.044-0.022-0.089-0.044-0.133 0 0 0-0.044 0-0.044h-0.022c0-0.022-0.044-0.044-0.089-0.044s-0.089 0.022-0.111 0.067c-0.022-0.022-0.089-0.044-0.133-0.044s-0.067 0-0.089 0.022v-0.044c0.022-0.022 0.067-0.044 0.089-0.044 0.044 0 0.111 0.022 0.133 0.089l0.022 0.133 0.022 0.156c0 0 0 0 0 0.022s0 0.022 0 0.022c0 0.022 0 0.022 0 0.044h-0.022l-0.089 0.067c-0.022 0.022-0.022 0.022 0 0.044 0 0 0 0.022 0.022 0.022h0.111c0 0.022 0 0.044 0 0.044l-0.022 0.089-0.022 0.044c0 0.044-0.022 0.067-0.067 0.067s-0.067-0.022-0.089-0.067l-0.022-0.133c0-0.2-0.022-0.311-0.044-0.4v0.422c0 0.044 0.022 0.111 0.022 0.111v0.022c0 0 0 0 0.022 0.022 0 0.022 0 0.022-0.022 0.044v0.111c0.022 0 0.067 0 0.089-0.044 0.022-0.022 0.044-0.022 0.067 0l0.089 0.111-0.022-0.067 0.067-0.022-0.067-0.089c0 0 0.022-0.022 0.022-0.044l0.022-0.044 0.022-0.089v-0.111c0 0 0 0 0-0.022l0.022 0.022c0 0.022 0.022 0.022 0.022 0 0.022-0.022 0.022-0.022 0.022-0.044l-0.044-0.044c0 0 0-0.022 0-0.022l-0.022-0.156-0.022-0.133c0 0 0-0.022 0-0.044s0.022-0.022 0.044-0.044c0.022-0.022 0.044-0.022 0.067 0v0.022c0 0.022 0 0.067 0.022 0.089v0c-0.022-0.022-0.022-0.022-0.044 0s-0.022 0.022 0 0.044l0.067 0.067c0 0.022 0 0.022 0.022 0.022 0 0.044 0.022 0.089 0.067 0.111 0 0 0 0.022 0.022 0.044v-0.089zM24.467 5.444l-0.356 0.4-0.178 0.089c0 0 0 0-0.022 0v0.044c0.022 0 0.022 0 0.044 0v-0.022l0.178-0.089h0.022l0.311-0.356v-0.067zM24.467 9.067v0 0c-0.156-0.089-0.333-0.2-0.511-0.333v0.222c0.067-0.044 0.111-0.044 0.156-0.022 0.044 0.067-0.089 0.089-0.156 0.156v0.022c0.133-0.022 0.222-0.111 0.289-0.044 0.089 0.067-0.089 0.089-0.178 0.156 0.111 0 0.267-0.089 0.311-0.022 0.089 0.044-0.089 0.044-0.178 0.111 0.111 0 0.2-0.044 0.267-0.044v-0.2zM24.467 9.378v0 0c-0.044 0.022-0.111 0.044-0.156 0.067 0.044 0 0.089 0 0.156-0.022v-0.044zM24.467 9.556v0.133c-0.022-0.022-0.044-0.022-0.067-0.022-0.111-0.022 0.022 0.089 0.067 0.156v0.022c-0.133-0.089-0.156-0.178-0.244-0.2-0.111 0.022 0.022 0.067 0.044 0.178-0.133-0.067-0.178-0.178-0.267-0.178-0.111 0 0.067 0.111 0.067 0.156-0.067 0-0.111-0.067-0.156-0.111v-0.178c0.133 0 0.244 0 0.356 0.022 0.089 0 0.156 0 0.2 0.022v0 0zM24.467 10.4v0 0c-0.044-0.067-0.111-0.111-0.133-0.111 0 0.089 0.111 0.133 0.089 0.178-0.156-0.067-0.244-0.2-0.289-0.2-0.022 0.044 0.067 0.067 0.044 0.111-0.111-0.022-0.178-0.111-0.244-0.2v0.4c0.111 0 0.2-0.022 0.289-0.067 0.067 0.022 0.156 0.067 0.244 0.089v-0.2zM24.467 11.556v0 0c-0.089 0-0.222 0-0.4-0.022-0.022 0-0.067 0-0.111 0v0c0 0.022-0.022 0.022-0.044 0.022v0.022c0.022 0 0.044 0 0.067 0s0.022 0 0.044 0c0.156 0 0.289 0.022 0.444 0.044v-0.067zM24.467 12v0.178c-0.044 0.067-0.089 0.133-0.133 0.2 0.044-0.022 0.089-0.044 0.133-0.067v0.044c-0.044 0.022-0.111 0.044-0.156 0.067-0.111 0.156-0.222 0.311-0.378 0.422v-0.156c0.044-0.067 0.089-0.133 0.133-0.178-0.044 0.022-0.089 0.044-0.133 0.067v0-0.044c0.044-0.022 0.111-0.044 0.156-0.067 0.133-0.156 0.244-0.333 0.378-0.467v0 0zM24.467 12.556v0 0.156c-0.089 0.156-0.178 0.289-0.133 0.333 0.022 0 0.044 0.022 0.067 0.022s0.044 0 0.089-0.022v0.044c-0.044 0.022-0.067 0.022-0.089 0.022-0.067 0-0.089-0.022-0.133-0.089v0c-0.022-0.089 0-0.222 0.089-0.356 0.022-0.044 0.067-0.089 0.111-0.111zM24.467 13.756v0.022c-0.067 0.022-0.156 0.089-0.267 0.178-0.044 0.044-0.111 0.133-0.2 0.222-0.022 0.022-0.022 0.022 0.022 0.044 0.067-0.044 0.133-0.044 0.178-0.022 0 0.022 0.022 0.022 0.022 0.044v0c0 0 0 0.022 0.022 0.022 0 0 0 0 0 0.022 0.044 0.178-0.067 0.489-0.289 0.622v-0.111c0.133-0.156 0.244-0.378 0.267-0.533-0.022-0.022-0.022-0.044-0.044-0.044-0.044-0.022-0.111 0-0.222 0.067 0 0.022-0.022 0.022-0.022 0.022v-0.178c0.111-0.111 0.222-0.2 0.356-0.267 0.067-0.067 0.133-0.089 0.178-0.111v0 0zM24.467 14.956v0.022c-0.044 0-0.067 0-0.111-0.022-0.044 0-0.067-0.044-0.089-0.089l0.022-0.022c0.022-0.044 0 0.022 0.044 0.067 0.022 0 0.022 0.022 0.044 0.022 0.022 0.022 0.044 0.022 0.089 0.022zM24.467 16.978v0 0c-0.133-0.022-0.267-0.022-0.4-0.022-0.044 0-0.089 0.022-0.133 0.022v0.778c0.156 0.044 0.311 0.111 0.467 0.222 0.022 0.022 0.044 0.044 0.067 0.067v-1.067zM24.467 23.222v0 0c-0.111 0.067-0.178 0.067-0.2 0.067v0.067h0.2v-0.133zM24.467 25.933h-0.133v0.067c0.067 0 0.089 0 0.133 0v-0.067zM23.933 12.2v-0.044c0.022-0.044 0.044-0.089 0.022-0.133 0-0.022 0-0.044-0.022-0.067v-0.044c0.044 0.022 0.044 0.067 0.067 0.111 0 0.044-0.022 0.111-0.067 0.178zM23.933 4.444v0 0c-0.022 0.022-0.022 0.022-0.067 0.067v0.156c0.022 0.067 0.022 0.156 0.044 0.289l-0.044 0.022v0.067l0.044-0.022c0 0.022 0 0.022 0 0.022s0 0 0 0.022v-0.422c0-0.022 0-0.044-0.022-0.067 0 0 0-0.022 0.022-0.022 0-0.022 0-0.022 0.022-0.044v-0.067zM23.933 5.222v0 0c0 0-0.022 0.022-0.044 0.022v0.089c0 0 0 0 0.022 0 0 0 0 0 0.022 0v-0.111zM23.933 5.933v0 0c0 0-0.022 0-0.067 0v0.067l0.044-0.022h0.022v-0.044zM23.933 8.733v0 0c0 0-0.022 0-0.044 0v0.156h0.022c0.022 0.022 0 0.022-0.022 0.044v0.044c0.022 0 0.022-0.022 0.044-0.022v-0.222zM23.933 9.089v0 0c0 0 0 0.022-0.022 0.022 0 0 0 0 0.022-0.022v0zM23.933 9.511v0 0c0 0-0.022 0-0.044 0v0.133c0.022 0.022 0.022 0.022 0.044 0.044v-0.178zM23.933 10.156v0 0c0-0.022-0.022-0.022-0.044-0.067v0.133c0.022 0.022 0.022 0.022 0 0.044v0.289c0 0 0.022 0 0.044 0v-0.4zM23.933 11.578v0 0c0 0-0.022 0-0.044 0.022v0.022c0 0 0.022 0 0.044-0.022v-0.022zM23.933 11.889v0 0c0 0-0.022-0.022-0.044-0.044v0.044c0.022 0 0.022 0.022 0.044 0.044v-0.044zM23.933 12.133v0 0c0 0.022-0.022 0.044-0.044 0.067v0.044c0.022 0 0.022-0.022 0.044-0.044v-0.067zM23.933 12.533v0 0 0c-0.022 0.022-0.022 0.022-0.044 0.022v0.044c0 0 0.022 0 0.044-0.022v-0.044zM23.933 12.689v0 0c0 0.022-0.022 0.044-0.044 0.067v0.133c0-0.022 0.022-0.022 0.044-0.044v-0.156zM23.933 14.111v0 0c0 0.022-0.022 0.044-0.044 0.067v0.156c0-0.022 0.022-0.022 0.044-0.044v-0.178zM23.933 14.8v0 0c0 0.022-0.022 0.022-0.044 0.022v0.089c0.022 0 0.022 0 0.044-0.022v-0.089zM23.933 16.978v0 0c0 0-0.022 0.022-0.044 0.022v0.756c0 0 0.022 0 0.044 0v-0.778zM23.889 13.333v0c0.022-0.022 0.022-0.022 0.022-0.022 0.022 0 0.022-0.022 0.022-0.022 0-0.022 0-0.022-0.022-0.022 0 0.022 0 0.022-0.022 0.022v0.044zM23.889 4.489v0 0 0c-0.044-0.022-0.089-0.044-0.156-0.044v0.022c0.044 0 0.089 0.022 0.133 0.067 0 0 0 0 0 0.022v0.022c0 0 0.022 0.022 0.022 0.067v-0.156zM23.889 4.978l-0.067 0.044c-0.022 0-0.044 0-0.022 0.022 0 0 0 0.022 0.022 0.022l0.067-0.022v-0.067zM23.889 5.267h-0.022v0.089c-0.044 0.022-0.089 0.044-0.156 0.044v-0.089l0.022-0.022h-0.022v-0.356c0.022 0.089 0.022 0.178 0.044 0.311 0.022 0.044 0.044 0.044 0.067 0.044s0.044 0 0.067-0.022zM23.889 5.933v0 0c-0.044 0-0.111 0-0.156-0.022v0.133c0.044-0.022 0.089-0.022 0.156-0.044v-0.067zM23.889 8.711v0 0c0 0-0.022 0-0.044 0l-0.111-0.067v0.111c0.022 0 0.022 0 0.044 0.022 0.044 0.044 0.022 0.044-0.044 0.089v0.022c0.067-0.022 0.111-0.022 0.156 0v-0.178zM23.889 8.933v0 0c-0.022 0.022-0.067 0.022-0.111 0.067 0.022 0 0.067 0 0.111-0.022v-0.044zM23.889 9.511v0 0c-0.044 0-0.089 0-0.156 0v0.156c0.044 0.022 0.089 0.067 0.156 0.111 0.022-0.067-0.178-0.2-0.067-0.178 0.022 0.022 0.044 0.022 0.067 0.044v-0.133zM23.889 10.111v0 0c-0.022-0.044-0.044-0.089-0.089-0.089l-0.067-0.022v-0.067c0.022 0.022 0.044 0.067 0.089 0.089l-0.089 0.022c0-0.022 0-0.022 0-0.022v0c0.089 0.111 0.133 0.178 0.156 0.222v-0.133zM23.889 10.289v0.289c-0.044 0-0.089 0.022-0.156 0.022v-0.267c0.022 0.022 0.044 0.022 0.044 0.022s0-0.044-0.044-0.089v-0.111c0.089 0.089 0.133 0.156 0.156 0.133v0zM23.889 11.6v0 0c-0.044 0-0.089 0-0.156 0.022v0.044c0.044-0.022 0.089-0.022 0.156-0.044v-0.022zM23.889 11.867v0 0c0 0-0.022-0.022-0.022 0-0.044-0.022-0.089-0.022-0.133-0.022v0.044c0.044-0.022 0.067 0 0.111 0 0.022 0 0.022 0 0.044 0.022v-0.044zM23.889 12.2v0 0c-0.022 0.044-0.089 0.089-0.156 0.156v0.044c0.067-0.044 0.111-0.089 0.156-0.156v-0.044zM23.889 12.556v0 0c-0.044 0.044-0.111 0.089-0.156 0.133v0.044c0.044-0.044 0.089-0.089 0.156-0.133v-0.044zM23.889 12.756v0 0c-0.022 0.044-0.067 0.089-0.133 0.133 0 0.022-0.022 0.022-0.044 0.044v0.044c0 0 0 0 0.022 0 0.044-0.022 0.111-0.044 0.156-0.089v-0.133zM23.889 13.289v0 0c-0.044 0.044-0.111 0.044-0.156 0.044v0.044c0.044 0 0.089 0 0.156-0.044v-0.044zM23.889 14.156v0 0c-0.044 0.067-0.111 0.111-0.156 0.178v0.178c0.044-0.067 0.111-0.133 0.156-0.2v-0.156zM23.889 14.844v0 0c-0.044 0.044-0.089 0.089-0.156 0.133 0 0 0 0-0.022 0v0.044c0.022 0 0.022-0.022 0.044-0.022 0.044-0.022 0.089-0.044 0.133-0.067v-0.089zM23.889 17v0 0c-0.044 0-0.089 0-0.156 0.022v0.711c0.044 0 0.111 0 0.156 0.022v-0.756zM23.733 26.956v0 0c0.022 0 0.067-0.022 0.089 0h0.044v-0.067h-0.133v0.067zM23.733 13.889v0c0.022 0 0.044-0.022 0.067-0.044l0.022-0.022c0.022-0.022 0.044-0.044 0.067-0.067 0.022 0 0.022 0 0-0.022 0 0-0.022-0.022-0.022 0-0.022 0.022-0.044 0.044-0.089 0.067 0 0-0.022 0.022-0.044 0.022v0.067zM23.733 4.444v0 0c-0.022 0-0.044 0-0.089-0.044-0.044 0.022-0.067 0.044-0.089 0.089-0.044-0.022-0.089-0.044-0.133-0.022v0.044c0.044-0.022 0.089 0 0.133 0.022 0.022 0.022 0.022 0.067 0.044 0.089 0 0.022 0 0.044 0.022 0.067v0c0.022 0.067 0.044 0.133 0.067 0.222l-0.044 0.067c0 0 0 0 0 0.022l-0.044 0.022c-0.022 0.022-0.022 0.022-0.022 0.044 0.022 0.022 0.022 0.022 0.044 0.022l0.089-0.044c0 0.067 0 0.133 0.022 0.2v-0.311c-0.022-0.089-0.044-0.156-0.067-0.222v0 0c0 0 0-0.022-0.022-0.044s-0.022-0.044-0.044-0.089c0-0.044 0.044-0.067 0.067-0.067 0.022-0.022 0.044-0.022 0.067-0.022v-0.044zM23.733 5.289v0.089c0 0 0 0-0.022 0-0.044 0.022-0.089 0.111-0.133 0.244l-0.044-0.156c-0.022 0-0.067 0.022-0.111 0.089 0.022-0.022 0.044-0.089 0.044-0.178 0 0-0.022 0-0.044 0 0 0 0 0 0 0.022v-0.067c0.022 0.022 0.044 0.044 0.067 0.022s0.022-0.022 0.044-0.044c-0.022-0.044-0.044-0.089-0.067-0.156l-0.044 0.044v-0.156c0 0 0 0 0-0.022v-0.111c0.044 0.111 0.089 0.222 0.133 0.356 0.022 0 0.022 0 0.022 0.022 0.022 0.022 0.044 0.044 0.067 0.044 0.044 0 0.067-0.022 0.089-0.044zM23.733 5.911v0 0c-0.067-0.044-0.133-0.089-0.156-0.2l-0.044 0.022c0 0.022 0 0.022 0.022 0.044-0.067-0.022-0.089 0-0.067 0.044l0.133 0.133c0.022 0.067 0.022 0.089-0.022 0.111h-0.022c-0.044-0.044-0.111-0.089-0.156-0.133v0.067c0.022 0.022 0.044 0.044 0.067 0.067l-0.044-0.022c0.111 0.111 0.089 0.156-0.022 0.067v0c0.044 0.067 0.067 0.089 0.089 0.111 0 0.022 0 0.022-0.022 0.022 0 0 0 0-0.022-0.022 0-0.022-0.022-0.022-0.044-0.044v0.244c0.022-0.022 0.044-0.044 0.089-0.067 0.089 0.022 0.156-0.067 0.111-0.111-0.022-0.022-0.022-0.044 0-0.089s0.044-0.067 0.111-0.111v-0.133zM23.733 8.644l-0.311-0.178v0.111c0 0 0.022 0 0.044 0.022 0.044 0.022 0 0.044-0.044 0.067v0.044c0.067-0.022 0.111-0.067 0.178-0.022 0.089 0.067-0.111 0.089-0.133 0.156 0.089-0.022 0.178-0.111 0.267-0.089v-0.111zM23.733 8.844v0 0c-0.022 0.022-0.067 0.044-0.111 0.089 0.044-0.022 0.089-0.022 0.111-0.044v-0.044zM23.733 9.511v0 0c-0.044 0.022-0.089 0.022-0.156 0.022 0-0.044-0.022-0.044-0.044-0.067-0.044 0.022-0.089 0.044-0.111 0.067v0.222c0.067 0.044 0.156 0.133 0.289 0.267v0c0 0 0 0-0.022-0.022h0.022v-0.067c-0.178-0.156-0.267-0.244-0.222-0.267 0.089-0.022 0.089 0.067 0.222 0.133-0.089-0.111-0.111-0.156-0.067-0.178 0.044 0 0.067 0.022 0.089 0.044v-0.156zM23.733 10.156h-0.022v0.089c-0.044-0.089-0.133-0.2-0.2-0.267l0.044 0.022c0.067 0.067 0.133 0.111 0.178 0.156zM23.733 10.333v0 0c-0.044-0.044-0.156-0.156-0.289-0.289v0.067c0.111 0.133 0.178 0.222 0.156 0.244 0.022 0.044-0.044 0-0.156-0.111v0.356c0.089 0.022 0.178 0 0.289 0v-0.267zM23.733 11.622v0 0c-0.111 0.022-0.222 0.067-0.289 0.111v0.044c0.067-0.044 0.178-0.089 0.289-0.111v-0.044zM23.733 11.844v0 0c-0.067 0-0.2 0.044-0.289 0.156v0.044c0.089-0.111 0.2-0.133 0.289-0.156v-0.044zM23.733 12.356v0 0c-0.022 0.022-0.067 0.044-0.111 0.089-0.067 0.022-0.133 0.022-0.178 0.044v0.022c0.044 0 0.111-0.022 0.178-0.044v0 0c0.044-0.022 0.067-0.044 0.111-0.067v-0.044zM23.733 12.689v0 0c-0.089 0.111-0.156 0.222-0.156 0.356-0.044 0.022-0.089 0.022-0.133 0.044v0.044c0.044 0 0.089-0.022 0.133-0.044 0 0-0.022 0.022-0.022 0.044 0 0.111 0.044 0.2 0.111 0.244 0.022 0 0.044 0.022 0.067 0.022v-0.022c-0.022 0-0.044 0-0.067-0.022-0.044-0.044-0.089-0.111-0.089-0.222 0-0.022 0-0.044 0-0.067 0.067-0.022 0.111-0.067 0.156-0.089v-0.044c-0.044 0.022-0.089 0.067-0.133 0.089 0-0.089 0.044-0.2 0.133-0.289v-0.044zM23.733 13.822v0 0c-0.022 0.044-0.067 0.044-0.089 0.067v0c-0.067 0-0.111-0.089-0.2-0.067v0.111c0.044 0.022 0.089 0.067 0.222-0.022 0 0 0.022-0.022 0.044-0.022-0.089 0.067-0.156 0.133-0.2 0.178-0.022 0.022-0.044 0.044-0.067 0.067v0.067c0.022-0.022 0.044-0.044 0.067-0.089v0c0.022-0.044 0.111-0.111 0.222-0.222v-0.067zM23.733 14.333v0 0c-0.156 0.222-0.244 0.444-0.156 0.6v0c0.022 0.022 0.044 0.022 0.067 0.044 0.022 0.044 0.067 0.044 0.111 0.022v-0.044c-0.044 0.022-0.089 0.022-0.111 0s-0.022-0.022-0.044-0.044c-0.044-0.089 0.022-0.244 0.133-0.4v-0.178zM23.733 17.044v0 0c-0.111 0.022-0.2 0.044-0.289 0.089v0.644c0.089 0 0.178-0.022 0.289-0.022v-0.711zM23.733 26.889h-0.289v1.089c0.044-0.022 0.089-0.044 0.133-0.067v-0.644c0-0.111 0-0.2 0.044-0.244 0.022-0.022 0.044-0.044 0.111-0.067v-0.067zM23.444 26.4v0 0c0.022 0.044 0.022 0.089 0.067 0.133h0.067l-0.067-0.667h-0.067v0.533zM23.444 9.911v-0.067c0.044 0.044 0.089 0.089 0.156 0.156l-0.044 0.022c-0.044-0.044-0.067-0.067-0.111-0.111zM23.444 9.356v0c0 0 0 0 0 0s0 0 0 0v0zM23.444 4.533v0 0c-0.044 0-0.067 0-0.089 0-0.022 0.022-0.044 0.067-0.067 0.111-0.044 0-0.111 0-0.156 0.022 0 0 0 0.022-0.022 0.022v0.067c0.022 0 0.022-0.022 0.044-0.022 0.044-0.022 0.089-0.022 0.133 0 0.067 0.089 0.111 0.178 0.156 0.289v-0.111c-0.022-0.067-0.067-0.133-0.111-0.2 0-0.044 0-0.089 0.044-0.111 0.022 0 0.044-0.022 0.067-0.022v-0.044zM23.444 5.067l-0.022 0.044-0.067 0.044c-0.022 0-0.022 0.022 0 0.044 0.022 0 0.022 0.022 0.044 0l0.044-0.022v-0.111zM23.444 5.311h0.022v0.111c-0.022 0-0.044 0.022-0.067 0.022l-0.111-0.044-0.022 0.044c-0.022 0.044-0.044 0.044-0.067 0.022-0.022 0-0.044-0.044-0.022-0.067l0.067-0.111c0.022 0 0.022-0.022 0.022-0.022s0-0.022-0.022-0.022-0.044-0.067-0.067-0.089h-0.067v-0.089c0-0.044 0-0.067-0.022-0.111v-0.067c0.022 0 0.022 0 0.022 0 0.022 0 0.022 0 0.044 0.022 0.022 0.067 0.022 0.111 0.022 0.156 0.044 0.022 0.089 0.067 0.111 0.111 0.044 0.067 0.089 0.111 0.156 0.133v0 0zM23.444 5.933v0 0c-0.111-0.089-0.222-0.156-0.311-0.222v0.067c0.089 0.044 0.2 0.133 0.311 0.222v-0.067zM23.444 6.089v0 0c-0.022 0-0.022 0-0.022-0.022 0 0.022 0 0.022 0.022 0.022v0zM23.444 6.156h0.044v0.267c-0.044 0.022-0.089 0.067-0.111 0.111l-0.222 0.2v-0.289c0.022 0 0.044 0 0.067 0.022 0-0.044-0.022-0.089-0.067-0.133v-0.067c0.044 0.044 0.089 0.089 0.156 0.089 0-0.089-0.156-0.2-0.156-0.244 0.067 0 0.133 0.156 0.2 0.133 0-0.022-0.022-0.089-0.067-0.133-0.067 0-0.111-0.022-0.089-0.067-0.022 0-0.044-0.022-0.067-0.044v-0.067c0.089 0.044 0.178 0.133 0.311 0.222zM23.444 8.467l-0.2-0.133-0.111-0.067v0.133c0.022 0 0.022 0 0.044 0.022 0.044 0 0.022 0.022-0.044 0.067v0.044c0.089-0.022 0.178-0.067 0.222-0.022 0.089 0.044-0.089 0.067-0.156 0.133 0.089 0 0.178-0.067 0.244-0.067v-0.111zM23.444 8.667v0 0c-0.044 0.022-0.067 0.044-0.089 0.067 0.022 0 0.044 0 0.089-0.022v-0.044zM23.444 9.356v0 0c-0.156 0.044-0.244 0.133-0.311 0.178v0.178c0 0 0-0.022 0.022-0.022s0.133 0.067 0.289 0.222v-0.044c-0.089-0.111-0.133-0.156-0.089-0.156 0.022 0 0.044 0.022 0.089 0.044v-0.222c-0.111 0.089-0.156 0.089-0.2 0.067-0.067-0.022 0-0.089 0.2-0.244v0zM23.444 10.044v0 0c-0.022-0.022-0.067-0.044-0.089-0.089l-0.044 0.022c0.044 0.044 0.089 0.089 0.133 0.133v-0.067zM23.444 10.244h-0.022v0.378c-0.111 0-0.2 0-0.311-0.022v-0.267c0.067 0.044 0.089 0.044 0.089 0.022s-0.022-0.067-0.089-0.133v-0.067c0.089 0.089 0.2 0.178 0.289 0.222 0.022-0.044-0.178-0.289-0.289-0.378v0c0.022 0 0.022 0.022 0.044 0.044l0.044-0.022c-0.022-0.022-0.044-0.044-0.089-0.067v0.044l0.067-0.022c0.111 0.111 0.2 0.2 0.267 0.267zM23.444 11.711v0 0c-0.133 0.067-0.244 0.156-0.333 0.244v0.067c0.022 0 0.022 0 0.022-0.022 0.067-0.089 0.178-0.178 0.311-0.244v-0.044zM23.444 11.978h0.022v0.022c-0.044 0.044-0.089 0.089-0.133 0.133 0 0.022-0.022 0.022-0.022 0.022-0.022 0-0.022-0.022-0.022-0.022 0.044-0.067 0.089-0.111 0.156-0.156zM23.444 12.467v0 0c-0.133 0.044-0.244 0.022-0.311-0.067v0.044c0.067 0.067 0.178 0.067 0.311 0.044v-0.022zM23.444 13.067v0 0c-0.111 0.044-0.222 0.044-0.311 0.044v0.044c0.089 0 0.2-0.022 0.311-0.044v-0.044zM23.444 13.8v0 0c-0.044 0-0.089 0-0.133 0.067-0.022 0-0.044 0-0.067 0.022 0.022-0.022 0.022-0.067 0.044-0.089 0.022 0 0.022 0 0-0.022 0 0 0 0-0.022 0.022-0.067 0.089-0.111 0.156-0.156 0.2v0.044c0.044-0.044 0.067-0.089 0.111-0.133 0.022 0 0.044-0.022 0.067-0.022v0c0.067-0.022 0.111 0 0.156 0.022v-0.111zM23.444 14.133v0 0c-0.133 0.111-0.222 0.222-0.311 0.311v0.156c0.067-0.111 0.178-0.244 0.311-0.4v-0.067zM23.444 17.133v0 0c-0.133 0.044-0.222 0.111-0.333 0.178v0.578c0.067-0.022 0.111-0.044 0.178-0.067 0.044-0.022 0.089-0.022 0.156-0.044v-0.644zM23.444 25.867v0 0 0c-0.022 0.067-0.022 0.089-0.022 0.133-0.022 0-0.044 0.022-0.067 0.022-0.044 0-0.089-0.022-0.156-0.044-0.022 0-0.044-0.022-0.067-0.022v0.133c0.044 0.022 0.067 0.044 0.111 0.067 0.067 0.067 0.133 0.133 0.2 0.244v-0.533zM23.444 26.889h-0.311v0.089c0.022 0 0.022 0.022 0.044 0.044 0.022 0.044 0.044 0.111 0.044 0.222v0.6c-0.022 0.022-0.044 0.022-0.089 0.044v0.156c0 0 0 0 0.022 0 0.089-0.022 0.178-0.044 0.289-0.089v-1.067zM23.111 9.822h0.022v-0.089c0 0.044 0.089 0.133 0.267 0.289h-0.067c-0.089-0.089-0.156-0.156-0.222-0.2zM23.111 9.4v-0.044c0.067-0.022 0.111-0.044 0.178-0.067-0.067 0.044-0.133 0.067-0.178 0.111zM23.111 9.222v0 0c0.022 0 0.044-0.022 0.044-0.022s-0.022 0-0.044 0.022v0zM23.111 5.711v0-0.156c0.022 0.044 0.089 0.089 0.156 0.133l-0.022 0.044c-0.022-0.022-0.067-0.044-0.089-0.067s-0.044 0-0.022 0.044h-0.022zM23.111 5.4l0.133-0.022c0.022 0 0.044-0.022 0.044-0.067-0.022-0.022-0.044-0.044-0.067-0.044l-0.111 0.022v0.111zM23.111 4.689v0 0c-0.044 0.022-0.067 0.111-0.067 0.2v0c-0.022 0.044-0.044 0.133-0.089 0.267l0.044 0.022c0 0 0-0.022 0.022-0.022h0.089v-0.044h-0.089c0.044-0.089 0.044-0.156 0.067-0.222v0 0c0-0.044 0-0.089 0.022-0.133v-0.067zM23.111 4.911v0.067c0-0.022 0-0.022 0-0.044 0 0 0 0 0-0.022zM23.111 5.311l-0.244 0.067v0.111l0.244-0.067v-0.111zM23.111 5.578c-0.044-0.044-0.044-0.111-0.044-0.178l-0.044-0.022c-0.022 0.067-0.022 0.111 0.022 0.156l-0.022 0.067c-0.067-0.022-0.133 0.022-0.178 0.044v0.267c0.022 0.022 0.044 0.022 0.089 0.022-0.044-0.067-0.022-0.089 0.044-0.044 0-0.022 0-0.022-0.022-0.022 0.044 0.044 0.089 0.067 0.133 0.111v-0.067c-0.067-0.067-0.111-0.089-0.156-0.133 0 0 0-0.022 0-0.022 0.022-0.022 0.022-0.044 0.044-0.044h0.044c0.022 0.022 0.067 0.022 0.089 0.044v-0.178zM23.111 6.244v0 0c-0.022-0.022-0.067-0.044-0.089-0.044 0.022 0.022 0.044 0.067 0.089 0.111v-0.067zM23.111 6.422v0.289c-0.089 0.089-0.156 0.178-0.244 0.267v-0.333c0.022 0.022 0.044 0.067 0.067 0.044 0.022-0.067-0.022-0.111-0.067-0.178v-0.089c0.067 0.044 0.133 0.156 0.178 0.133-0.022-0.133-0.133-0.2-0.156-0.267 0.089 0 0.156 0.089 0.222 0.133zM23.111 8.289l-0.178-0.067-0.067-0.044v0.156c0.044 0 0.089 0 0.111 0.022 0.089 0.044-0.089 0.067-0.111 0.133 0.111-0.044 0.2-0.067 0.244-0.067v-0.133zM23.111 8.511v0 0c-0.022 0-0.044 0.022-0.067 0.067 0.022 0 0.044 0 0.067-0.022v-0.044zM23.111 9.2v0 0c-0.089 0.044-0.178 0.089-0.244 0.156v0.133c0.044-0.089 0.133-0.2 0.244-0.289v0zM23.111 9.356c-0.089 0.067-0.178 0.156-0.244 0.178v0.267c0.067 0.067 0.156 0.111 0.244 0.2v0 0 0-0.044c-0.2-0.178-0.289-0.267-0.222-0.267 0.044 0 0.133 0.044 0.222 0.133v-0.311c-0.022 0.022-0.067 0.044-0.089 0.022-0.044-0.044 0-0.089 0.089-0.178v0 0 0zM23.111 10.133v0 0c-0.044-0.044-0.089-0.111-0.133-0.133h-0.067c0.089 0.067 0.156 0.133 0.2 0.2v-0.067zM23.111 10.311v0.289c-0.089-0.022-0.156-0.044-0.244-0.067v-0.267c0.044 0.044 0.089 0.067 0.111 0.067 0-0.022-0.044-0.089-0.111-0.178v-0.044l0.178 0.156c0.022 0.022 0.044 0.022 0.067 0.044zM23.111 11.956v0 0c0 0 0 0 0 0.022-0.111 0.178-0.133 0.356-0.044 0.444 0 0.022 0.022 0.022 0.044 0.044v-0.044c-0.022 0-0.022 0-0.044-0.022-0.067-0.089-0.044-0.244 0.044-0.4v-0.044zM23.111 13.111v0.044c-0.089 0-0.156-0.022-0.222-0.044 0 0 0 0 0 0v-0.044c0.022 0.022 0.022 0.022 0.044 0.022 0.044 0.022 0.111 0.022 0.178 0.022v0 0zM23.111 13.978v0 0c-0.022 0.044-0.044 0.067-0.089 0.089 0 0 0 0 0 0.022 0 0 0 0 0.022 0 0.022-0.022 0.044-0.044 0.067-0.067v-0.044zM23.111 14.444v0 0c-0.089 0.111-0.178 0.222-0.222 0.333v0.2h0.044c0.022-0.111 0.089-0.222 0.178-0.378v-0.156zM23.111 17.289v0 0c-0.067 0.067-0.156 0.133-0.222 0.178 0 0-0.022 0.022-0.022 0.022v0.6c0.067-0.089 0.156-0.156 0.244-0.222v-0.578zM23.111 25.956v0 0c-0.089-0.022-0.178-0.044-0.244-0.067v0.111c0.089 0.022 0.178 0.044 0.244 0.089v-0.133zM23.111 26.889h-0.244v0.044c0.089 0 0.156 0.022 0.2 0.044 0.022 0 0.022 0 0.044 0.022v-0.111zM23.111 27.911v0 0c-0.044 0.022-0.111 0.044-0.178 0.067-0.022 0-0.044 0.022-0.067 0.022v0.111c0.089 0 0.178-0.022 0.244-0.044v-0.156zM22.889 23.378h0.156v-0.067c0 0-0.067 0-0.156-0.044v0.111zM22.889 13.911l0.111-0.156-0.022-0.022c-0.022 0.044-0.044 0.067-0.089 0.089v0.089zM22.889 9.956v0 0c0.022 0.022 0.044 0.044 0.089 0.067h0.067c-0.067-0.044-0.111-0.089-0.156-0.133v0.067zM22.889 9.2v0 0c0.022-0.022 0.067-0.044 0.111-0.111-0.044 0.022-0.067 0.044-0.111 0.067v0.044zM22.889 5.2v-0.089l0.156-0.022c0.022 0 0.044 0 0.044 0.022 0.022 0.022 0 0.044-0.022 0.044l-0.178 0.044zM22.889 5.111v0.089l-0.089 0.022-0.2 0.222 0.289-0.067v0.111l-0.644 0.133v-0.089l0.222-0.067 0.2-0.2-0.422 0.111v-0.067l0.644-0.2zM22.889 5.644v0.267c-0.178-0.022-0.133 0.022-0.089 0.111-0.222-0.067-0.267-0.022-0.156 0.089-0.244-0.044-0.311 0-0.156 0.089-0.222-0.022-0.267 0.022-0.156 0.067-0.044 0-0.067 0-0.111 0v-0.156l0.578-0.333c0.022-0.044 0.044-0.089 0.089-0.133v0 0zM22.889 6.422v0 0c-0.044-0.022-0.089-0.044-0.111-0.022 0.022 0.022 0.067 0.067 0.111 0.111v-0.089zM22.889 6.644c-0.067-0.067-0.133-0.156-0.2-0.156 0.067 0.111 0.2 0.178 0.2 0.289-0.089 0.044-0.178-0.156-0.333-0.178 0.022 0.111 0.222 0.156 0.2 0.289-0.111 0.022-0.133-0.178-0.311-0.222 0.044 0.089 0.156 0.133 0.2 0.311-0.089 0-0.156-0.156-0.333-0.222 0.111 0.133 0.178 0.244 0.2 0.333-0.067 0.022-0.178-0.156-0.267-0.222v0.067c0.111 0.133 0.156 0.178 0.133 0.244-0.044 0.022-0.089-0.044-0.133-0.089v0.111c0.022 0.044 0.022 0.044 0 0.044v0.267h0.022l0.222-0.178 0.2-0.178c0.089-0.067 0.156-0.133 0.222-0.2v-0.311h-0.022zM22.889 8.178v0.156c-0.067 0.022-0.111 0.044-0.178 0.067 0.067-0.089 0.2-0.111 0.156-0.156-0.067-0.044-0.222 0.067-0.311 0.067 0.044-0.067 0.222-0.089 0.133-0.133-0.067-0.067-0.178 0.044-0.289 0.044 0.067-0.067 0.178-0.111 0.111-0.133-0.044-0.067-0.111 0.044-0.222 0.044v-0.044c0.067-0.044 0.156-0.067 0.089-0.089-0.022-0.022-0.067-0.022-0.089 0v-0.156c0.022 0.022 0.022 0.022 0.044 0.022l0.267 0.133 0.289 0.178zM22.889 9.178v0.044c-0.2 0.156-0.267 0.267-0.244 0.333 0.089-0.044 0.156-0.111 0.244-0.2v0.133c-0.022 0.022-0.022 0.022-0.022 0.044 0 0 0 0 0.022 0v0.267c-0.089-0.067-0.178-0.111-0.222-0.111-0.044-0.022 0.044 0.067 0.222 0.222v0.067c-0.222-0.156-0.333-0.244-0.4-0.244s0.044 0.111 0.311 0.311h-0.044c-0.222-0.178-0.356-0.289-0.467-0.289-0.044-0.022 0.044 0.089 0.289 0.289l-0.044 0.022c-0.133-0.111-0.222-0.156-0.289-0.2v-0.378c0 0.022 0.022 0.022 0.022 0.044 0.044 0.022 0.089-0.022 0.133-0.067 0.044-0.089 0.311-0.311 0.489-0.378-0.156 0.2-0.489 0.4-0.467 0.533 0.089-0.044 0.089-0.244 0.467-0.444v0 0zM22.889 10.111l-0.133-0.111-0.044 0.022c0.044 0.022 0.111 0.089 0.156 0.156v-0.067h0.022zM22.889 10.267c-0.089-0.067-0.2-0.178-0.311-0.267l-0.067 0.022c0.222 0.178 0.333 0.289 0.311 0.333-0.067-0.022-0.356-0.244-0.422-0.311l-0.067 0.022c0.2 0.178 0.311 0.289 0.378 0.333-0.111 0.089-0.178-0.133-0.267-0.111-0.044 0.044 0.156 0.133 0.133 0.156-0.111 0.044-0.178-0.133-0.267-0.111-0.044 0.044 0.133 0.111 0.133 0.178-0.044 0.022-0.111-0.022-0.178-0.067v0.089c0.022 0.022 0.022 0.022 0.022 0.044-0.022 0-0.022 0-0.022 0v0.156c0.267-0.022 0.467-0.089 0.578-0.2 0.022 0.022 0.044 0.022 0.067 0.022v-0.289h-0.022zM22.889 13.067v0 0c-0.044-0.022-0.089-0.044-0.133-0.067h0.022c-0.022-0.022 0-0.044 0.022-0.067 0.089-0.111-0.111-0.156-0.089-0.044 0 0.022 0 0.044 0.022 0.067 0.022 0.067 0.067 0.111 0.156 0.156v-0.044zM22.889 13.822v0 0c-0.133 0.111-0.289 0.222-0.489 0.311-0.022 0-0.022 0.022-0.022 0.022 0 0.022 0 0.022 0.022 0.022 0.2-0.111 0.356-0.2 0.467-0.289l-0.178 0.222c-0.133 0.156-0.244 0.311-0.356 0.444-0.022 0.044-0.044 0.067-0.089 0.111v0.178c0.044-0.067 0.089-0.133 0.156-0.222 0.089-0.156 0.222-0.333 0.356-0.533l0.133-0.178v-0.089zM22.889 14.778v0.2h-0.111c0.022-0.044 0.044-0.111 0.111-0.2zM22.889 17.489v0.6c-0.089 0.089-0.156 0.178-0.178 0.244-0.244 0.378-0.2 0.756-0.2 0.756v3.489c0 0 0 0.333 0.156 0.511 0.089 0.089 0.156 0.156 0.222 0.178v0.111h-0.644v-6.267c0.089-0.067 0.111-0.111 0.111-0.111h0.156v0.933c0 0.022 0.111-0.2 0.378-0.444v0 0zM22.889 25.889v0.111c-0.089-0.022-0.156-0.022-0.244-0.022-0.133 0-0.267 0.022-0.378 0.067v-0.133c0.111-0.022 0.222-0.044 0.356-0.044 0.089 0 0.178 0.022 0.267 0.022-0.022 0-0.022 0 0 0v0 0zM22.889 26.889h-0.022v0.067c0 0 0 0 0.022 0v-0.067zM22.889 27.978v0.111c-0.067 0.022-0.156 0.022-0.222 0.022-0.156 0-0.289-0.022-0.4-0.044v-0.156c0.133 0.067 0.267 0.089 0.422 0.089 0.044 0 0.133-0.022 0.2-0.022v0 0zM22.244 13.067v0 0c0.089-0.044 0.222-0.178 0.378-0.356 0 0 0 0 0-0.022 0 0-0.022 0-0.022 0-0.156 0.178-0.267 0.267-0.356 0.333v0.044zM22.244 12.8c0.111-0.111 0.2-0.222 0.2-0.333 0 0 0 0 0-0.022 0-0.044-0.022-0.089-0.067-0.089-0.044-0.022-0.089 0-0.133 0.044v0.044c0.067-0.044 0.111-0.044 0.133-0.044s0.022 0 0.022 0c0.022 0.067-0.044 0.133-0.133 0.222v0.178h-0.022zM22.244 9.978v-0.067c0.044 0.022 0.111 0.067 0.178 0.133l-0.044 0.022c-0.044-0.022-0.089-0.067-0.133-0.089zM22.244 9.422h-0.022v-0.133c0.089-0.067 0.311-0.222 0.511-0.356-0.044 0.067-0.267 0.289-0.4 0.422-0.044 0-0.089 0.022-0.089 0.067zM22.244 9.222v-0.156c0.089-0.067 0.2-0.156 0.378-0.244l-0.378 0.4zM22.244 8.978v-0.111c0.089-0.067 0.178-0.111 0.311-0.178-0.089 0.044-0.2 0.133-0.311 0.289v0 0zM22.244 8.733v-0.067c0.044-0.022 0.089-0.044 0.133-0.089-0.022 0.044-0.067 0.111-0.133 0.156zM22.244 8.511v0c0.022 0 0.022-0.022 0.022-0.022s0 0-0.022 0.022v0zM22.244 5.289v0.067l-0.244 0.044-0.2 0.2 0.422-0.089v0.089l-0.933 0.2c-0.022 0.022-0.044-0.022-0.067-0.044 0-0.022 0.022-0.044 0.044-0.067l0.378-0.089 0.2-0.2-0.6 0.133c0 0.022-0.022 0.022-0.022 0v0.133c0.022 0.067 0.022 0.111 0.022 0.111 0 0.022-0.022 0.044-0.022 0.044v0.067c0.067-0.022 0.089-0.067 0.089-0.111 0-0.022-0.067-0.267-0.067-0.267 0-0.022 0-0.022 0-0.022 0-0.022-0.022-0.022-0.022-0.044v0.022c0.022 0 0.022 0 0.022 0l1-0.178zM22.244 6.111l-0.111 0.067c-0.111 0.089-0.244 0.178-0.422 0.267l-0.356 0.267c-0.044 0.022-0.089 0.067-0.133 0.089v0.178l0.067 0.022c0-0.044 0.044-0.044 0.178-0.022-0.156-0.133-0.133-0.178 0.089-0.111-0.133-0.111-0.089-0.156 0.133-0.089-0.133-0.133-0.089-0.156 0.111-0.089-0.133-0.089-0.089-0.133 0.133-0.111-0.133-0.133-0.089-0.156 0.133-0.089-0.111-0.089-0.067-0.133 0.156-0.111-0.089-0.067-0.089-0.111 0.022-0.111v-0.156zM22.244 6.889v0.067c-0.022-0.022-0.044-0.067-0.067-0.089 0.022 0 0.044 0 0.067 0.022zM22.244 7.111v0.111c-0.022-0.044-0.089-0.133-0.2-0.267 0.089 0.022 0.133 0.089 0.2 0.156zM22.244 7.267v0 0c-0.022 0-0.067-0.044-0.133-0.133-0.044-0.022-0.089-0.067-0.178-0.089 0.333 0.333 0.267 0.356-0.156 0.067 0.289 0.289 0.289 0.311-0.044 0.089l0.467 0.378 0.044-0.044v-0.267zM22.244 7.844v0 0c-0.022 0-0.022-0.044-0.022-0.067l-0.267 0.222c0.133-0.067 0.2-0.089 0.244-0.067 0.022 0.022-0.022 0.067-0.111 0.111 0.022 0.022 0.089-0.022 0.156-0.044v-0.156zM22.244 8.089v0 0c-0.022 0.022-0.044 0.022-0.067 0.044 0.022 0 0.044 0 0.067 0v-0.044zM22.244 8.511c-0.333 0.156-0.489 0.422-0.578 0.422 0.022-0.133 0.356-0.4 0.489-0.533-0.156 0-0.467 0.4-0.556 0.378-0.067-0.067 0.2-0.333 0.422-0.511-0.2 0.067-0.378 0.333-0.489 0.356 0-0.133 0.356-0.4 0.378-0.467-0.178 0.067-0.289 0.2-0.356 0.178 0.022-0.067 0.111-0.178 0.267-0.289l-0.578 0.422v-0.067c0.067-0.044 0.133-0.111 0.178-0.133 0.267-0.222 0.489-0.378 0.622-0.467 0.044-0.089 0-0.156-0.111-0.067v0c-0.089 0.067-0.2 0.156-0.4 0.244-0.089 0.067-0.178 0.111-0.289 0.156v-0.244c0.044 0.022 0.067 0.044 0.111 0.044 0.022-0.044-0.044-0.089-0.111-0.133v-0.067c0.089 0.067 0.178 0.133 0.244 0.133 0.044-0.067-0.111-0.111-0.111-0.178 0.067 0.022 0.156 0.133 0.244 0.111 0.022-0.067-0.067-0.089-0.044-0.133 0.067 0 0.089 0.067 0.178 0.067 0.022-0.022-0.067-0.067-0.022-0.089 0.022-0.022 0.067 0 0.178 0.022l-0.022-0.044c0.044 0 0.044-0.022 0.044-0.044-0.244-0.178-0.467-0.311-0.667-0.4v-0.067c0.244 0.089 0.467 0.222 0.667 0.378 0.022-0.022-0.022-0.067-0.111-0.178 0.111 0.044 0.178 0.178 0.222 0.133-0.022-0.022-0.067-0.089-0.133-0.178-0.222-0.156-0.422-0.267-0.644-0.333v-0.044c0.289 0.089 0.6 0.267 0.889 0.511 0.022 0 0.022 0.022 0.022 0.044l0.067 0.044-0.022 0.044c-0.022 0.067-0.022 0.111 0.022 0.156 0.022 0.022 0.044 0.044 0.022 0.067l-0.156 0.156c-0.156 0.067-0.422 0.267-0.822 0.6v0.2c0.111 0.089 0.2 0.2 0.333 0.289l0.267 0.244 0.156 0.133 0.133 0.111 0.022 0.044c0.022 0.022 0.022 0.044-0.022 0.044-0.089 0.022-0.156 0.067-0.222 0.111-0.2-0.067-0.4-0.067-0.644-0.022v0.111c0.022 0 0.022 0 0.022 0l0.244 0.111c-0.022-0.089-0.2-0.111-0.089-0.156 0.133 0 0.111 0.089 0.244 0.133 0.022-0.067-0.156-0.133-0.022-0.133 0.089-0.022 0.111 0.067 0.222 0.089 0.022-0.044-0.133-0.089-0.044-0.089 0.133 0 0.244 0.067 0.4 0.178v-0.067c-0.067-0.067-0.111-0.111-0.089-0.111 0.022 0.022 0.067 0.022 0.089 0.044v-0.378c0 0 0 0 0-0.022v-0.156c-0.022 0.022-0.022 0.022-0.022 0.022 0 0.089-0.044 0.111-0.111 0.067-0.022-0.067 0.022-0.111 0.089-0.133l0.022-0.022v-0.156c-0.044 0.044-0.089 0.089-0.111 0.111-0.022 0.111-0.067 0.156-0.133 0.111-0.044-0.067 0-0.111 0.089-0.133 0.067-0.067 0.111-0.133 0.156-0.178v-0.111c-0.133 0.089-0.2 0.178-0.244 0.244-0.022 0.067-0.067 0.089-0.089 0.067-0.111-0.089 0.156-0.267 0.333-0.422v-0.067c-0.2 0.156-0.311 0.222-0.378 0.311 0 0.067-0.022 0.089-0.089 0.067-0.067-0.067-0.022-0.111 0.111-0.178 0.044-0.067 0.178-0.156 0.333-0.311v0 0 0zM22.244 10.422v0 0c-0.067-0.044-0.111-0.089-0.133-0.067s0.089 0.089 0.133 0.156v-0.089zM22.244 10.533h0.044v0.156c-0.222 0.022-0.511 0.022-0.822-0.022-0.067 0.044-0.111 0.067-0.178 0.111v-0.289c0.067 0.044 0.133 0.089 0.178 0.067 0.022-0.044-0.156-0.133-0.111-0.178 0.111 0.022 0.2 0.178 0.333 0.178-0.022-0.044-0.2-0.156-0.178-0.222 0.133 0.044 0.289 0.289 0.4 0.222-0.022-0.044-0.267-0.178-0.178-0.222 0.089 0.022 0.244 0.244 0.333 0.222 0-0.022-0.178-0.156-0.133-0.2 0.067 0 0.133 0.133 0.311 0.178zM22.244 12.4v0 0c-0.067 0.044-0.133 0.111-0.222 0.2 0.022-0.067 0-0.133-0.022-0.178-0.022 0-0.022 0-0.022 0v0 0c-0.022-0.022-0.022-0.022-0.022-0.022-0.067-0.022-0.178 0.089-0.289 0.2-0.044 0.044-0.111 0.111-0.156 0.133v0c-0.044 0-0.022-0.022-0.022-0.044 0.022 0 0.022-0.022 0-0.022 0.044-0.089 0.089-0.178 0.044-0.244 0-0.022 0-0.022-0.044-0.044h-0.044c-0.067 0-0.133 0.022-0.222 0.067v0.133c0.111-0.089 0.2-0.156 0.267-0.133 0.022 0 0.022 0.022 0.022 0.022 0.022 0.044 0 0.133-0.044 0.222-0.044-0.022-0.067 0-0.111 0.044-0.022 0.044 0 0.067 0.022 0.089-0.044 0.044-0.089 0.111-0.133 0.156v0.044c0.044-0.067 0.089-0.111 0.156-0.2 0 0 0 0 0.022 0 0.044-0.022 0.044-0.044 0.067-0.067l0.022 0.022c0.044 0 0.089-0.044 0.2-0.156 0.089-0.089 0.222-0.222 0.267-0.2 0 0.022 0.022 0.044-0.022 0.089l-0.533 0.644h0.156l0.4-0.489c0.111-0.111 0.2-0.178 0.267-0.222v-0.044zM22.244 12.622h-0.022v0.178c-0.111 0.111-0.222 0.2-0.178 0.289 0 0 0.022 0 0.022 0.022 0.044 0 0.089 0 0.178-0.067v0.044c-0.067 0.044-0.133 0.089-0.178 0.067-0.022-0.022-0.022-0.022-0.044-0.067v0c-0.089-0.2 0.089-0.333 0.222-0.467zM22.244 14.667v0 0c-0.089 0.111-0.178 0.222-0.267 0.311h0.178c0.022-0.044 0.044-0.089 0.089-0.156v-0.156zM22.244 17.111v0 0c-0.133 0.111-0.4 0.311-0.756 0.467-0.089 0.044-0.156 0.067-0.244 0.111v5.667h1v-6.244zM22.244 25.911v0 0c-0.111 0.022-0.222 0.044-0.311 0.133-0.222 0.111-0.4 0.267-0.533 0.467-0.067 0.089-0.089 0.156-0.133 0.244v0.578c0.044 0.133 0.133 0.267 0.244 0.378 0.178 0.178 0.422 0.289 0.733 0.356v-0.156c-0.022-0.022-0.044-0.022-0.067-0.044-0.156-0.067-0.267-0.178-0.378-0.356-0.089-0.178-0.156-0.356-0.156-0.556 0-0.244 0.089-0.467 0.222-0.644 0.111-0.133 0.222-0.2 0.378-0.267v-0.133zM21.244 14.178v0 0c0.044 0.022 0.089 0.022 0.133 0.022-0.022 0-0.067-0.022-0.133-0.022v0zM21.244 9.933v0 0c0.044 0.022 0.067 0.022 0.089 0.044-0.022-0.044-0.044-0.067-0.089-0.089v0.044zM21.244 8.378v0c0.067-0.044 0.133-0.089 0.133-0.133-0.044 0.022-0.089 0.044-0.133 0.067v0.067zM21.244 5.489v0.022c-0.022 0-0.022 0.022-0.022 0.044s0.022 0.022 0.022 0.022v0.133c-0.022-0.067-0.022-0.111-0.022-0.156v-0.089c0.022 0 0.022 0.022 0.022 0.022v0 0zM21.244 5.867v0 0c0 0 0 0-0.022 0.022v0.067c0 0 0.022-0.022 0.022-0.022v-0.067zM21.244 6.8v0.178l-0.022-0.022v-0.156c0.022 0 0.022 0 0.022 0v0 0zM21.244 6.978v0.044c0 0 0 0-0.022 0v-0.067c0 0.022 0.022 0.022 0.022 0.022zM21.244 7.2v0 0c0 0 0-0.022-0.022-0.022v0.067c0 0.022 0.022 0.022 0.022 0.022v-0.067zM21.244 7.822v0 0c0 0 0 0-0.022-0.022v0.044c0 0.022 0.022 0.022 0.022 0.044v-0.067zM21.244 7.978v0 0c0 0 0 0-0.022-0.022v0.289c0 0 0 0 0.022-0.022v-0.244zM21.244 8.311v0 0c0 0 0 0.022-0.022 0.022v0.067c0 0 0.022 0 0.022-0.022v-0.067zM21.244 8.467v0 0c0 0.022 0 0.022-0.022 0.044v0.044l0.022-0.022v-0.067zM21.244 8.556v0 0c0 0.022 0 0.022-0.022 0.022v0.133c0 0.022 0.022 0.022 0.022 0.044v-0.2zM21.244 9.711v0 0c0 0 0 0-0.022 0.022v0.111c0-0.022 0-0.022 0.022-0.022v-0.111zM21.244 9.889v0 0c0 0 0-0.022-0.022-0.044v0.067c0 0.022 0.022 0.022 0.022 0.022v-0.044zM21.244 10.489v0 0c0 0 0 0-0.022 0v0.311c0-0.022 0.022-0.022 0.022-0.022v-0.289zM21.244 12.444v0.111c0 0.022-0.022 0.022-0.022 0.044v-0.133c0.022 0 0.022-0.022 0.022-0.022v0 0zM21.244 12.956v0 0c0 0.022 0 0.022-0.022 0.022v0.044c0 0 0.022 0 0.022-0.022v-0.044zM21.244 14.178v0 0c0 0 0 0-0.022 0v0.022c0 0 0.022 0 0.022-0.022v0zM21.244 17.689v0 0c0 0 0 0-0.022 0v5.689h0.022v-5.689zM21.244 26.733v0c0 0.022 0 0.067-0.022 0.111v0.356c0 0.044 0 0.067 0.022 0.111v-0.578zM21.222 5.467v0 0c-0.044-0.022-0.089-0.022-0.133-0.022-0.089 0.022-0.111 0.067-0.133 0.133l-0.489 0.111v0.089l0.489-0.156c0.022 0.044 0.022 0.089 0.044 0.133l-0.533 0.133v0.111l0.511-0.156c0 0.022 0 0.022 0 0.022 0.044 0.089 0.133 0.089 0.222 0.067h0.022v-0.067c0 0-0.022 0-0.022 0.022-0.067 0-0.133 0-0.156-0.044l-0.067-0.267c0-0.067 0.067-0.089 0.089-0.089 0.067-0.022 0.133 0 0.156 0.044 0 0 0 0 0 0.022v-0.089zM21.222 6.8v0 0c-0.044 0.044-0.111 0.067-0.178 0.111l0.178 0.044v-0.156zM21.222 6.956v0.067c-0.067-0.022-0.133-0.044-0.222-0.067-0.022-0.022-0.089 0.022-0.133 0.067-0.022 0.022-0.044 0.044-0.022 0.044 0 0 0 0.022 0.022 0.022 0.111 0.022 0.244 0.067 0.356 0.111v0.067c-0.133-0.044-0.244-0.089-0.378-0.111-0.133 0.089-0.244 0.2-0.4 0.356v-0.067c0.133-0.133 0.244-0.244 0.378-0.333 0 0-0.022 0-0.022-0.022-0.022-0.022-0.022-0.044 0.022-0.089 0.022-0.044 0.111-0.111 0.178-0.089 0.067 0 0.156 0.022 0.222 0.044zM21.222 7.8v0 0c-0.022 0-0.022-0.022-0.044-0.044 0 0.044 0.022 0.067 0.044 0.089v-0.044zM21.222 7.956v0 0.289c-0.133 0.111-0.333 0.111-0.267 0.2 0.044 0.022 0.133-0.044 0.267-0.111v0.067c-0.067 0.044-0.133 0.089-0.111 0.111 0.044 0 0.067 0 0.111-0.022v0.044l-0.089 0.067c0 0.044 0 0.067 0.044 0.067 0 0.022 0.022 0.044 0.044 0.067v-0.133c-0.022 0.022-0.044 0.044-0.067 0.067 0-0.044-0.044-0.067-0.089-0.067-0.089 0-0.222-0.111-0.2-0.2-0.022-0.022-0.044-0.044-0.044-0.089-0.156-0.111-0.289-0.2-0.378-0.289v-0.111c0.044 0.067 0.133 0.156 0.222 0.2-0.067-0.089-0.2-0.222-0.222-0.289v-0.022c0.2 0.222 0.333 0.333 0.422 0.356 0.022-0.067-0.289-0.289-0.267-0.356 0.111 0.022 0.333 0.378 0.489 0.333 0-0.089-0.267-0.244-0.267-0.333 0.178 0.089 0.311 0.289 0.4 0.267 0.022-0.067-0.2-0.222-0.222-0.289 0.089 0.067 0.156 0.133 0.222 0.178zM21.222 9.711v0 0c-0.022 0.022-0.067 0.022-0.089 0.067-0.289 0.044-0.533 0.156-0.667 0.289-0.022 0-0.022 0-0.022 0v0.156c0.089 0.022 0.178 0.067 0.267 0.133l0.067-0.022c-0.178-0.089-0.267-0.133-0.244-0.178 0.089 0 0.2 0.044 0.378 0.156l0.089-0.044c-0.111-0.133-0.467-0.178-0.356-0.222 0.067-0.044 0.178-0.022 0.311 0.044-0.022-0.089-0.222-0.111-0.111-0.156 0.111-0.022 0.133 0.044 0.289 0.089-0.067-0.067-0.178-0.111-0.089-0.133 0.044 0 0.089 0 0.178 0.044v-0.067c-0.022-0.022-0.022-0.044 0-0.044v-0.111zM21.222 10.467h-0.022v0.311c-0.267 0.133-0.511 0.222-0.778 0.267v-0.289c0.044 0.022 0.089 0.044 0.133 0.067 0-0.022-0.067-0.067-0.133-0.133v-0.089l0.267 0.133c0-0.022-0.133-0.133-0.267-0.222v-0.067c0.289 0.133 0.422 0.244 0.467 0.222 0-0.044-0.267-0.222-0.422-0.311l0.044-0.022c0.222 0.133 0.467 0.289 0.511 0.267 0-0.044-0.178-0.178-0.333-0.289l0.044-0.022c0.267 0.133 0.4 0.289 0.444 0.244-0.044-0.067-0.156-0.156-0.311-0.267l0.067-0.044c0.067 0.022 0.178 0.156 0.289 0.244zM21.222 12.467v0.133c-0.178 0.178-0.356 0.467-0.311 0.533 0.022 0 0.044 0.022 0.067 0.022 0.067 0 0.156-0.044 0.244-0.133v0.044c-0.089 0.089-0.178 0.133-0.244 0.133s-0.089-0.022-0.133-0.089v0 0c-0.022-0.089 0-0.2 0.067-0.311-0.089 0.089-0.156 0.133-0.2 0.178-0.044 0.022-0.044 0.044-0.067 0.067 0 0 0 0.022-0.022 0.022-0.067 0.067-0.111 0.089-0.178 0.111v-0.111c0.111-0.156 0.222-0.378 0.244-0.489 0-0.044-0.044-0.044-0.089 0l-0.156 0.156v-0.044l0.378-0.378c0-0.022 0.022-0.022 0.022 0 0 0 0 0.022 0 0.022l-0.089 0.067c-0.067 0.133-0.022 0.244-0.044 0.4 0 0.067-0.022 0.111-0.044 0.156 0.067-0.067 0.133-0.133 0.244-0.222 0.133-0.133 0.222-0.2 0.311-0.267v0 0zM21.222 14.156v0 0c-0.156-0.022-0.444-0.067-0.778-0.044v0.067c0.267-0.044 0.533-0.044 0.778 0v-0.022zM21.222 17.689v0 0c-0.378 0.156-0.6 0.222-0.6 0.222v0.089c0 0 0.2-0.022 0.378 0.111 0.178 0.156 0.2 0.333 0.2 0.333v4.133c0 0 0 0.356-0.156 0.511-0.2 0.244-0.378 0.222-0.378 0.222v0.067h0.556v-5.689zM21.222 26.844v0 0c0 0.044-0.022 0.111-0.022 0.178 0 0.044 0 0.111 0.022 0.178v-0.356zM20.467 14.689v0 0c0.089-0.067 0.2-0.111 0.4-0.178h-0.089c-0.133 0.044-0.222 0.089-0.311 0.133v0.044zM20.467 12.156v0 0c0 0 0.022-0.022 0.067 0 0.022-0.022 0-0.067-0.022-0.089s-0.022-0.022-0.044-0.022v0.111zM20.467 10.333h0.022v-0.044c0.022 0.022 0.067 0.044 0.111 0.089h-0.067c-0.022-0.022-0.044-0.022-0.067-0.044zM20.467 5.689l-0.489 0.089c-0.022-0.044-0.067-0.067-0.133-0.067v0.067c0.044 0 0.067 0 0.089 0.044 0 0.044 0.044 0.289 0.044 0.267 0.022 0.067-0.044 0.067-0.067 0.089-0.022 0-0.044 0.022-0.067 0v0.067c0.044 0 0.067 0 0.089 0 0.067-0.022 0.133-0.067 0.111-0.133 0 0 0 0 0-0.022l0.422-0.089v-0.111l-0.422 0.111c-0.022-0.044-0.022-0.089-0.044-0.133l0.467-0.089v-0.089zM20.467 7.444v0 0c-0.067 0.044-0.111 0.111-0.178 0.2-0.067 0.044-0.067 0.111-0.022 0.178s0.089 0.133 0.178 0.222v-0.111c-0.022-0.022-0.067-0.067-0.089-0.067 0-0.022-0.022-0.067-0.044-0.089v0c-0.022-0.067-0.022-0.111 0.022-0.133 0.044-0.044 0.089-0.089 0.133-0.133v-0.067zM20.467 7.8v0 0 0c0 0 0 0 0 0v0zM20.467 10.044v0 0c-0.244-0.022-0.356-0.044-0.533 0.089-0.022 0.022-0.044 0.044-0.089 0.067v0.2c0.044-0.022 0.178 0.022 0.378 0.133h0.044c-0.244-0.133-0.378-0.2-0.356-0.222 0.089-0.044 0.222 0.022 0.422 0.133l0.044-0.022c-0.2-0.156-0.378-0.178-0.378-0.222 0.133-0.022 0.244 0.022 0.467 0.133v-0.044c-0.178-0.111-0.356-0.133-0.244-0.156 0.067 0 0.156 0.022 0.244 0.067v-0.156zM20.467 10.444v0 0.044c-0.067-0.022-0.111-0.067-0.156-0.089l0.022-0.022c0.044 0.022 0.089 0.044 0.133 0.067zM20.467 10.6v0.089c-0.089-0.067-0.2-0.133-0.289-0.178l0.044-0.022 0.244 0.111zM20.467 10.778v0 0c-0.156-0.067-0.333-0.2-0.378-0.178l-0.022 0.022c0.222 0.111 0.311 0.222 0.356 0.289-0.044 0-0.2-0.111-0.422-0.222l-0.022 0.044c0.089 0.067 0.133 0.111 0.156 0.133-0.022 0-0.089 0-0.2-0.067l-0.089 0.089v-0.133c0.044 0.022 0.089 0.044 0.133 0.067l-0.133 0.133v0.022c0.111 0.089 0.289 0.133 0.489 0.111 0.044 0 0.089 0 0.133-0.022v-0.289zM20.467 12.044v0 0c-0.022 0-0.044 0-0.067 0-0.022 0.022-0.022 0.067 0.022 0.089 0.022 0.022 0.022 0.022 0.044 0.022v-0.111zM20.467 12.644l-0.133 0.178c-0.022 0-0.022 0-0.044 0-0.044 0-0.067 0.044-0.089 0.111 0 0 0 0-0.022 0-0.133 0.156-0.244 0.244-0.333 0.244v0.022c0.089 0 0.178-0.067 0.311-0.2 0 0.067 0 0.111 0.044 0.156 0.022 0.022 0.089 0.044 0.133 0.022s0.089-0.022 0.133-0.044v-0.111c-0.044 0.044-0.067 0.089-0.111 0.111-0.044 0-0.089 0-0.133-0.022s-0.067-0.067-0.044-0.133l0.022-0.022c0.067 0 0.111-0.022 0.156-0.067 0-0.044 0-0.067-0.022-0.089l0.133-0.111v-0.044zM20.467 14.111v0 0c-0.2 0.022-0.4 0.067-0.622 0.133v0.111c0.244-0.089 0.422-0.133 0.622-0.178v-0.067zM20.467 14.644v0 0c-0.178 0.089-0.311 0.2-0.622 0.289v0.044c0.356-0.111 0.489-0.2 0.622-0.289v-0.044zM19.844 27.756v0 0c0.244-0.2 0.356-0.467 0.356-0.778s-0.111-0.578-0.356-0.778v1.556zM19.844 23.378v0.022h0.444v-0.089c0 0-0.178 0.022-0.378-0.222-0.022-0.022-0.044-0.044-0.067-0.067v0.356zM19.844 13.711v0 0c0.178 0.022 0.356 0.044 0.556 0.111h0.044c-0.222-0.089-0.422-0.133-0.6-0.156v0.044zM19.844 12.978h0.022v-0.222l0.289-0.356 0.156 0.022c-0.2 0.244-0.378 0.422-0.467 0.556zM19.844 12.444v0 0c0 0 0.022-0.022 0.044-0.044h-0.044v0.044zM19.844 10.689v-0.067c0.067 0.022 0.133 0.044 0.2 0.089l-0.044 0.067c-0.067-0.044-0.111-0.067-0.156-0.089zM19.844 10.533v-0.089c0.044 0.044 0.133 0.067 0.289 0.133l-0.044 0.044c-0.089-0.044-0.156-0.089-0.244-0.089zM19.844 5.756v0 0c-0.022 0-0.044 0-0.089 0.022-0.067 0.022-0.133 0.067-0.111 0.156l0.044 0.267c0.022 0.022 0.022 0.022 0.022 0.022 0.022 0.044 0.067 0.067 0.133 0.067v-0.067c-0.044 0-0.067-0.022-0.089-0.044l-0.044-0.267c-0.022-0.067 0.044-0.089 0.067-0.089s0.044-0.022 0.067 0v-0.067zM19.844 10.2v0.2c-0.022 0-0.022 0.022-0.022 0.022-0.022 0.022-0.022 0.022 0.022 0.044v0.067c-0.022 0-0.044 0.022-0.067 0.022 0 0.022 0.022 0.044 0.067 0.067v0.067c-0.022 0-0.044 0-0.067 0.022 0 0.022 0.022 0.044 0.067 0.089v0.089l-0.044 0.044c0.022 0.022 0.022 0.022 0.044 0.022v0c-0.044-0.022-0.111-0.133-0.111-0.133-0.133-0.156-0.089-0.444 0.111-0.622v0 0zM19.844 12.422l-0.156-0.067-0.067 0.089c0-0.022-0.022-0.044-0.044-0.067 0 0-0.022-0.022-0.067-0.022v0 0c0 0 0 0-0.022 0v0c-0.089 0.022-0.156 0.044-0.244 0.089v0.156c0.111-0.111 0.2-0.178 0.289-0.2 0 0.022 0 0.022 0.022 0.022 0.022 0.022 0.022 0.044 0.022 0.089 0 0.022 0 0.022 0 0.022l-0.311 0.378v0.244c0 0 0 0.022 0.022 0.022 0 0.022 0 0.022 0 0.022v0c0.044 0.022 0.067 0.022 0.089 0.022h0.022c0.067 0 0.133-0.044 0.222-0.133 0.044-0.089 0.044-0.067 0.067-0.044 0 0.089 0.022 0.133 0.111 0.156 0.022 0 0.022 0 0.044 0v-0.022c-0.022 0-0.044 0-0.067-0.022-0.022-0.044 0-0.111 0.089-0.222v-0.2l-0.111 0.133c-0.022 0.022-0.022 0.022-0.022 0.022-0.178 0.2-0.267 0.289-0.356 0.244-0.089-0.089 0.178-0.289 0.467-0.689v-0.022zM19.844 13.667v0.044c-0.2-0.022-0.378 0.022-0.533 0.067v-0.067c0.133-0.044 0.333-0.067 0.533-0.044v0 0zM19.844 14.244v0.111c-0.089 0.022-0.156 0.067-0.244 0.089-0.111 0.044-0.2 0.089-0.289 0.111v-0.067c0.089-0.022 0.156-0.067 0.222-0.111 0.111-0.044 0.2-0.089 0.311-0.133v0 0zM19.844 14.933v0.044c-0.022 0-0.044 0.022-0.089 0.022-0.178 0.022-0.333 0.022-0.467-0.022v-0.044c0.133 0.022 0.289 0.044 0.467 0.022 0.044 0 0.067 0 0.089-0.022v0 0zM19.844 23v0.356h-0.533v-5.844c0.4 0.4 0.444 1.022 0.444 1.133 0 0.089 0 3.933 0 3.933s0 0.244 0.089 0.422v0 0zM19.844 26.2v1.556c0 0 0 0.022-0.022 0.022-0.156 0.133-0.333 0.222-0.533 0.267v-0.156c0.089-0.044 0.156-0.089 0.222-0.156 0.178-0.156 0.244-0.4 0.244-0.733 0-0.356-0.089-0.622-0.267-0.8-0.067-0.067-0.111-0.111-0.2-0.133v-0.156c0.2 0.044 0.4 0.133 0.556 0.289 0 0 0 0 0 0v0 0zM19.311 12v-0.111c0.111-0.089 0.2-0.156 0.311-0.2-0.111 0.022-0.2 0.067-0.311 0.133v-0.044c0.111-0.067 0.244-0.133 0.356-0.133 0.022 0 0.022 0 0.022 0.022 0 0 0 0.022-0.022 0.022h-0.022c-0.089 0.067-0.222 0.178-0.333 0.311v0zM19.311 11.8v0.044c-0.133 0.067-0.244 0.178-0.378 0.289v-0.044c0.111-0.133 0.244-0.222 0.378-0.289v0 0zM19.311 11.889c-0.133 0.111-0.267 0.222-0.378 0.333v0.178c0.111-0.133 0.244-0.289 0.378-0.4v-0.111zM19.311 12.467v0.156c-0.178 0.178-0.356 0.444-0.311 0.533 0.067 0.022 0.156-0.044 0.267-0.178v-0.022l0.067-0.067v0.244c-0.022-0.022-0.022-0.067-0.022-0.133-0.022-0.022-0.022-0.022-0.022-0.022-0.111 0.133-0.2 0.222-0.289 0.178v0c0 0 0 0-0.022-0.022 0 0 0 0-0.022 0v-0.022c-0.022 0-0.022-0.022-0.022-0.022v-0.289c0.067-0.089 0.222-0.222 0.378-0.333v0 0zM19.311 13.733v0.044c-0.178 0.067-0.289 0.156-0.378 0.267v-0.044c0.089-0.111 0.222-0.222 0.378-0.267v0 0zM19.311 14.489v0.067c-0.133 0.044-0.267 0.089-0.378 0.089v-0.044c0.111-0.022 0.244-0.067 0.378-0.111v0 0zM19.311 14.956v0.044c-0.156-0.022-0.289-0.089-0.378-0.178v-0.111c0.067 0.111 0.2 0.2 0.378 0.244v0 0zM19.311 17.511v5.867h-0.378v-6.156c0.111 0.067 0.222 0.156 0.333 0.244 0.022 0.022 0.022 0.022 0.044 0.044v0 0zM19.311 25.911v0.156c-0.111-0.044-0.244-0.089-0.378-0.089v-0.111c0.022 0 0.022 0 0.022 0 0.111 0 0.244 0.022 0.356 0.044v0 0zM19.311 27.911v0.156c-0.111 0.044-0.244 0.044-0.378 0.044v-0.111c0.133-0.022 0.267-0.044 0.378-0.089v0 0zM18.933 11.711v-0.044c0.022 0 0.022 0 0.044-0.022l0.022 0.022c0 0.022 0 0.022-0.022 0.022s-0.022 0-0.022 0c-0.022 0.022-0.022 0.022-0.022 0.022v0zM16.756 25.867l0.067 0.733h-0.067c-0.089-0.222-0.2-0.378-0.333-0.467-0.156-0.111-0.333-0.156-0.533-0.156-0.178 0-0.333 0.044-0.467 0.111-0.156 0.067-0.244 0.178-0.333 0.333s-0.111 0.333-0.111 0.578c0 0.2 0.044 0.356 0.111 0.511 0.089 0.133 0.2 0.244 0.333 0.311 0.156 0.089 0.333 0.111 0.533 0.111 0.178 0 0.311-0.044 0.444-0.089 0.133-0.067 0.267-0.178 0.422-0.356l0.067 0.044c-0.133 0.2-0.289 0.333-0.467 0.4-0.178 0.089-0.378 0.133-0.622 0.133-0.422 0-0.756-0.133-1-0.378-0.178-0.2-0.267-0.422-0.267-0.689 0-0.222 0.067-0.4 0.178-0.6 0.111-0.178 0.267-0.311 0.489-0.4 0.2-0.089 0.422-0.156 0.667-0.156 0.2 0 0.378 0.044 0.556 0.111 0.067 0.022 0.089 0.044 0.111 0.044 0.044 0 0.067-0.022 0.089-0.022 0.044-0.044 0.067-0.067 0.089-0.133h0.044v0.022zM18.933 11.667v0.044c-0.422 0.267-0.689 1.067-1.356 1.467 0.333-0.111 0.667-0.422 0.978-0.733 0.133-0.133 0.244-0.244 0.378-0.356v0.044c-0.133 0.111-0.244 0.222-0.356 0.333-0.356 0.333-0.711 0.689-1.089 0.778-0.022 0-0.022 0-0.022-0.022s0.022-0.022 0.022-0.022 0 0 0.022 0c0.4-0.289 0.8-1.2 1.356-1.467-0.244 0.089-0.511 0.311-0.778 0.556-0.511 0.422-1.133 0.978-1.956 0.978-0.356 0.022-0.556-0.178-0.6-0.333-0.044-0.2 0.067-0.4 0.267-0.511 0.022 0 0.022 0 0.022 0 0.133-0.111 0.311-0.156 0.556-0.156 0.333 0.089 0.622 0.089 0.867 0.044-0.156 0.089-0.289 0.111-0.422 0.111-0.133 0.022-0.289-0.022-0.511-0.067-0.2 0-0.356 0.044-0.489 0.111v0c-0.2 0.111-0.311 0.289-0.267 0.489 0.044 0.156 0.2 0.311 0.556 0.311 0.8 0 1.4-0.511 1.933-0.978 0.333-0.311 0.622-0.556 0.889-0.622v0 0zM18.933 12.222c-0.4 0.378-0.667 0.822-0.489 0.956h0.022c0.089 0.067 0.222-0.022 0.422-0.244-0.022 0.089-0.022 0.156 0.044 0.222v-0.289h-0.022c-0.2 0.244-0.356 0.333-0.444 0.289v0c-0.067-0.089 0.178-0.422 0.467-0.756v-0.178zM18.933 14v0.067c-0.111 0.178-0.133 0.378-0.067 0.556 0.022-0.022 0.044-0.022 0.067-0.022v0.044c-0.022 0.022-0.022 0.022-0.044 0.022 0.022 0.022 0.022 0.044 0.044 0.044v0.111c-0.044-0.044-0.089-0.089-0.111-0.133-0.578 0.067-0.756-0.2-0.889-0.4 0.2 0.289 0.511 0.4 0.867 0.356-0.067-0.222-0.022-0.467 0.133-0.644v0 0zM18.933 17.222v6.156h-1v-0.089c0 0 0.178 0.022 0.378-0.222 0.133-0.156 0.156-0.511 0.156-0.511v-3.556c0 0 0.067-0.667-0.4-1.022-0.356-0.267-0.822-0.267-1.133-0.178-0.311 0.111-0.533 0.4-0.6 0.533-0.244 0.378-0.2 0.756-0.2 0.756v3.467c0 0 0 0.333 0.156 0.511 0.2 0.244 0.378 0.222 0.378 0.222v0.089h-2.356v-0.089c0 0 0.178 0.022 0.378-0.222 0.156-0.156 0.156-0.511 0.156-0.511v-4.111c0 0-0.022-0.156-0.222-0.311-0.156-0.133-0.378-0.111-0.378-0.111v-0.111c0 0 0.356-0.089 0.889-0.333 0.511-0.222 0.867-0.578 0.867-0.578h0.156v0.956c0 0 0.111-0.222 0.378-0.489 0.222-0.178 0.578-0.444 1.178-0.511 0.467-0.022 0.867 0.044 1.222 0.267v0 0zM18.933 25.867v0.111c-0.022 0-0.022 0-0.022 0-0.244 0-0.422 0.089-0.578 0.222-0.178 0.178-0.267 0.422-0.267 0.756 0 0.356 0.089 0.622 0.267 0.8 0.133 0.133 0.333 0.2 0.556 0.2h0.022v0.111h-0.022c-0.356 0-0.667-0.111-0.889-0.311-0.244-0.222-0.378-0.489-0.378-0.8 0-0.333 0.156-0.622 0.422-0.822 0.267-0.156 0.556-0.244 0.889-0.267v0 0zM11.556 23.467v-1.067c0.4 0.156 0.8 0.067 1.178-0.089 0.6-0.267 0.956-1.156 0.956-1.156h0.156c0 0 0 0.6-0.6 1.422-0.489 0.622-1.156 0.844-1.689 0.889v0 0zM11.556 19.533v-0.489h1.156c0 0 0.022-0.533-0.244-1.022-0.244-0.489-0.622-0.578-0.844-0.578-0.022 0-0.044 0-0.067 0v-0.444c0.044-0.022 0.111-0.022 0.156-0.022 0.889 0.022 1.422 0.467 1.844 1.022 0.4 0.6 0.378 1.511 0.378 1.511h-2.378v0.022zM11.556 17v0.444c-0.222 0.022-0.533 0.111-0.8 0.511-0.289 0.422-0.356 1.089-0.356 1.089h1.156v0.489l-1.244 0.022c0 0-0.022 0.733 0.022 1 0.067 0.356 0.089 0.933 0.6 1.444 0.2 0.2 0.4 0.333 0.622 0.4v1.067c-0.089 0.022-0.178 0.022-0.267 0.022-0.467 0.022-1.489-0.289-1.933-1.444-0.422-1.156-0.378-2-0.133-2.978s1.156-1.978 2.333-2.067v0 0zM6.578 18.978v3.667c0 0 0 0.244-0.156 0.422-0.133 0.156-0.378 0.2-0.378 0.2v0.067h2.622v-0.067c0 0-0.244-0.044-0.378-0.2-0.156-0.178-0.178-0.422-0.178-0.422v-7.378c0 0 0.022-0.222 0.178-0.4 0.133-0.156 0.378-0.178 0.378-0.178v-0.089h-2.644v0.089c0 0 0.244 0.044 0.378 0.178 0.178 0.178 0.178 0.4 0.178 0.4v3.067h-3.578v-3.067c0 0 0.022-0.244 0.178-0.422 0.133-0.156 0.378-0.2 0.378-0.2v-0.089h-2.644v0.089c0 0 0.244 0.044 0.378 0.2 0.156 0.178 0.178 0.422 0.178 0.422v7.378c0 0 0 0.244-0.156 0.422s-0.378 0.2-0.378 0.2v0.067h2.622v-0.067c0 0-0.244-0.067-0.378-0.2-0.156-0.178-0.178-0.422-0.178-0.422v-3.667h3.578z"></path>
</svg>
