<?xml version="1.0" encoding="utf-8"?>
<!-- Generated by IcoMoon.io -->
<!DOCTYPE svg PUBLIC "-//W3C//DTD SVG 1.1//EN" "http://www.w3.org/Graphics/SVG/1.1/DTD/svg11.dtd">
<svg version="1.1" xmlns="http://www.w3.org/2000/svg" xmlns:xlink="http://www.w3.org/1999/xlink" width="88" height="32" viewBox="0 0 88 32">
<path fill="#4e84c4" d="M57.6 26.811h-2.078c-0.422 0-0.744-0.222-0.778-0.644l-0.033-0.811c-1.5 1.2-3.289 1.856-5.167 1.856-3.644 0-5.133-2.311-5.133-5.822v-9.622c0-0.556 0.322-0.744 0.844-0.744h2.278c0.522 0 0.811 0.167 0.811 0.744v8.933c0 1.789 0.456 3.022 2.411 3.022 1.233 0 2.8-0.678 3.767-1.556v-10.4c0-0.556 0.289-0.744 0.811-0.744h2.311c0.522 0 0.811 0.167 0.811 0.744v14.144c-0.011 0.678-0.211 0.9-0.856 0.9z"></path>
<path fill="#4e84c4" d="M4.667 11.667c0-0.389 0.2-0.656 0.589-0.656h2.744c0.389 0 0.622 0.233 0.622 0.656v14.333c0 0.589-0.256 0.811-0.811 0.811h-2.3c-0.589 0-0.844-0.222-0.844-0.811v-14.333z"></path>
<path fill="#4e84c4" d="M62.511 11.667c0-0.389 0.2-0.656 0.589-0.656h2.756c0.389 0 0.622 0.233 0.622 0.656v14.333c0 0.589-0.256 0.811-0.811 0.811h-2.3c-0.589 0-0.844-0.222-0.844-0.811v-14.333z"></path>
<path fill="#4e84c4" d="M26.056 26.811h-2.344c-0.589 0-0.778-0.289-0.778-0.844v-8.844c0-1.789-0.489-3.056-2.467-3.056-1.267 0-2.833 0.689-3.833 1.567v10.367c0 0.556-0.233 0.811-0.778 0.811h-2.378c-0.489 0-0.778-0.256-0.778-0.778v-14.2c0-0.522 0.233-0.811 0.811-0.811h2.111c0.456 0 0.744 0.133 0.778 0.622l0.033 0.867c1.5-1.2 3.378-1.889 5.267-1.889 3.644 0 5.133 2.278 5.133 5.822v9.533c0 0.544-0.189 0.833-0.778 0.833z"></path>
<path fill="#4e84c4" d="M37.644 6.578c0-1.322-1.067-2.389-2.389-2.389s-2.389 1.067-2.389 2.389c0 1.322 1.067 2.389 2.389 2.389 1.322-0.011 2.389-1.078 2.389-2.389z"></path>
<path fill="#4e84c4" d="M41.044 11.011c0.389 0 0.622 0.133 0.622 0.556v2.289c0 0.389-0.256 0.622-0.656 0.622h-3.767v11.522c0 0.589-0.256 0.811-0.844 0.811h-2.267c-0.589 0-0.844-0.222-0.844-0.811v-11.522h-3.767c-0.389 0-0.656-0.233-0.656-0.622v-2.289c0-0.422 0.233-0.556 0.622-0.556h11.556z"></path>
<path fill="#4e84c4" d="M78 6.578c0-1.322-1.067-2.389-2.389-2.389s-2.389 1.067-2.389 2.389c0 1.322 1.067 2.389 2.389 2.389 1.322-0.011 2.389-1.078 2.389-2.389z"></path>
<path fill="#4e84c4" d="M81.4 11.011c0.389 0 0.622 0.133 0.622 0.556v2.289c0 0.389-0.256 0.622-0.656 0.622h-3.767v11.522c0 0.589-0.256 0.811-0.844 0.811h-2.267c-0.589 0-0.844-0.222-0.844-0.811v-11.522h-3.767c-0.389 0-0.656-0.233-0.656-0.622v-2.289c0-0.422 0.233-0.556 0.622-0.556h11.556z"></path>
<path fill="#4e84c4" d="M82.478 24.611c0.633 0 1.167 0.5 1.167 1.156 0 0.667-0.533 1.167-1.167 1.167s-1.167-0.5-1.167-1.167c-0.011-0.656 0.522-1.156 1.167-1.156zM82.478 26.756c0.533 0 0.956-0.422 0.956-1 0-0.556-0.411-0.978-0.956-0.978s-0.956 0.422-0.956 0.978c-0.011 0.578 0.411 1 0.956 1zM82.022 25.089h0.522c0.322 0 0.478 0.122 0.478 0.389 0 0.244-0.156 0.344-0.356 0.367l0.389 0.6h-0.222l-0.367-0.578h-0.222v0.578h-0.211v-1.356zM82.233 25.689h0.222c0.189 0 0.356-0.011 0.356-0.222 0-0.178-0.156-0.211-0.3-0.211h-0.278v0.433z"></path>
</svg>
