<?xml version="1.0" encoding="utf-8"?>
<!-- Generated by IcoMoon.io -->
<!DOCTYPE svg PUBLIC "-//W3C//DTD SVG 1.1//EN" "http://www.w3.org/Graphics/SVG/1.1/DTD/svg11.dtd">
<svg version="1.1" xmlns="http://www.w3.org/2000/svg" xmlns:xlink="http://www.w3.org/1999/xlink" width="53" height="32" viewBox="0 0 53 32">
<path fill="#212121" d="M43.778 23.704c-0.346 0-0.667-0.247-0.667-0.667s0.321-0.667 0.667-0.667c0.346 0 0.667 0.247 0.667 0.667s-0.321 0.667-0.667 0.667v0zM43.778 22.543c-0.272 0-0.494 0.173-0.494 0.494 0 0.296 0.198 0.494 0.494 0.494 0.247 0 0.469-0.198 0.469-0.494 0-0.321-0.222-0.494-0.469-0.494v0zM43.654 23.383v0.025h-0.148v-0.691h0.272c0.148 0 0.296 0 0.296 0.173 0 0.148-0.074 0.173-0.173 0.173l0.173 0.321h-0.173l-0.173-0.296h-0.074v0.296zM43.778 22.963c0.099 0 0.148-0.025 0.148-0.123 0-0.049-0.099-0.049-0.148-0.049h-0.123v0.173h0.123z"></path>
<path fill="#212121" d="M26.395 10.444v0c0.864 0.049 1.457 0.494 1.827 1.161 0.617-0.839 1.506-1.185 2.395-1.086 0.173 0.025 0.346 0.074 0.494 0.123 0.444 0.148 0.815 0.42 1.136 0.815 0.272 0.42 0.444 0.938 0.346 1.58-0.025 0.173-0.074 0.395-0.148 0.593-0.074 0.173-0.123 0.346-0.173 0.494s-0.099 0.346-0.173 0.568c-0.173 0.765-0.395 1.58-0.543 2.37 0.37-0.148 0.741-0.247 1.086-0.321h0.025c0.148-0.025 0.272-0.025 0.42-0.025-0.148-0.716-0.173-1.481-0.173-2.296v-0.025c0-0.494 0.049-0.938 0.123-1.358 0.074-0.444 0.148-0.815 0.296-1.185 0-0.025 0.025-0.074 0.049-0.099 0.025-0.099 0.074-0.173 0.148-0.272 0.074-0.123 0.148-0.222 0.222-0.321 0.469-0.494 1.16-0.79 1.852-0.691 0.025 0 0.074 0 0.099 0.025 0.099-0.198 0.222-0.395 0.395-0.593 0.247-0.321 0.519-0.642 0.84-0.938s0.716-0.593 1.16-0.815v0h0.049c0.099-0.049 0.173-0.099 0.272-0.123 0.123-0.049 0.222-0.074 0.321-0.099 0.642-0.123 1.21 0.123 1.58 0.543 0.049 0.049 0.074 0.074 0.099 0.123 0.074 0.099 0.123 0.173 0.173 0.296s0.074 0.198 0.099 0.321c0.099 0.469-0.025 1.012-0.37 1.432 0.272 0.123 0.519 0.296 0.765 0.543 0.025 0.049 0.049 0.074 0.074 0.099 0.148 0.173 0.247 0.346 0.346 0.543 0.025 0.049 0.025 0.099 0.049 0.123v0.025c0 0 0 0.025 0.025 0.049 0.025 0.099 0.049 0.173 0.074 0.247s0.049 0.173 0.074 0.321c0 0.025 0 0.025 0 0.049 0.049 0.173 0.074 0.346 0.099 0.519 0.593-1.161 1.309-2.148 2.025-2.741h0.025c0.938-0.79 1.16-0.988 2.272-0.198 0.593 0.395 1.136 0.889 1.605 1.481 0.469 0.543 0.864 1.185 1.235 1.901 1.802 3.457 2.272 8.444 0.765 12.346-0.494 1.259-0.938 1.457-1.926 1.062h-0.025c-0.173-0.074-0.272-0.148-0.444-0.198-0.049-0.025-0.099-0.049-0.247-0.148h-0.025c-0.37-0.173-1.309-0.667-1.63-0.864-1.111-0.716-0.938-1.111-0.568-2 0.049-0.074 0.074-0.173 0.099-0.173 0.074-0.198 0.148-0.444 0.198-0.691 0.074-0.247 0.148-0.494 0.173-0.765 0.198-1.012 0.346-2.173 0.321-3.383l-1.136 0.222c0 0.395 0.025 0.79 0.074 1.16 0.148 1.407-0.173 1.531-1.21 1.975l-0.099 0.049c-0.42 0.173-0.593 0.296-0.864 0.42-0.296 0.173-0.296 0.173-0.494 0.247-0.617 0.321-1.136 0.272-1.605-0.173-0.272-0.272-0.444-0.667-0.494-1.235-0.049-0.469-0.049-0.988-0.025-1.506-0.691 0.568-1.531 0.889-2.519 0.889h-0.025c-1.136 0-2.025-0.37-2.691-1.037-0.222 0.296-0.543 0.568-0.988 0.741 0 0-0.025 0.025-0.049 0.025h-0.025c0 0.025-0.025 0.025-0.049 0.025-0.173 0.074-0.321 0.123-0.469 0.148-0.173 0.049-0.321 0.099-0.494 0.148-0.864 0.173-1.778 0.272-2.494 0.296-0.889 0.049-1.457-0.198-1.852-0.716-0.198-0.222-0.321-0.494-0.42-0.815-0.025 0.025-0.025 0.049-0.025 0.074-0.272 0.568-0.716 0.914-1.185 0.938-0.074 0-0.123 0-0.148-0.025-0.173 0-0.296-0.049-0.444-0.148-0.123-0.049-0.198-0.123-0.296-0.198-0.198-0.222-0.395-0.543-0.519-1.037l-0.049-0.148c-0.148-0.543-0.395-1.383-0.593-2.296l-0.815 0.173c-0.198 0.963-0.42 1.827-0.568 2.42l-0.148 0.198-0.025 0.049c0 0.025 0 0.074-0.025 0.099 0 0.049-0.025 0.099-0.049 0.148-0.025 0.099-0.049 0.148-0.074 0.198-0.272 0.617-0.716 0.938-1.21 0.963-0.074 0-0.148 0-0.173 0-0.049 0-0.099-0.025-0.123-0.025-0.123-0.025-0.222-0.074-0.346-0.148-0.123-0.049-0.198-0.148-0.296-0.222l-0.049-0.049c-0.074 1.432-0.346 2.741-0.84 3.901s-0.765 1.506-1.827 1.062c-0.198-0.123-0.37-0.222-0.593-0.444l-0.099-0.074-0.321-0.272c-0.173-0.173-0.37-0.321-0.543-0.469-0.864-0.765-0.815-1.012-0.519-1.778 0.025-0.074 0.049-0.123 0.074-0.198 0-0.025 0-0.049 0-0.074 0.074-0.198 0.123-0.42 0.173-0.617 0.049-0.247 0.099-0.494 0.123-0.691 0.148-0.864 0.198-1.778 0.148-2.667l-1.062 0.198c0.025 0.173 0.049 0.37 0.049 0.519 0.025 0.173 0.025 0.173 0.025 0.198 0.074 0.444 0.099 0.691-0.148 1.086h0.025c-0.272 0.444-0.543 0.494-1.086 0.642l-0.099 0.049c-0.025 0-0.049 0-0.099 0-0.198 0.074-0.444 0.148-0.691 0.198-0.272 0.099-0.543 0.173-0.815 0.247 0.469 0.593 0.938 1.235 1.333 1.827 0.173 0.272 0.272 0.543 0.37 0.815 0.148 0.469 0.173 0.938 0.074 1.383-0.123 0.494-0.42 0.938-0.889 1.235-0.173 0.123-0.346 0.198-0.519 0.247-0.79 0.247-1.654 0-2.444-0.593-0.148-0.099-0.247-0.173-0.395-0.296-0.123-0.123-0.247-0.247-0.37-0.37v-0.025c-0.025 0-0.025-0.025-0.049-0.049-0.815-1.012-1.531-2.049-2.272-3.21-0.123-0.173-0.222-0.37-0.346-0.543 0 0.815 0 1.679-0.025 2.519v0.543c0.025 0.395-0.074 0.716-0.222 0.988-0.222 0.395-0.593 0.617-1.037 0.667h-0.049c-0.494 0.025-0.938-0.198-1.284-0.642 0 0-0.025-0.025-0.025-0.049-0.049-0.074-0.099-0.148-0.148-0.198s-0.074-0.123-0.099-0.173c-0.025-0.025-0.025-0.049-0.025-0.049l-0.025-0.025c-0.494-1.086-0.889-2.79-1.16-4.741-0.074-0.395-0.123-0.79-0.173-1.16-0.049-0.42-0.074-0.815-0.123-1.185-0.148-1.975-0.173-4.074-0.099-6.173 0.025-0.469 0.049-0.864 0.074-1.21 0.049-0.37 0.074-0.79 0.123-1.185v-0.049c0.049-0.346 0.074-0.469 0.074-0.543 0.173-1.481 0.173-1.654 1.185-2.099 0.173-0.099 0.469-0.247 0.741-0.42 0.296-0.173 0.568-0.321 0.815-0.469 0.617-0.321 1.136-0.469 1.58-0.37 0.79 0.173 1.111 0.741 0.963 1.778h-0.025c-0.025 0.321-0.074 0.667-0.123 1.012-0.099 0.642-0.173 1.309-0.247 2 0.346-0.42 0.667-0.839 0.988-1.358 0.543-0.815 1.086-1.778 1.63-2.79 0.519-0.988 1.407-1.432 2.198-1.432 0.173 0 0.346 0.025 0.494 0.049 0.173 0.049 0.321 0.099 0.469 0.173 0.123 0.049 0.198 0.099 0.272 0.148 0.79 0.519 1.062 1.259 1.037 2.074v0.025c-0.025 0.642-0.222 1.284-0.494 1.802-0.148 0.272-0.272 0.519-0.42 0.741-0.074 0.123-0.173 0.222-0.247 0.37 0.37-0.321 0.593-0.494 1.012-0.519 0.42-0.049 0.691 0.049 1.136 0.272 0.667 0.346 1.259 0.79 1.802 1.309 0.519 0.519 0.963 1.136 1.383 1.778 0.123 0.173 0.198 0.395 0.321 0.593 0-0.272 0.025-0.543 0.074-0.815 0.074-0.395 0.173-0.741 0.321-1.062 0.173-0.37 0.42-0.691 0.765-0.914 0.346-0.247 0.79-0.395 1.259-0.37h0.049c0.963 0.049 1.556 0.568 1.926 1.383 0.173 0.444 0.296 0.938 0.321 1.506h0.099v-0.049c0.025-0.716 0.148-1.358 0.42-1.877 0.37-0.716 0.963-1.136 1.852-1.161 0-0.049 0.049-0.049 0.099-0.049v0 0zM10.395 18.988c0-0.123 0-0.198 0.025-0.296 0.025-0.469 0.074-0.938 0.173-1.432 0.272-1.778 0.839-3.778 1.728-5.309-0.741 0.815-1.506 1.506-2.321 2.123-0.296 0.222-0.568 0.42-0.815 0.568-0.247 0.173-0.519 0.346-0.815 0.519-0.198 0.148-0.444 0.247-0.642 0.37 0.296 0.42 0.617 0.815 0.938 1.259 0.593 0.815 1.161 1.531 1.728 2.198v0z"></path>
<path fill="#fff" d="M26.37 10.716v0c0.79 0.025 1.284 0.469 1.556 1.136 0.247 0.543 0.346 1.259 0.321 2.049v0.099c-0.074 1.704-0.568 3.704-0.84 4.741l-0.025 0.173-0.025 0.049c0 0.025 0 0.049 0 0.049-0.025 0.049-0.049 0.123-0.074 0.173-0.025 0.074-0.025 0.123-0.049 0.148-0.173 0.444-0.494 0.667-0.815 0.667-0.025 0.025-0.074 0-0.099 0-0.099 0-0.173-0.025-0.272-0.099-0.074-0.025-0.148-0.074-0.173-0.148-0.173-0.148-0.296-0.42-0.42-0.815l-0.025-0.173c-0.173-0.617-0.469-1.63-0.691-2.691l-1.556 0.346c-0.198 1.062-0.469 2.049-0.617 2.691l-0.049 0.148c0 0.025 0 0.049-0.025 0.049v0.025c0 0.025 0 0.025 0 0.049-0.025 0.074-0.049 0.123-0.049 0.173-0.025 0.049-0.049 0.123-0.074 0.148-0.198 0.444-0.494 0.667-0.815 0.691-0.049 0-0.074 0-0.099 0-0.123-0.025-0.198-0.049-0.296-0.099-0.074-0.049-0.123-0.099-0.173-0.148v-0.025h-0.025c-0.148-0.148-0.272-0.444-0.37-0.815-0.025-0.123 0 0-0.173-0.691-0.074-0.272-0.148-0.568-0.198-0.914-0.272-1.136-0.543-2.568-0.543-3.802 0-0.346 0.025-0.691 0.099-1.012 0.049-0.346 0.148-0.667 0.247-0.938 0.148-0.296 0.346-0.543 0.617-0.741s0.593-0.296 0.988-0.296h0.049c0.765 0.049 1.235 0.469 1.531 1.136 0.198 0.494 0.296 1.086 0.296 1.778l0.988 0.025c0-0.049 0-0.123 0-0.173-0.025-0.123-0.025-0.222 0-0.346 0-0.642 0.123-1.235 0.37-1.679 0.272-0.568 0.765-0.914 1.457-0.914-0.025-0.025 0.025-0.025 0.049-0.025v0z"></path>
<path fill="#212121" d="M26.37 11.432v0c-0.049 0-0.074 0-0.074 0-0.395 0-0.642 0.198-0.815 0.519-0.173 0.346-0.272 0.815-0.296 1.358 0 0.099 0 0.198 0 0.296 0 0.123 0.025 0.247 0.025 0.37 0 0.148 0.025 0.272 0.025 0.395l0.025 0.173h-0.173l-2.222-0.074h-0.173v-0.222l0.025-0.099c0-0.074 0-0.123 0-0.173 0.025-0.667-0.049-1.259-0.222-1.679s-0.469-0.667-0.864-0.691h-0.049c-0.222 0-0.444 0.074-0.593 0.198-0.123 0.099-0.198 0.247-0.296 0.42-0.074 0.173-0.148 0.395-0.173 0.617-0.074 0.296-0.099 0.642-0.099 1.012 0 1.111 0.222 2.395 0.494 3.457 0.074 0.346 0.148 0.691 0.222 0.988 0.099 0.395 0.173 0.568 0.198 0.79 0.074 0.247 0.148 0.444 0.198 0.494 0 0 0 0 0.025 0s0.074-0.099 0.123-0.198c0.025-0.049 0.049-0.099 0.049-0.148 0.025-0.049 0.049-0.099 0.049-0.148l0.074-0.222c0.173-0.716 0.494-1.827 0.667-2.988l0.025-0.123 0.123-0.025 2.568-0.593 0.148-0.049 0.025 0.173c0.198 1.235 0.568 2.494 0.79 3.235l0.049 0.148c0.074 0.247 0.148 0.42 0.198 0.494 0 0.025 0.025 0.025 0.025 0.025 0.025 0 0.074-0.099 0.099-0.198 0.025-0.049 0.049-0.099 0.049-0.123 0.025-0.049 0.049-0.099 0.049-0.173l0.025-0.049-0.025-0.099c0.272-1.037 0.765-2.988 0.815-4.593v-0.099c0.025-0.667-0.049-1.284-0.247-1.728-0.173-0.395-0.444-0.642-0.864-0.667v0z"></path>
<path fill="#fff" d="M16.247 15.21c-0.025-0.074-0.049-0.123-0.074-0.173-0.272-0.716-0.642-1.383-1.136-2-0.025 0.074-0.025 0.148-0.049 0.198-0.123 0.494-0.173 1.086-0.222 1.778l1.481 0.198zM15.531 10.296c0.617 0.321 1.161 0.741 1.679 1.235 0.494 0.494 0.938 1.062 1.309 1.679 1.877 3.136 2.222 7.778 0.84 10.889-0.37 0.84-0.543 1.111-1.235 0.815-0.173-0.074-0.296-0.173-0.494-0.37l-0.074-0.049-0.346-0.296c-0.025 0-0.025 0-0.049-0.025-0.148-0.123-0.296-0.247-0.519-0.444-0.617-0.519-0.568-0.716-0.37-1.284 0.025-0.074 0.049-0.173 0.074-0.222v-0.025c0.074-0.222 0.123-0.469 0.173-0.691 0.049-0.198 0.099-0.469 0.148-0.716 0.173-1.086 0.198-2.173 0.123-3.284l-1.926 0.395c0.025 0.321 0.049 0.642 0.099 0.963l0.025 0.198c0.049 0.321 0.074 0.494-0.099 0.765s-0.395 0.321-0.815 0.444l-0.099 0.025h-0.025c-0.222 0.074-0.494 0.148-0.765 0.222-0.346 0.099-0.691 0.198-1.086 0.296-0.815 0.173-1.086 0.173-1.235-0.494-0.025-0.123-0.025-0.247-0.025-0.42 0-0.049 0-0.099 0-0.173v-0.025c-0.025-0.37-0.025-0.815 0-1.235h0.025c0.025-0.444 0.074-0.889 0.148-1.383 0.395-2.444 1.358-5.309 2.815-6.593 0.321-0.272 0.494-0.42 0.815-0.469 0.296 0.025 0.519 0.074 0.889 0.272v0 0z"></path>
<path fill="#212121" d="M15.185 10.963v0c-0.222-0.123-0.37-0.173-0.469-0.173-0.099 0.025-0.173 0.123-0.395 0.272-1.333 1.161-2.222 3.827-2.568 6.148-0.074 0.469-0.123 0.889-0.173 1.309-0.025 0.444-0.025 0.815-0.025 1.16v0.025c0.025 0.074 0.025 0.148 0.025 0.198 0 0.123 0 0.173 0 0.222 0 0.025 0.099 0 0.321-0.049 0.37-0.099 0.716-0.198 1.037-0.296 0.272-0.099 0.543-0.148 0.815-0.222l0.099-0.025c0.222-0.074 0.321-0.099 0.346-0.123s0-0.123-0.025-0.272c0-0.074-0.025-0.173-0.025-0.222-0.049-0.37-0.074-0.741-0.099-1.086l-0.025-0.198v-0.198l-0.025-0.148 0.148-0.025 3.062-0.617 0.148-0.049 0.049 0.173c0.198 1.358 0.173 2.765-0.025 4.099-0.049 0.247-0.099 0.494-0.173 0.765-0.049 0.247-0.099 0.494-0.148 0.741-0.049 0.123-0.074 0.198-0.099 0.296-0.074 0.198-0.099 0.247 0.173 0.469 0.173 0.173 0.37 0.321 0.543 0.494l0.321 0.272 0.099 0.074c0.148 0.123 0.247 0.198 0.321 0.222 0.025 0.025 0.074-0.099 0.222-0.42 1.284-2.914 0.938-7.259-0.815-10.198-0.346-0.568-0.741-1.111-1.16-1.531-0.444-0.444-0.963-0.815-1.481-1.086v0zM17.21 15.852l0.049 0.222-0.222-0.049-2.889-0.346h-0.148v-0.173c0-0.938 0.099-1.778 0.247-2.42 0.025-0.148 0.074-0.247 0.099-0.37 0.049-0.148 0.099-0.247 0.123-0.346l0.025-0.025c0.173-0.42 0.272-0.543 0.494-0.469 0.099 0.049 0.173 0.148 0.296 0.272l0.074 0.099c0.667 0.765 1.16 1.605 1.506 2.494 0.074 0.173 0.123 0.37 0.173 0.519 0.074 0.222 0.148 0.395 0.173 0.593v0z"></path>
<path fill="#fff" d="M3.21 8.963c0.123-1.259 0.148-1.407 0.914-1.753 0.222-0.123 0.494-0.247 0.79-0.42 0.272-0.173 0.568-0.321 0.815-0.469 0.519-0.272 0.938-0.42 1.259-0.346 0.519 0.148 0.716 0.519 0.617 1.259-0.049 0.346-0.099 0.691-0.148 1.037-0.148 1.062-0.272 2.173-0.42 3.333 0.099-0.074 0.198-0.148 0.296-0.247 0.593-0.593 1.136-1.309 1.704-2.123 0.543-0.815 1.086-1.778 1.654-2.815 0.444-0.815 1.136-1.185 1.778-1.185 0.148 0 0.272 0.025 0.395 0.049 0.148 0.025 0.247 0.074 0.395 0.148 0.074 0.025 0.148 0.074 0.198 0.123 0.642 0.42 0.839 1.012 0.815 1.679 0 0.568-0.198 1.136-0.469 1.654-0.123 0.247-0.247 0.494-0.37 0.667-1.086 1.63-2.395 2.963-3.753 4-0.272 0.222-0.543 0.42-0.79 0.568-0.247 0.173-0.519 0.346-0.815 0.494-0.37 0.222-0.741 0.444-1.086 0.617 0.37 0.519 0.79 1.086 1.259 1.679 0.642 0.815 1.284 1.63 1.901 2.395 0.074 0.074 0.173 0.198 0.346 0.395 0.667 0.765 2.025 2.296 2.864 3.654 0.148 0.222 0.247 0.469 0.321 0.691 0.123 0.395 0.173 0.79 0.074 1.136-0.099 0.395-0.321 0.716-0.691 0.963-0.148 0.074-0.296 0.148-0.444 0.173-0.642 0.198-1.383 0-2.049-0.494-0.123-0.099-0.222-0.173-0.37-0.296-0.123-0.123-0.198-0.222-0.321-0.346-0.025 0-0.025-0.025-0.025-0.025-0.815-0.988-1.531-2.025-2.247-3.16-0.395-0.617-0.79-1.284-1.16-2-0.025 1.407-0.025 2.79-0.025 4.198l-0.025 0.543v0.025c0.025 0.272-0.049 0.519-0.148 0.741-0.173 0.247-0.395 0.42-0.691 0.444h-0.025c-0.321 0.025-0.667-0.148-0.889-0.469-0.025-0.025-0.025-0.025-0.025-0.025-0.049-0.074-0.074-0.123-0.123-0.173-0.025-0.049-0.049-0.099-0.074-0.148 0-0.025-0.025-0.025-0.025-0.049-0.494-1.037-0.864-2.741-1.136-4.667-0.074-0.37-0.123-0.765-0.173-1.136-0.049-0.42-0.099-0.815-0.123-1.16-0.173-1.951-0.198-4.049-0.099-6.123 0.025-0.444 0.049-0.815 0.074-1.185 0.049-0.395 0.074-0.79 0.123-1.185v-0.049c0.123-0.346 0.123-0.494 0.148-0.617v0z"></path>
<path fill="#212121" d="M4.444 7.901c-0.395 0.173-0.42 0.247-0.494 1.136 0 0.148-0.025 0.37-0.049 0.543v0.049c-0.049 0.395-0.099 0.79-0.123 1.161-0.025 0.42-0.049 0.815-0.074 1.185-0.123 2.025-0.074 4.099 0.099 6 0.025 0.395 0.074 0.79 0.123 1.136 0.049 0.395 0.099 0.765 0.148 1.136 0.272 1.877 0.667 3.506 1.111 4.469l0.025 0.025c0 0.049 0.025 0.074 0.049 0.099 0.025 0.049 0.049 0.074 0.049 0.099 0.099 0.148 0.198 0.198 0.272 0.173h0.025c0.025 0 0.074-0.025 0.099-0.074 0.049-0.074 0.074-0.173 0.074-0.321v-0.593c0-2.198 0.025-4.37 0.099-6.494l0.296-0.049c0.815 1.531 1.481 2.79 2.198 3.951 0.691 1.136 1.407 2.099 2.173 3.062 0.099 0.099 0.173 0.198 0.296 0.296 0.099 0.099 0.173 0.173 0.272 0.222 0.494 0.37 0.988 0.519 1.383 0.42 0.099-0.025 0.173-0.074 0.247-0.123 0.198-0.123 0.321-0.296 0.37-0.494 0.049-0.222 0.025-0.494-0.049-0.741-0.074-0.173-0.148-0.346-0.247-0.519-0.815-1.309-2.123-2.79-2.79-3.556-0.148-0.173-0.272-0.321-0.346-0.395-0.667-0.815-1.333-1.63-1.926-2.42-0.617-0.815-1.185-1.556-1.679-2.247l-0.099-0.173 0.148-0.074 0.321-0.173c0.42-0.222 0.84-0.469 1.309-0.741 0.247-0.173 0.494-0.321 0.765-0.494s0.519-0.37 0.79-0.543c1.284-0.988 2.543-2.247 3.556-3.802 0.123-0.173 0.222-0.37 0.346-0.593 0.173-0.42 0.37-0.889 0.395-1.333 0-0.42-0.123-0.79-0.494-1.012-0.025-0.049-0.099-0.074-0.148-0.099-0.074-0.025-0.148-0.049-0.198-0.074-0.074-0.025-0.148-0.025-0.222-0.025-0.395 0-0.839 0.222-1.136 0.79-0.568 1.086-1.136 2.049-1.704 2.889-0.568 0.864-1.136 1.63-1.778 2.247-0.222 0.222-0.494 0.444-0.716 0.642-0.247 0.173-0.494 0.346-0.765 0.494l-0.272 0.173 0.025-0.321c0.173-1.63 0.37-3.185 0.568-4.691 0.049-0.346 0.074-0.667 0.123-1.012 0.049-0.272 0.025-0.42-0.049-0.444-0.123-0.025-0.37 0.074-0.716 0.272-0.247 0.148-0.519 0.296-0.815 0.444-0.321 0.222-0.593 0.395-0.864 0.519v0 0z"></path>
<path fill="#fff" d="M32.025 13.259c-0.049 0.173-0.123 0.37-0.148 0.519-0.074 0.222-0.123 0.444-0.173 0.593-0.272 1.037-0.543 2.247-0.741 3.185l-0.025 0.074c0.247-0.123 0.494-0.222 0.741-0.321 0.346-0.148 0.716-0.222 1.086-0.296h0.025c0.123-0.025 0.198-0.049 0.321-0.049s0.222 0.025 0.321 0.049c0.025 0 0.025 0.025 0.049 0.025 0.494 0.148 0.815 0.543 0.938 0.988 0 0.025 0 0.025 0 0.049 0.025 0.074 0.049 0.173 0.049 0.247 0 0.099 0 0.198 0 0.296-0.074 0.519-0.42 1.012-1.086 1.284 0 0-0.025 0-0.025 0.025h-0.025c0 0-0.025 0-0.049 0-0.148 0.074-0.296 0.123-0.444 0.148-0.173 0.049-0.321 0.099-0.494 0.123-0.84 0.198-1.728 0.272-2.42 0.321-0.741 0.025-1.16-0.173-1.481-0.543-0.272-0.346-0.395-0.815-0.494-1.383-0.049-0.296-0.074-0.568-0.099-0.889-0.025-0.296-0.025-0.617-0.025-0.938-0.025-1.63 0.148-3.358 0.247-3.877 0-0.025 0-0.025 0.025-0.049 0.049-0.173 0.099-0.346 0.148-0.494 0.074-0.173 0.148-0.346 0.222-0.494 0.494-0.815 1.284-1.136 2.049-1.062 0.148 0.025 0.296 0.074 0.444 0.123 0.346 0.123 0.667 0.321 0.889 0.642 0.198 0.321 0.346 0.741 0.247 1.235 0.025 0.148-0.025 0.296-0.074 0.469v0z"></path>
<path fill="#212121" d="M31.309 13.037v0c0.049-0.148 0.074-0.272 0.099-0.37 0.049-0.321-0.025-0.543-0.173-0.741-0.123-0.173-0.296-0.296-0.494-0.37-0.099-0.025-0.173-0.049-0.272-0.074-0.494-0.074-0.963 0.148-1.309 0.716-0.074 0.099-0.123 0.222-0.173 0.346-0.049 0.148-0.099 0.296-0.148 0.469-0.123 0.494-0.247 2.123-0.222 3.704 0 0.321 0 0.617 0.025 0.914s0.049 0.568 0.099 0.815c0.074 0.494 0.148 0.815 0.296 1.037 0.173 0.198 0.444 0.296 0.864 0.272 0.691-0.049 1.506-0.123 2.296-0.296 0.173-0.025 0.321-0.074 0.469-0.123 0.173-0.049 0.296-0.099 0.444-0.148h0.025c0.395-0.148 0.568-0.42 0.593-0.691 0-0.049 0.025-0.123 0-0.173 0-0.049 0-0.123-0.025-0.173-0.049-0.222-0.198-0.42-0.444-0.494-0.049 0-0.099 0-0.173-0.025-0.049 0-0.123 0.025-0.173 0.025-0.321 0.074-0.642 0.148-0.938 0.272-0.321 0.123-0.617 0.272-0.938 0.469-0.395 0.272-0.642 0.272-0.79 0.025-0.099-0.173-0.099-0.543 0-1.062 0.173-0.914 0.469-2.148 0.741-3.235 0.074-0.198 0.123-0.42 0.173-0.593 0.025-0.148 0.099-0.321 0.148-0.494v0z"></path>
<path fill="#fff" d="M45.802 15.556c-0.025-0.123-0.049-0.222-0.074-0.37-0.173-0.741-0.42-1.457-0.716-2.099-0.074 0.123-0.123 0.222-0.173 0.346-0.222 0.519-0.42 1.185-0.543 1.926l1.506 0.198zM45.827 10.395c0 0 0.025 0 0 0 0.568 0.395 1.062 0.864 1.506 1.407s0.84 1.161 1.185 1.827c1.753 3.358 2.173 8.173 0.716 11.951-0.346 0.914-0.642 1.062-1.358 0.79-0.123-0.049-0.247-0.123-0.395-0.198-0.099-0.049-0.173-0.099-0.272-0.123l-0.025-0.025c-0.37-0.173-1.284-0.642-1.556-0.815-0.79-0.494-0.667-0.79-0.42-1.432 0.049-0.074 0.074-0.173 0.099-0.198 0.099-0.222 0.148-0.469 0.222-0.716 0.074-0.272 0.148-0.519 0.173-0.79 0.272-1.235 0.395-2.642 0.346-4.049l-2.074 0.42c0 0.049 0 0.123 0 0.148 0 0.494 0.025 0.963 0.074 1.457 0.123 1.062-0.148 1.136-0.914 1.481l-0.099 0.049c-0.025 0-0.025 0.025-0.049 0.025-0.346 0.148-0.568 0.272-0.864 0.42-0.123 0.074-0.272 0.148-0.469 0.247-0.444 0.198-0.815 0.198-1.111-0.099-0.198-0.198-0.321-0.494-0.37-0.938-0.049-0.469-0.049-0.963-0.025-1.481 0.049-0.519 0.123-1.086 0.222-1.654 0.568-2.889 2.074-6.222 3.63-7.506h0.025c0.79-0.617 0.963-0.79 1.802-0.198v0z"></path>
<path fill="#212121" d="M45.383 10.988c-0.346-0.222-0.444-0.173-0.815 0.148h-0.025c-1.457 1.161-2.815 4.321-3.383 7.062-0.099 0.519-0.148 1.062-0.198 1.556-0.025 0.494-0.025 0.938 0.025 1.383 0.025 0.247 0.074 0.42 0.148 0.494 0.025 0.025 0.099 0.025 0.222-0.049 0.222-0.123 0.346-0.173 0.469-0.222 0.321-0.173 0.543-0.272 0.938-0.469l0.099-0.049c0.42-0.173 0.543-0.222 0.494-0.765-0.049-0.494-0.074-0.988-0.074-1.506 0-0.099 0-0.198 0-0.296 0-0.123 0-0.198 0-0.321v-0.148l0.148-0.025 3.21-0.642 0.173-0.049v0.198c0.148 1.704 0 3.432-0.296 4.914-0.074 0.296-0.148 0.568-0.198 0.815-0.074 0.272-0.173 0.519-0.247 0.79-0.025 0.074-0.074 0.173-0.099 0.222-0.099 0.247-0.148 0.37 0.123 0.519 0.247 0.173 1.136 0.617 1.481 0.79l0.025 0.025c0.099 0.049 0.198 0.099 0.272 0.148 0.148 0.074 0.247 0.148 0.321 0.173 0.173 0.074 0.247 0 0.395-0.346 1.383-3.605 0.963-8.198-0.716-11.383-0.321-0.617-0.691-1.185-1.111-1.704-0.444-0.494-0.914-0.914-1.383-1.259v0zM46.667 16.173l0.025 0.198-0.198-0.025-2.914-0.321-0.173-0.025 0.025-0.148c0.148-1.037 0.395-2 0.716-2.716 0.074-0.148 0.148-0.272 0.198-0.395 0.074-0.148 0.148-0.247 0.222-0.346l0.025-0.049c0.198-0.272 0.296-0.395 0.444-0.42 0.173-0.025 0.272 0.123 0.42 0.395l0.025 0.025c0.444 0.79 0.765 1.704 0.988 2.667 0.049 0.198 0.074 0.395 0.123 0.568 0 0.222 0.049 0.42 0.074 0.593v0z"></path>
<path fill="#fff" d="M36.42 10c0.222-0.296 0.494-0.593 0.815-0.864 0.321-0.296 0.667-0.543 1.086-0.79 0.025 0 0.049-0.025 0.049-0.025 0.074-0.025 0.148-0.074 0.198-0.099 0.025 0 0.025 0 0.049 0 0.074-0.025 0.148-0.049 0.198-0.074 0.494-0.074 0.914 0.099 1.16 0.42 0.049 0.049 0.074 0.074 0.074 0.074 0 0.025 0.025 0.049 0.025 0.049 0.049 0.074 0.074 0.123 0.099 0.173 0.025 0.074 0.049 0.173 0.074 0.222 0.074 0.37-0.025 0.79-0.321 1.111-0.469 0.494-0.914 0.79-1.383 0.988-0.444 0.198-0.864 0.296-1.259 0.37-0.667 0.099-1.062-0.025-1.21-0.444-0.148-0.346 0-0.691 0.346-1.111v0z"></path>
<path fill="#212121" d="M37.728 9.654c-0.247 0.247-0.494 0.494-0.691 0.79-0.173 0.222-0.272 0.37-0.272 0.42 0 0 0.148 0 0.395-0.049 0.321-0.049 0.691-0.148 1.062-0.296 0.395-0.173 0.765-0.444 1.136-0.815 0.148-0.148 0.173-0.296 0.148-0.469 0-0.025 0-0.074-0.025-0.099 0-0.025-0.025-0.049-0.025-0.074-0.025 0-0.025-0.025-0.025-0.025-0.099-0.123-0.247-0.173-0.469-0.148-0.049 0-0.099 0.025-0.148 0.025-0.049 0.025-0.099 0.049-0.148 0.074-0.37 0.198-0.667 0.42-0.938 0.667v0z"></path>
<path fill="#fff" d="M41.062 11.877c0.025 0.099 0.049 0.173 0.099 0.272 0.025 0.123 0.049 0.198 0.074 0.296 0.099 0.494 0.148 1.111 0.148 1.778v0c0 1.58-0.321 3.037-0.988 4.074-0.716 1.16-1.778 1.877-3.16 1.877h-0.025c-1.481 0-2.469-0.741-3.062-1.901-0.543-1.086-0.765-2.494-0.765-4.049 0-0.025 0-0.049 0-0.074 0-0.469 0.049-0.864 0.099-1.21 0.074-0.395 0.173-0.765 0.272-1.111 0.049-0.123 0.099-0.198 0.148-0.296 0.074-0.099 0.148-0.173 0.198-0.247 0.37-0.395 0.914-0.617 1.457-0.543 0.074 0.025 0.123 0.025 0.173 0.049 0.346 0.074 0.667 0.272 0.864 0.593 0.198 0.296 0.321 0.691 0.247 1.185 0 0.099-0.025 0.148-0.049 0.247 0 0.025-0.025 0.049-0.025 0.049-0.049 0.173-0.099 0.395-0.148 0.617-0.025 0.247-0.074 0.519-0.074 0.839 0 1.062 0.049 2 0.198 2.642 0.123 0.469 0.296 0.741 0.568 0.765 0.346 0 0.543-0.272 0.691-0.741 0.173-0.667 0.198-1.605 0.198-2.667 0-0.222 0-0.395 0-0.494 0-0.123-0.025-0.198-0.049-0.346 0-0.123-0.025-0.198-0.049-0.321-0.123-0.667-0.247-1.432 0.494-2.074 0.099-0.099 0.222-0.173 0.346-0.222 0.272-0.148 0.593-0.173 0.914-0.123 0.296 0.074 0.617 0.222 0.864 0.494 0.123 0.173 0.222 0.321 0.321 0.519 0 0.074 0.025 0.099 0.025 0.123v0z"></path>
<path fill="#212121" d="M40.42 12.321c-0.025-0.099-0.049-0.173-0.074-0.222-0.074-0.148-0.148-0.247-0.198-0.346-0.148-0.148-0.296-0.222-0.469-0.247-0.148-0.049-0.296-0.025-0.444 0.049-0.049 0.025-0.123 0.074-0.148 0.123-0.444 0.37-0.321 0.889-0.247 1.383 0.049 0.148 0.074 0.247 0.074 0.37v0.025c0.025 0.148 0.025 0.222 0.049 0.37 0 0.148 0 0.296 0 0.519 0 1.136-0.025 2.099-0.222 2.84-0.222 0.815-0.642 1.284-1.432 1.284h-0.025c-0.691-0.025-1.086-0.519-1.284-1.309-0.173-0.741-0.222-1.704-0.222-2.815 0-0.37 0.049-0.691 0.099-0.963 0.049-0.296 0.123-0.519 0.148-0.741 0.025-0.049 0.025-0.123 0.025-0.148 0.049-0.321 0-0.519-0.123-0.691s-0.247-0.247-0.444-0.296c-0.025 0-0.049-0.025-0.074-0.025-0.296-0.049-0.593 0.099-0.815 0.296-0.025 0.049-0.074 0.099-0.099 0.148-0.049 0.074-0.074 0.123-0.099 0.148v0.025c-0.099 0.296-0.173 0.593-0.222 0.938-0.074 0.37-0.099 0.765-0.099 1.185 0 1.457 0.173 2.765 0.667 3.704s1.235 1.506 2.42 1.506h0.025c1.111 0 1.951-0.568 2.519-1.506 0.568-0.963 0.889-2.247 0.889-3.704 0-0.617-0.074-1.136-0.148-1.605 0.025-0.099 0-0.198-0.025-0.296v0z"></path>
</svg>
