<?xml version="1.0" encoding="utf-8"?>
<!-- Generated by IcoMoon.io -->
<!DOCTYPE svg PUBLIC "-//W3C//DTD SVG 1.1//EN" "http://www.w3.org/Graphics/SVG/1.1/DTD/svg11.dtd">
<svg version="1.1" xmlns="http://www.w3.org/2000/svg" xmlns:xlink="http://www.w3.org/1999/xlink" width="128" height="32" viewBox="0 0 128 32">
<path fill="#f05225" d="M1.822 2.756h12.578c0 4.178 0 8.4 0 12.578-4.178 0-8.4 0-12.578 0v-12.578z"></path>
<path fill="#80bb41" d="M15.689 2.756h12.578c0 4.178 0 8.4 0 12.578-4.178 0-8.4 0-12.578 0 0-4.178 0-8.356 0-12.578v0z"></path>
<path fill="#35a0da" d="M1.822 16.622c4.178 0 8.4 0 12.578 0 0 4.178 0 8.4 0 12.578h-12.578v-12.578z"></path>
<path fill="#fdb813" d="M15.689 16.622c4.178 0 8.4 0 12.578 0 0 4.178 0 8.4 0 12.578h-12.578c0-4.178 0-8.356 0-12.578v0z"></path>
<path fill="#787878" d="M57.067 7.733c0.533-0.089 1.156 0.089 1.511 0.533 0.444 0.489 0.489 1.2 0.178 1.778-0.356 0.622-1.111 0.889-1.822 0.756s-1.289-0.8-1.244-1.511c-0.044-0.8 0.622-1.467 1.378-1.556v0z"></path>
<path fill="#787878" d="M36.178 8.044c1.333 0 2.622 0 3.956 0 1.244 3.111 2.489 6.267 3.689 9.378 0.311 0.8 0.622 1.556 0.933 2.356 1.6-3.911 3.2-7.822 4.756-11.733 1.289 0 2.533 0 3.822 0 0 5.289 0 10.578 0 15.867-0.933 0-1.822 0-2.756 0 0-3.911 0-7.822 0-11.733 0-0.178 0-0.356 0-0.533-0.044 0.089-0.089 0.178-0.133 0.267-1.556 4-3.156 8-4.756 12-0.667 0.044-1.289 0-1.956 0-1.644-4-3.244-8-4.844-12-0.044-0.089-0.089-0.178-0.133-0.222-0.044 1.733 0 3.422 0 5.156 0 2.356 0 4.756 0 7.111-0.844 0-1.733 0-2.578 0 0-5.289 0-10.622 0-15.911v0z"></path>
<path fill="#787878" d="M64.533 12.533c1.333-0.356 2.711-0.356 4.044 0 0.267 0.089 0.533 0.178 0.756 0.311 0 0.889 0 1.733 0 2.622-0.889-0.667-2-1.111-3.111-0.933-0.889 0.089-1.733 0.533-2.267 1.244-0.667 0.889-0.844 2.089-0.711 3.156 0.089 0.844 0.444 1.689 1.111 2.267 0.667 0.622 1.644 0.844 2.533 0.756s1.733-0.489 2.444-1.022c0 0.8 0 1.644 0 2.444-1.111 0.667-2.444 0.844-3.733 0.756s-2.622-0.578-3.556-1.467c-1.022-0.978-1.6-2.4-1.644-3.822-0.044-1.467 0.222-2.978 1.067-4.222 0.756-0.978 1.867-1.733 3.067-2.089v0z"></path>
<path fill="#787878" d="M94.267 12.356c1.244-0.222 2.578-0.044 3.778 0.4 0 0.844 0 1.689 0 2.489-0.844-0.578-1.867-0.889-2.844-0.844-0.489 0-1.067 0.222-1.289 0.711-0.178 0.489-0.044 1.111 0.4 1.378 0.756 0.533 1.689 0.756 2.489 1.2 0.622 0.356 1.244 0.8 1.556 1.467 0.578 1.244 0.356 2.889-0.711 3.822-1.022 0.933-2.444 1.2-3.778 1.156-0.933-0.044-1.911-0.267-2.756-0.622 0-0.889 0-1.733 0-2.622 0.711 0.533 1.556 0.933 2.489 1.067 0.622 0.089 1.289 0.089 1.867-0.178 0.533-0.267 0.667-1.067 0.311-1.556-0.311-0.356-0.756-0.578-1.2-0.8-0.8-0.356-1.644-0.667-2.356-1.2-0.489-0.4-0.889-0.933-1.022-1.556-0.222-0.889-0.133-1.911 0.356-2.711 0.622-0.844 1.644-1.378 2.711-1.6v0z"></path>
<path fill="#787878" d="M75.467 12.711c0.756-0.444 1.689-0.489 2.533-0.222 0 0.889 0 1.822 0 2.711-0.533-0.356-1.2-0.489-1.822-0.444-0.756 0.089-1.378 0.667-1.689 1.378-0.356 0.711-0.4 1.556-0.4 2.311 0 1.822 0 3.644 0 5.422-0.889 0-1.778 0-2.667 0 0-3.778 0-7.6 0-11.378 0.889 0 1.778 0 2.667 0 0 0.667 0 1.289 0 1.956 0.267-0.622 0.667-1.333 1.378-1.733v0z"></path>
<path fill="#787878" d="M55.911 12.578c0.889 0 1.822 0 2.711 0 0 3.778 0 7.6 0 11.378-0.889 0-1.822 0-2.711 0 0-3.822 0-7.6 0-11.378v0z"></path>
<path fill="#787878" d="M89.244 15.2c-0.489-1.067-1.333-1.911-2.4-2.4-1.2-0.533-2.578-0.622-3.911-0.444-1.378 0.178-2.711 0.8-3.6 1.911-0.8 0.978-1.2 2.222-1.244 3.467-0.089 1.467 0.133 3.022 0.978 4.267 0.756 1.067 1.911 1.778 3.156 2.044 1.067 0.222 2.133 0.222 3.2 0 1.244-0.267 2.356-0.933 3.111-1.911 0.756-0.933 1.111-2.133 1.2-3.333 0.178-1.2 0.044-2.444-0.489-3.6zM86.622 20.444c-0.267 0.578-0.756 1.067-1.333 1.333-0.711 0.267-1.511 0.267-2.222 0.089-0.756-0.178-1.378-0.711-1.689-1.422-0.444-0.889-0.489-1.867-0.4-2.844 0.089-0.889 0.4-1.778 1.067-2.356 0.489-0.444 1.156-0.667 1.778-0.711 0.8-0.044 1.689 0.178 2.267 0.756 0.622 0.622 0.889 1.511 0.933 2.356 0.044 0.933 0 1.911-0.4 2.8z"></path>
<path fill="#787878" d="M111.067 15.556c-0.4-1.111-1.244-2.089-2.356-2.667-1.244-0.622-2.667-0.711-4.044-0.533-1.111 0.133-2.178 0.578-3.022 1.289-1.022 0.889-1.6 2.178-1.778 3.511s-0.133 2.711 0.444 3.956c0.533 1.2 1.556 2.222 2.756 2.667 1.2 0.489 2.578 0.533 3.822 0.311 1.289-0.222 2.533-0.889 3.333-1.956 0.844-1.111 1.244-2.489 1.244-3.867 0.044-0.933-0.044-1.867-0.4-2.711zM108.622 19.422c-0.089 0.578-0.311 1.2-0.711 1.689s-0.978 0.756-1.6 0.844c-0.667 0.089-1.333 0.044-1.956-0.222-0.667-0.267-1.156-0.844-1.422-1.511-0.311-0.8-0.4-1.644-0.311-2.489 0.044-0.8 0.311-1.644 0.844-2.267 0.489-0.578 1.244-0.933 2-0.933 0.756-0.044 1.6 0.133 2.178 0.622 0.533 0.444 0.844 1.111 0.978 1.822 0.133 0.8 0.133 1.6 0 2.444z"></path>
<path fill="#787878" d="M125.733 14.756v-2.222c-0.889 0-1.778 0-2.711 0 0-1.156 0-2.267 0-3.422-0.889 0.267-1.778 0.578-2.711 0.8 0 0.844 0 1.733 0 2.578-1.333 0-2.667 0-4 0 0-0.667-0.044-1.378 0.044-2.044 0.089-0.533 0.4-1.067 0.889-1.289 0.667-0.267 1.378-0.089 2 0.178 0-0.8 0-1.556 0-2.356-1.289-0.356-2.8-0.311-3.956 0.444-0.756 0.489-1.289 1.244-1.556 2.089-0.267 0.933-0.133 1.956-0.178 2.889-0.622 0-1.244 0-1.867 0 0 0.711 0 1.467 0 2.178 0.622 0 1.244 0 1.911 0 0 3.067 0 6.133 0 9.2 0.889 0 1.822 0 2.711 0 0-3.067 0-6.133 0-9.2 1.333 0 2.667 0 4 0 0 1.956 0 3.911 0 5.867 0 0.889 0.178 1.867 0.756 2.578 0.533 0.622 1.333 0.933 2.133 0.978 0.844 0.044 1.733-0.044 2.489-0.4v-2.222c-0.578 0.4-1.422 0.578-2.089 0.178-0.4-0.222-0.533-0.667-0.578-1.067-0.089-0.711-0.044-1.422-0.044-2.133 0-1.289 0-2.533 0-3.822 0.978 0.222 1.867 0.178 2.756 0.222z"></path>
</svg>
