<?xml version="1.0" encoding="utf-8"?>
<!-- Generated by IcoMoon.io -->
<!DOCTYPE svg PUBLIC "-//W3C//DTD SVG 1.1//EN" "http://www.w3.org/Graphics/SVG/1.1/DTD/svg11.dtd">
<svg version="1.1" xmlns="http://www.w3.org/2000/svg" xmlns:xlink="http://www.w3.org/1999/xlink" width="107" height="32" viewBox="0 0 107 32">
<path fill="#444" d="M92.111 18h-4.481l2.222-7.519 2.259 7.519zM101.593 27.63l-7.444-23.63h-7.222l-7.37 23.63h5.407l1.37-4.741h7.148l1.37 4.741h6.741zM77.963 27.63v-23.63h-9.37l-3.481 11.926-3.63-11.963h-9.407v23.63h5.222v-16.741l5.148 16.778h3.926l5.148-16.778v16.778h6.444zM43.704 19.407c0 3-0.407 4.889-2.37 4.889-2 0-2.333-1.926-2.333-4.889 0-2.926 0.333-4.926 2.333-4.926 2.037-0.037 2.37 1.963 2.37 4.926zM49.667 19.37c0-5.111-3.222-8.741-8.333-8.741-5.444 0-8.296 4.111-8.296 8.741 0 5.222 3.444 8.741 8.296 8.741 4.926 0 8.333-3.481 8.333-8.741zM30.593 27.63v-23.63h-9.37l-3.481 11.926-3.63-11.963h-9.37v23.63h5.222v-16.741l5.148 16.778h3.926l5.148-16.778v16.778h6.407z"></path>
</svg>
