<?xml version="1.0" encoding="utf-8"?>
<!-- Generated by IcoMoon.io -->
<!DOCTYPE svg PUBLIC "-//W3C//DTD SVG 1.1//EN" "http://www.w3.org/Graphics/SVG/1.1/DTD/svg11.dtd">
<svg version="1.1" xmlns="http://www.w3.org/2000/svg" xmlns:xlink="http://www.w3.org/1999/xlink" width="53" height="32" viewBox="0 0 53 32">
<path fill="#444" d="M10.481 18.907c-0.389 0-0.685 0.278-0.685 0.667s0.296 0.667 0.685 0.667c0.389 0 0.685-0.278 0.685-0.667 0-0.407-0.296-0.667-0.685-0.667v0 0 0zM10.481 20.037c-0.278 0-0.481-0.204-0.481-0.463 0-0.278 0.204-0.481 0.481-0.481s0.481 0.204 0.481 0.481c0 0.259-0.222 0.463-0.481 0.463v0 0 0z"></path>
<path fill="#444" d="M17.148 16.593h-3.333l0.37-5.796-2.167 5.796h-3.093l4.907-13.111h3.315l-0.389 5.889 2.204-5.889h3.111l-4.926 13.111z"></path>
<path fill="#444" d="M17.556 16.593l4.907-13.111h3.111l-4.926 13.111h-3.093z"></path>
<path fill="#444" d="M8.574 12.074c-4.333 5.093-8.407 11.852-4.815 14.963 3.5 3.019 7.87 1.241 10.852 0.037 2.981-1.185 35.926-15.5 35.926-15.5 0.315-0.167 0.259-0.352-0.148-0.259-0.167 0.037-35.852 9.722-35.852 9.722-4.537 1.278-9.704-1.5-5.963-8.963v0 0 0z"></path>
<path fill="#444" d="M10.593 19.611c0.093 0 0.167-0.056 0.167-0.185 0-0.167-0.111-0.222-0.296-0.222v0h-0.278v0.704h0.185v-0.278h0.037l0.167 0.296h0.204l-0.185-0.315zM10.481 19.5h-0.111v-0.167h0.093c0.056 0 0.111 0 0.111 0.074s-0.037 0.093-0.093 0.093v0 0 0z"></path>
<path fill="#444" d="M41.63 3.444c-0.389 0-0.685 0.278-0.685 0.667s0.296 0.667 0.685 0.667c0.389 0 0.685-0.278 0.685-0.667 0-0.407-0.296-0.667-0.685-0.667v0 0 0zM41.63 4.574c-0.278 0-0.481-0.204-0.481-0.463 0-0.278 0.204-0.481 0.481-0.481s0.481 0.204 0.481 0.481c0 0.259-0.204 0.463-0.481 0.463v0 0 0z"></path>
<path fill="#444" d="M41.741 4.148c0.093 0 0.167-0.056 0.167-0.185 0-0.167-0.111-0.222-0.296-0.222v0h-0.278v0.704h0.185v-0.296h0.037l0.167 0.296h0.204l-0.185-0.296zM41.63 4.037h-0.111v-0.167h0.093c0.056 0 0.111 0 0.111 0.074s-0.019 0.093-0.093 0.093v0 0 0z"></path>
<path fill="#444" d="M39.593 5.667l0.833-2.185h-9.463l-3.241 3.926 1.5-3.926h-3.13l-4.87 13.111h3.093l2.074-5.481 0.148 5.481 9.519-0.019 0.907-2.519h-3.63l1.185-3.185h2.981l0.926-2.444h-2.981l1.019-2.759h3.13zM29.593 15.722l-0.185-6.833 4.685-5.148-4.5 11.981z"></path>
</svg>
