<?xml version="1.0" encoding="utf-8"?>
<!-- Generated by IcoMoon.io -->
<!DOCTYPE svg PUBLIC "-//W3C//DTD SVG 1.1//EN" "http://www.w3.org/Graphics/SVG/1.1/DTD/svg11.dtd">
<svg version="1.1" xmlns="http://www.w3.org/2000/svg" xmlns:xlink="http://www.w3.org/1999/xlink" width="71" height="32" viewBox="0 0 71 32">
<path fill="#444" d="M52.667 2.938l-3.975 16.148h-1.556l-0.173 0.667h4.667l0.148-0.667h-2.346l4.025-16.148h0.173l0.815 16.815h0.815l9.235-16.815h0.198l-4.074 16.148h-2.296l-0.148 0.667h7.852l0.173-0.667h-2.346l4.025-16.148h1.481l0.148-0.667h-5.58l-6.617 12.173-0.543-12.173h-6.37l-0.148 0.667z"></path>
<path fill="#444" d="M1.926 2.864h2.074v16.272h-2.247v0.617h7.111v-0.593h-2.321v-7.284h1.259c5.481 0 7.457-2.79 7.457-4.938 0-2.296-1.506-4.667-6.346-4.667h-6.988v0.593zM6.543 2.864h0.741c3.531 0 5.21 0.296 5.21 3.951 0 2.914-0.79 4.444-5.037 4.444h-0.889v-8.395z"></path>
<path fill="#444" d="M42.247 2.272h0.543v17.481h-0.543v-17.481z"></path>
<path fill="#444" d="M37.753 19.753l0.346-4.889h-0.691c-0.691 3.877-1.827 4.296-5.284 4.296h-3.16v-8.099c2.593 0.025 3.679 0.37 3.852 3.161h0.568v-6.617h-0.568c-0.37 2.765-1.21 2.79-3.852 2.79v-7.531h3.407c2.37 0 4 0.543 4.444 3.654h0.568v-4.247h-13.259v0.593h2.296v16.272h-2.296v0.617h13.63z"></path>
<path fill="#444" d="M19.407 2.272h0.543v17.481h-0.543v-17.481z"></path>
<path fill="#444" d="M2.938 23.975c-0.37 0-0.691 0.049-0.938 0.074l-0.074 0.025v4.42h0.494v-1.802c0.123 0.025 0.272 0.025 0.42 0.025 0.543 0 1.037-0.173 1.333-0.519 0.222-0.222 0.321-0.543 0.321-0.914s-0.123-0.691-0.37-0.914c-0.222-0.247-0.642-0.395-1.185-0.395zM2.42 24.469c0.123-0.025 0.296-0.025 0.519-0.025 0.667 0 1.062 0.272 1.086 0.889 0 0.642-0.395 0.938-1.136 0.963-0.173 0-0.321 0-0.444-0.049v-1.778z"></path>
<path fill="#444" d="M6.395 25.185c-0.84 0-1.481 0.691-1.481 1.753 0 0.938 0.593 1.63 1.531 1.63 0.543 0 0.889-0.148 1.012-0.222l0.074-0.049-0.123-0.395-0.099 0.049c-0.173 0.074-0.37 0.173-0.815 0.173-0.568 0-1.037-0.296-1.062-1.16h2.222l0.025-0.074c0.025-0.074 0.025-0.123 0.025-0.198 0-0.469-0.222-1.506-1.309-1.506zM5.457 26.519c0.074-0.42 0.346-0.889 0.914-0.889 0.617 0 0.79 0.469 0.815 0.889h-1.728z"></path>
<path fill="#444" d="M10.617 27.679v-1.21c0-0.272-0.049-0.593-0.222-0.864s-0.469-0.444-0.938-0.444c-0.296 0-0.642 0.074-0.963 0.272l-0.074 0.049 0.173 0.42 0.099-0.074c0.198-0.148 0.469-0.222 0.716-0.222v0c0.617 0 0.667 0.494 0.667 0.79-1.21 0-1.877 0.469-1.877 1.21 0 0.444 0.321 0.938 0.988 0.938 0.42 0 0.716-0.173 0.914-0.37l0.025 0.296h0.494l-0.025-0.123c0.025-0.173 0.025-0.42 0.025-0.667zM10.099 26.864v0.568l-0.025 0.148c-0.099 0.272-0.346 0.543-0.815 0.543-0.272 0-0.519-0.148-0.519-0.543 0-0.296 0.148-0.469 0.395-0.568s0.593-0.148 0.889-0.148v0h0.074z"></path>
<path fill="#444" d="M13.161 25.185c-0.444 0-0.79 0.173-1.037 0.444v-1.852h-0.494v3.926c0 0.222 0 0.494-0.025 0.716v0.099h0.469l0.025-0.37c0.247 0.296 0.593 0.444 1.012 0.444v0c0.716 0 1.457-0.593 1.457-1.728 0-0.963-0.568-1.679-1.407-1.679zM14.074 26.864c0 0.765-0.37 1.284-1.012 1.284-0.444 0-0.79-0.272-0.914-0.691l-0.025-0.198v-0.617c0-0.099 0.025-0.173 0.025-0.247 0.123-0.469 0.519-0.741 0.938-0.741 0.617-0.025 0.963 0.519 0.988 1.21z"></path>
<path fill="#444" d="M16.667 25.185c-0.815 0-1.556 0.642-1.556 1.728 0 0.988 0.667 1.679 1.506 1.679v0c0.716 0 1.556-0.543 1.556-1.728 0-0.988-0.617-1.679-1.506-1.679zM16.642 28.123c-0.568 0-1.012-0.519-1.012-1.235 0-0.642 0.321-1.259 1.037-1.259 0.741 0 1.012 0.691 1.037 1.235-0.025 0.741-0.494 1.259-1.062 1.259v0z"></path>
<path fill="#444" d="M21.63 27.704v-3.926h-0.494v1.753c-0.198-0.198-0.519-0.37-0.914-0.37-0.815 0-1.481 0.691-1.481 1.753v0.025c0 0.938 0.593 1.63 1.407 1.63v0c0.469 0 0.815-0.198 1.012-0.444l0.025 0.395h0.469v-0.099c-0.025-0.222-0.025-0.494-0.025-0.716zM21.136 26.568v0.617c0 0.099 0 0.173-0.025 0.222-0.123 0.469-0.494 0.741-0.889 0.741-0.667 0-0.963-0.568-0.988-1.235 0-0.765 0.395-1.284 0.988-1.284 0.444 0 0.765 0.296 0.864 0.667l0.049 0.272z"></path>
<path fill="#444" d="M23.852 27.309c-0.049 0.148-0.099 0.296-0.148 0.42-0.049-0.123-0.099-0.272-0.148-0.395l-0.84-2.074h-0.543l1.185 2.963 0.025 0.099-0.025 0.099c-0.148 0.346-0.346 0.593-0.494 0.741-0.173 0.148-0.37 0.272-0.494 0.321l-0.099 0.025 0.173 0.444 0.099-0.025c0.074-0.025 0.321-0.123 0.568-0.346 0.42-0.37 0.691-0.963 1.062-1.901l0.963-2.42h-0.543l-0.741 2.049z"></path>
<path fill="#444" d="M27.827 26.37h1.728v-0.444h-1.728v-1.457h1.827v-0.444h-2.321v4.494h2.42v-0.469h-1.926z"></path>
<path fill="#444" d="M31.457 26.593c-0.42-0.173-0.568-0.272-0.568-0.543 0-0.222 0.148-0.42 0.494-0.444 0.272 0 0.469 0.099 0.568 0.173l0.099 0.074 0.198-0.42-0.074-0.049c-0.173-0.123-0.444-0.198-0.741-0.198-0.642 0-1.037 0.42-1.037 0.938 0 0.42 0.321 0.741 0.84 0.938 0.444 0.173 0.568 0.321 0.593 0.593 0 0.272-0.173 0.469-0.617 0.494-0.247 0-0.494-0.099-0.642-0.198l-0.099-0.049-0.049 0.099-0.099 0.247-0.025 0.074 0.074 0.049c0.222 0.148 0.519 0.222 0.84 0.222 0.667 0 1.136-0.395 1.136-0.963-0.025-0.543-0.395-0.84-0.889-1.037z"></path>
<path fill="#444" d="M34.049 26.593c-0.42-0.173-0.568-0.272-0.568-0.543 0-0.222 0.148-0.42 0.494-0.444 0.272 0 0.469 0.099 0.568 0.173l0.099 0.074 0.198-0.42-0.074-0.049c-0.173-0.123-0.444-0.198-0.741-0.222-0.642 0-1.037 0.42-1.037 0.938 0 0.42 0.321 0.741 0.84 0.938 0.444 0.173 0.568 0.321 0.593 0.593 0 0.272-0.173 0.469-0.617 0.494-0.247 0-0.494-0.099-0.642-0.198l-0.099-0.049-0.049 0.099-0.099 0.247-0.025 0.074 0.074 0.049c0.222 0.148 0.519 0.222 0.84 0.222 0.667 0 1.136-0.395 1.136-0.963-0.025-0.519-0.37-0.815-0.889-1.012z"></path>
<path fill="#444" d="M36.963 25.185c-0.84 0-1.481 0.691-1.481 1.753 0 0.938 0.593 1.63 1.531 1.63 0.543 0 0.889-0.148 1.012-0.198l0.074-0.049-0.148-0.42-0.099 0.049c-0.173 0.074-0.37 0.173-0.815 0.173-0.568 0-1.037-0.296-1.062-1.16h2.247l0.025-0.074c0.025-0.074 0.025-0.123 0.025-0.198-0.025-0.469-0.222-1.506-1.309-1.506zM36.025 26.519c0.074-0.42 0.346-0.889 0.914-0.889 0.617 0 0.79 0.469 0.815 0.889h-1.728z"></path>
<path fill="#444" d="M41.407 25.259h-0.568l-0.543 0.79c-0.099 0.123-0.198 0.272-0.272 0.42-0.099-0.148-0.173-0.272-0.272-0.42l-0.543-0.79h-0.642l1.136 1.605-1.185 1.654h0.593l0.568-0.815c0.123-0.173 0.222-0.296 0.321-0.469 0.099 0.148 0.198 0.296 0.296 0.469l0.568 0.815h0.593l-1.16-1.679 1.111-1.58z"></path>
<path fill="#444" d="M47.086 24.025l-0.988 2.543c-0.173 0.444-0.296 0.79-0.395 1.111-0.099-0.346-0.222-0.691-0.395-1.111l-0.938-2.543h-0.519l-0.321 4.494h0.494l0.148-2.074c0.025-0.494 0.049-0.988 0.074-1.407 0.099 0.346 0.247 0.691 0.395 1.136l0.864 2.346h0.346l0.938-2.395c0.173-0.444 0.296-0.79 0.42-1.136 0.025 0.444 0.049 0.963 0.074 1.407l0.123 2.123h0.494l-0.296-4.494h-0.519z"></path>
<path fill="#444" d="M51.407 27.654v-2.42h-0.494v2c0 0.099-0.025 0.222-0.049 0.296-0.123 0.272-0.42 0.543-0.815 0.543-0.543 0-0.691-0.395-0.716-1.037v-1.827h-0.494v1.877c0 0.593 0.173 0.963 0.42 1.185s0.519 0.272 0.741 0.272c0.444 0 0.765-0.198 0.963-0.444v0.37h0.494v-0.099c-0.025-0.198-0.049-0.444-0.049-0.716z"></path>
<path fill="#444" d="M53.383 26.593c-0.42-0.173-0.568-0.272-0.568-0.543 0-0.222 0.148-0.42 0.494-0.444 0.272 0 0.469 0.099 0.568 0.173l0.099 0.074 0.198-0.42-0.074-0.049c-0.173-0.123-0.444-0.198-0.741-0.198-0.642 0-1.037 0.42-1.037 0.938 0 0.42 0.321 0.741 0.84 0.938 0.444 0.173 0.568 0.321 0.593 0.593 0 0.272-0.173 0.469-0.617 0.494-0.247 0-0.494-0.099-0.642-0.198l-0.099-0.049-0.049 0.099-0.099 0.247-0.025 0.074 0.074 0.049c0.222 0.148 0.519 0.222 0.84 0.222 0.667 0 1.136-0.395 1.136-0.963-0.025-0.543-0.37-0.84-0.889-1.037z"></path>
<path fill="#444" d="M56.296 25.185c-0.84 0-1.481 0.691-1.481 1.753 0 0.938 0.593 1.63 1.531 1.63 0.543 0 0.889-0.148 1.012-0.222l0.074-0.049-0.148-0.395-0.099 0.049c-0.173 0.074-0.37 0.173-0.815 0.173-0.568 0-1.037-0.296-1.062-1.16h2.247l0.025-0.074c0.025-0.074 0.025-0.123 0.025-0.198-0.025-0.469-0.222-1.506-1.309-1.506zM55.358 26.519c0.074-0.42 0.346-0.889 0.914-0.889 0.617 0 0.79 0.469 0.815 0.889h-1.728z"></path>
<path fill="#444" d="M60.938 27.679v-2.42h-0.494v2c0 0.099-0.025 0.222-0.049 0.296-0.123 0.272-0.42 0.543-0.815 0.543-0.543 0-0.691-0.395-0.716-1.037v-1.827h-0.494v1.877c0 0.593 0.173 0.963 0.42 1.185s0.519 0.272 0.741 0.272c0.444 0 0.765-0.198 0.963-0.444v0.37h0.494v-0.099c-0.025-0.222-0.049-0.469-0.049-0.716z"></path>
<path fill="#444" d="M66 25.432c-0.247-0.198-0.519-0.247-0.667-0.247-0.346 0-0.593 0.099-0.79 0.272-0.099 0.074-0.173 0.173-0.247 0.296-0.173-0.321-0.494-0.543-0.889-0.543-0.42 0-0.716 0.173-0.914 0.42v-0.346h-0.494v0.099c0.025 0.247 0.025 0.444 0.025 0.716v2.42h0.494v-1.975c0-0.099 0.025-0.198 0.049-0.272 0.099-0.321 0.395-0.617 0.765-0.617 0.42 0 0.667 0.346 0.667 0.864v2.025h0.494v-2.074c0-0.099 0.025-0.198 0.049-0.272 0.099-0.272 0.37-0.543 0.716-0.543 0.469 0 0.691 0.321 0.691 1.012v1.877h0.494v-1.901c-0.025-0.642-0.198-0.988-0.444-1.21z"></path>
</svg>
