<?xml version="1.0" encoding="utf-8"?>
<!-- Generated by IcoMoon.io -->
<!DOCTYPE svg PUBLIC "-//W3C//DTD SVG 1.1//EN" "http://www.w3.org/Graphics/SVG/1.1/DTD/svg11.dtd">
<svg version="1.1" xmlns="http://www.w3.org/2000/svg" xmlns:xlink="http://www.w3.org/1999/xlink" width="37" height="32" viewBox="0 0 37 32">
<path fill="#444" d="M13.943 2.692c0.165 0.013 0.33 0.025 0.483 0.089 0.114 0.013 0.229 0.025 0.343 0.038 0.267 0.089 0.546 0.14 0.813 0.216 0.114 0.013 0.241 0.025 0.356 0.051 0.114 0.038 0.229 0.089 0.356 0.127 0.229 0.051 0.444 0.114 0.673 0.14l-0.013 0.038c0.343 0.051 0.66 0.165 0.99 0.267 0.305 0.076 0.622 0.152 0.914 0.279 0.102 0.013 0.203 0.025 0.317 0.025v0.076c0.064 0.013 0.19 0.025 0.254 0.025 0.114 0.038 0.216 0.089 0.33 0.127 0.216 0.051 0.419 0.114 0.622 0.19 0.241 0.076 0.47 0.165 0.711 0.229 0.165 0.064 0.343 0.114 0.508 0.165 0.127 0.051 0.241 0.089 0.368 0.14 0.089 0.025 0.178 0.064 0.254 0.089 0.127 0.038 0.241 0.089 0.368 0.127 0.114 0.051 0.229 0.102 0.343 0.14 0.102 0.038 0.19 0.076 0.292 0.114 0.14 0.064 0.292 0.14 0.432 0.203 0.152 0.076 0.305 0.165 0.457 0.254 0.025 0 0.064 0 0.089 0 0.19 0.14 0.406 0.254 0.622 0.381 0.102 0.076 0.216 0.14 0.317 0.216 0.432 0.254 0.775 0.622 1.156 0.952 0 0.025-0.013 0.064-0.013 0.089l0.064-0.038c0.241 0.305 0.495 0.61 0.698 0.94 0.051 0.102 0.114 0.216 0.165 0.317l0.038-0.013c0.038 0.102 0.064 0.203 0.102 0.305 0.051 0.114 0.102 0.229 0.165 0.343 0.114 0.381 0.254 0.749 0.305 1.13 0.013 0 0.038 0 0.064 0 0.013 0.203 0.025 0.419 0.025 0.622l0.064-0.013c0.051 0.965 0.178 1.93 0.051 2.883-0.013 0.203-0.025 0.394-0.038 0.597l-0.064-0.013c-0.013 0.165-0.025 0.33-0.038 0.495-0.064 0.165-0.127 0.343-0.178 0.521-0.051 0.127-0.089 0.241-0.127 0.368-0.064 0.127-0.127 0.241-0.203 0.356l-0.013 0.064c-0.038 0.051-0.102 0.165-0.127 0.216l-0.025 0.013c-0.076 0.114-0.152 0.216-0.216 0.33-0.025 0.025-0.076 0.089-0.102 0.127h-0.025c-0.025 0.038-0.064 0.102-0.089 0.127-0.102 0.102-0.216 0.203-0.317 0.305-0.127 0.089-0.254 0.165-0.381 0.254-0.051 0.025-0.14 0.089-0.178 0.114-0.025 0-0.064 0-0.089 0-0.762 0.419-1.663 0.279-2.489 0.241-0.317-0.114-0.648-0.19-0.965-0.317-0.114-0.038-0.229-0.076-0.33-0.127v-0.089c-0.038 0.013-0.127 0.038-0.165 0.051v-0.114h-0.089c0.013-2.21 0-4.419 0-6.629 0-0.876 0.013-1.752-0.025-2.629-0.013 0-0.051 0-0.064 0-0.051-0.724-0.775-1.308-1.498-1.156-0.051 0.025-0.14 0.089-0.178 0.127-0.305 0.305-0.432 0.749-0.406 1.181 0 6.425 0 12.863 0 19.289 0 0.559-0.013 1.105 0.025 1.651-0.064 0-0.178 0.013-0.229 0.013 0.051-0.038 0.102-0.089 0.152-0.127-0.267 0.064-0.521-0.064-0.775-0.152-0.241-0.076-0.47-0.152-0.724-0.216-0.114-0.038-0.229-0.089-0.356-0.127-0.064 0-0.178-0.013-0.229-0.025v-0.051c-0.216-0.038-0.419-0.114-0.622-0.178-0.178-0.064-0.356-0.114-0.546-0.152l0.013-0.051c-0.064 0-0.178-0.013-0.229-0.025-0.114-0.051-0.229-0.089-0.343-0.14-0.089-0.025-0.178-0.051-0.267-0.076-0.114-0.038-0.241-0.076-0.356-0.114-0.267-0.089-0.533-0.165-0.8-0.254-0.127-0.038-0.267-0.076-0.394-0.114 0.025-8.279 0.025-16.559 0.013-24.825z"></path>
<path fill="#444" d="M12.61 17.727c0.063 0 0.203 0 0.279 0 0 1.079 0.013 2.171-0.013 3.251-0.203 0.051-0.394 0.114-0.584 0.203-0.051 0.013-0.152 0.025-0.203 0.038-0.102 0.051-0.19 0.102-0.292 0.14-0.038 0.013-0.114 0.025-0.14 0.025-0.381 0.152-0.762 0.267-1.143 0.419-0.063 0-0.178 0.013-0.229 0.025v0.051c-0.14 0.038-0.267 0.089-0.406 0.14-0.102 0.038-0.216 0.064-0.317 0.089l0.013 0.038c-0.102 0.025-0.203 0.051-0.305 0.089-0.14 0.051-0.279 0.089-0.419 0.14l0.013 0.064c-0.051 0-0.178 0.013-0.229 0.025-0.152 0.076-0.317 0.14-0.483 0.178v0.038c-0.419 0.089-0.813 0.267-1.219 0.406-0.114 0.064-0.229 0.114-0.343 0.178-0.089 0.064-0.19 0.127-0.279 0.203-0.038 0.14-0.089 0.267-0.114 0.406h0.076c0.025 0.038 0.089 0.102 0.114 0.127l-0.013 0.038c0.102 0.038 0.216 0.089 0.317 0.14 0.14 0.038 0.267 0.064 0.406 0.089l-0.025 0.051c0.66 0.051 1.321 0.038 1.981 0l-0.025-0.064c0.394 0 0.762-0.114 1.117-0.254 0.051-0.013 0.152-0.025 0.203-0.038 0.102-0.051 0.216-0.102 0.317-0.14 0.127-0.038 0.267-0.089 0.394-0.127 0.114-0.051 0.229-0.089 0.343-0.14 0.127-0.038 0.241-0.089 0.368-0.127 0.19-0.076 0.394-0.152 0.571-0.229 0.038 0 0.127 0 0.165 0v-0.089c0.127-0.013 0.241-0.025 0.368-0.038 0 0.952 0 1.917 0 2.87-0.241 0.051-0.483 0.089-0.724 0.114v0.051c-0.305 0-0.597 0.025-0.889 0.038l0.025 0.064c-0.356 0.013-0.711 0-1.054 0.064-0.597 0.013-1.194 0.051-1.778-0.025-0.343-0.013-0.686-0.025-1.041-0.038l0.013-0.064c-0.267-0.013-0.521-0.025-0.787-0.038-0.025-0.102-0.102-0.241-0.165-0.076-0.076 0-0.216 0-0.279 0l-0.038-0.038c-0.152-0.013-0.317-0.038-0.457-0.089-0.152-0.025-0.305-0.051-0.457-0.102-0.114-0.025-0.229-0.038-0.343-0.064-0.114-0.038-0.241-0.076-0.356-0.127-0.102-0.013-0.216-0.025-0.317-0.038l0.013-0.051c-0.292-0.064-0.571-0.152-0.851-0.254-0.152-0.051-0.305-0.102-0.457-0.14-0.089-0.051-0.178-0.089-0.267-0.14-0.025 0-0.076 0-0.102 0-0.051-0.025-0.14-0.089-0.178-0.114-0.152-0.089-0.305-0.165-0.444-0.254-0.152-0.127-0.292-0.254-0.444-0.381-0.089-0.114-0.19-0.241-0.279-0.356-0.178-0.394-0.178-0.876-0.013-1.27 0.203-0.254 0.432-0.483 0.698-0.66 0.152-0.102 0.305-0.19 0.47-0.267v-0.076c0.038 0 0.114 0.013 0.165 0.025l0.013-0.076c0.19-0.089 0.368-0.178 0.559-0.267 0.152-0.064 0.292-0.127 0.444-0.203 0.102-0.038 0.19-0.076 0.292-0.114 0.241-0.114 0.495-0.203 0.749-0.267v-0.064c0.064 0 0.19-0.013 0.241-0.013 0.089-0.051 0.19-0.102 0.292-0.14 0.038-0.013 0.114-0.025 0.152-0.038 0.089-0.038 0.178-0.064 0.267-0.089 0.279-0.114 0.571-0.203 0.851-0.305 0.089-0.025 0.19-0.064 0.279-0.089 0.14-0.051 0.292-0.114 0.432-0.178 0.051-0.013 0.152-0.038 0.203-0.038 0.279-0.127 0.571-0.216 0.863-0.317 0.241-0.076 0.483-0.165 0.711-0.267 0.051-0.013 0.14-0.025 0.19-0.038 0.14-0.064 0.292-0.127 0.444-0.178 0.102-0.025 0.216-0.051 0.317-0.089l-0.013-0.038c0.229-0.051 0.457-0.14 0.686-0.216 0.14-0.051 0.279-0.102 0.419-0.152 0.216-0.076 0.432-0.152 0.648-0.216 0.114-0.038 0.216-0.089 0.33-0.127s0.241-0.076 0.356-0.127c0.114-0.038 0.216-0.064 0.33-0.102l0.013-0.165z"></path>
<path fill="#444" d="M26.222 19.149l-0.013-0.064c0.47 0.013 0.927-0.013 1.397 0.013 0.406 0.064 0.825 0.064 1.244 0.102 0.178 0.025 0.343 0.038 0.521 0.051l-0.038 0.051c0.254 0.013 0.495 0.025 0.749 0.038 0.317 0.102 0.66 0.114 0.978 0.229 0.127 0.013 0.267 0.038 0.394 0.051v0.051c0.305 0.025 0.597 0.152 0.902 0.216v0.038c0.381 0.076 0.736 0.241 1.105 0.356 0.102 0.051 0.203 0.089 0.305 0.14 0.114 0.051 0.229 0.102 0.356 0.152 0.025 0 0.089-0.013 0.114-0.013l0.013 0.114c0.038 0 0.102-0.013 0.127-0.013 0.178 0.14 0.368 0.267 0.546 0.419 0.025 0 0.076 0.013 0.102 0.013v0.102h0.063c0.051 0.076 0.102 0.14 0.165 0.216 0.038 0.038 0.114 0.127 0.152 0.165 0 0.025 0 0.064 0 0.089 0.051 0.076 0.102 0.165 0.152 0.241 0.013 0.317 0.025 0.635-0.14 0.914-0.051 0.064-0.089 0.14-0.14 0.216-0.025 0.025-0.076 0.089-0.102 0.114h-0.025c-0.025 0.025-0.076 0.089-0.102 0.127-0.419 0.381-0.902 0.66-1.397 0.914-0.241 0.114-0.483 0.229-0.736 0.317-0.089 0.025-0.178 0.064-0.267 0.089-0.61 0.241-1.244 0.444-1.854 0.673-0.152 0.051-0.292 0.102-0.444 0.152-0.089 0.038-0.178 0.076-0.267 0.114-0.051 0.013-0.152 0.038-0.203 0.051-0.14 0.064-0.279 0.114-0.432 0.165-0.089 0.038-0.19 0.064-0.279 0.102-0.292 0.114-0.571 0.216-0.863 0.317-0.127 0.038-0.241 0.089-0.368 0.127-0.114 0.038-0.229 0.089-0.343 0.127-0.089 0.025-0.19 0.064-0.279 0.089-0.152 0.051-0.292 0.114-0.432 0.178-0.051 0.013-0.152 0.025-0.203 0.038-0.14 0.064-0.292 0.127-0.432 0.178-0.102 0.038-0.216 0.064-0.317 0.089v0.038c-0.521 0.127-1.016 0.356-1.537 0.521-0.102 0.038-0.19 0.064-0.279 0.102-0.216 0.064-0.419 0.152-0.635 0.229-0.241 0.089-0.483 0.178-0.711 0.267-0.089 0.038-0.178 0.064-0.279 0.089-0.203 0.076-0.394 0.14-0.597 0.216-0.432 0.14-0.838 0.343-1.283 0.419 0.013-1.054 0-2.095 0-3.149 0.076-0.165 0.305-0.165 0.457-0.241 0.216-0.064 0.419-0.14 0.635-0.216 0.19-0.064 0.368-0.127 0.559-0.19 0.152-0.064 0.317-0.114 0.47-0.152l-0.013-0.064c0.114-0.013 0.229-0.013 0.356-0.025v-0.064c0.229-0.064 0.444-0.152 0.673-0.229 0.152-0.051 0.292-0.102 0.444-0.165 0.089-0.038 0.178-0.064 0.267-0.102 0.089-0.025 0.178-0.064 0.279-0.089 0.14-0.064 0.279-0.114 0.432-0.165 0.381-0.127 0.762-0.267 1.143-0.406 0.089-0.038 0.19-0.064 0.279-0.102 0.038 0 0.102-0.013 0.127-0.025 0.102-0.051 0.203-0.102 0.305-0.152 0.051-0.013 0.152-0.025 0.19-0.038 0.419-0.178 0.838-0.317 1.27-0.47 0.064-0.025 0.203-0.064 0.279-0.076v-0.038c0.102-0.025 0.216-0.051 0.317-0.076 0.216-0.089 0.444-0.165 0.673-0.229v-0.038c0.152-0.038 0.292-0.114 0.419-0.19l0.076 0.013c0.025-0.038 0.076-0.102 0.102-0.14 0.038-0.013 0.102-0.051 0.127-0.076 0.127-0.241 0.025-0.483-0.216-0.597-0.102-0.038-0.19-0.076-0.292-0.114-0.19-0.089-0.394-0.076-0.584-0.089l0.013-0.064c-0.457 0-0.927-0.064-1.371 0.051-0.178 0.013-0.356 0.013-0.533 0.038-0.241 0.076-0.483 0.127-0.724 0.203s-0.483 0.165-0.724 0.241c-0.114 0.051-0.229 0.089-0.356 0.14-0.051 0-0.14 0.013-0.178 0.025-0.152 0.064-0.292 0.127-0.444 0.178-0.241 0.089-0.483 0.178-0.736 0.216 0 0.025 0 0.064 0 0.089-0.14 0.025-0.267 0.064-0.406 0.102-0.089 0.025-0.165 0.064-0.254 0.102-0.152 0.051-0.305 0.102-0.457 0.165-0.114 0.038-0.229 0.076-0.343 0.114-0.241 0.089-0.483 0.165-0.724 0.267-0.038 0.013-0.127 0.025-0.178 0.038-0.152 0.064-0.305 0.127-0.457 0.178-0.089 0.025-0.178 0.051-0.267 0.089-0.203 0.089-0.419 0.165-0.635 0.203 0-1.003 0.013-2.019 0-3.022-0.013-0.127 0.025-0.254 0.064-0.381 0.203-0.025 0.394-0.089 0.584-0.165 0.064-0.013 0.19-0.038 0.241-0.051 0.317-0.127 0.66-0.203 0.99-0.279 0.14-0.051 0.292-0.076 0.444-0.089 0.14-0.038 0.292-0.076 0.432-0.127 0.165-0.013 0.33-0.025 0.508-0.038l-0.013-0.064c0.267-0.013 0.533-0.025 0.8-0.038l-0.025-0.064c0.559-0.038 1.067-0.102 1.587-0.089z"></path>
<path fill="#444" d="M33.016 26.679c0.33-0.114 0.686-0.076 1.003 0.038 0.305 0.165 0.546 0.432 0.698 0.749 0.076 0.267 0.063 0.533 0.025 0.813-0.038 0.102-0.076 0.203-0.114 0.305h-0.025c-0.127 0.216-0.317 0.381-0.521 0.533-0.025 0-0.063 0.013-0.089 0.013-0.33 0.14-0.762 0.152-1.092 0-0.025 0-0.063 0-0.089 0-0.203-0.165-0.394-0.343-0.546-0.559-0.038-0.102-0.076-0.19-0.114-0.279-0.025-0.267-0.051-0.559 0.051-0.813 0.051-0.089 0.089-0.19 0.14-0.292 0.114-0.127 0.229-0.254 0.368-0.356 0.114-0.051 0.203-0.102 0.305-0.152zM33.359 26.819c-0.152 0.051-0.317 0.114-0.47 0.165-0.356 0.254-0.559 0.686-0.521 1.13 0.051 0.114 0.089 0.216 0.127 0.33 0.063 0.089 0.114 0.165 0.178 0.254 0.025 0.025 0.076 0.076 0.089 0.089 0.14 0.102 0.292 0.165 0.47 0.178v0.051c0.127 0 0.267 0 0.394 0 0.165-0.064 0.317-0.127 0.483-0.19v-0.038c0.394-0.317 0.533-0.863 0.33-1.333-0.203-0.394-0.622-0.635-1.079-0.635z"></path>
<path fill="#444" d="M32.902 27.175c0.279-0.013 0.571-0.013 0.851 0 0.102 0.064 0.203 0.114 0.305 0.178-0.025 0.19 0.076 0.483-0.152 0.559 0.267 0.102 0.102 0.483 0.178 0.698-0.076-0.013-0.216-0.025-0.279-0.025 0-0.178-0.013-0.356-0.013-0.533-0.203-0.013-0.406-0.013-0.61-0.013 0 0.216 0 0.432-0.013 0.66-0.089-0.038-0.19-0.051-0.241-0.127-0.038-0.47-0.025-0.927-0.025-1.397zM33.156 27.416c0 0.102 0 0.292 0 0.394 0.203 0 0.419-0.013 0.622-0.025 0-0.114 0-0.241 0-0.356-0.203 0-0.406-0.013-0.622-0.013z"></path>
</svg>
