<?xml version="1.0" encoding="utf-8"?>
<!-- Generated by IcoMoon.io -->
<!DOCTYPE svg PUBLIC "-//W3C//DTD SVG 1.1//EN" "http://www.w3.org/Graphics/SVG/1.1/DTD/svg11.dtd">
<svg version="1.1" xmlns="http://www.w3.org/2000/svg" xmlns:xlink="http://www.w3.org/1999/xlink" width="128" height="32" viewBox="0 0 128 32">
<path fill="#444" d="M45.867 10.356v-2.8h-11.689v2.8c0 0 3.867 0 4.089 0v11.111c-0.222 0-4.089 0-4.089 0v2.8h11.689v-2.8c0 0-4.222 0-4.444 0v-11.111c0.222 0 4.444 0 4.444 0z"></path>
<path fill="#444" d="M80.489 7.6v2.711h2.311v11.2h-2.311v2.756h14.133v-5.422h-2.8v2.667h-6v-4.533h4.444v-2.711h-4.444v-3.956h5.778v2.667h3.022v-5.378z"></path>
<path fill="#444" d="M65.289 10.489h-4.667v4.578c0 0 2.533-0.089 4.578-0.089s2.578-0.444 2.578-2.533c0.044-2.356-2.489-1.956-2.489-1.956z"></path>
<path fill="#444" d="M51.822 3.644v24.667h24.222v-24.667h-24.222zM71.156 20.267c0 3.467 0 3.867 0 3.867h-3.333v-3.644c0 0 0-2.8-1.911-2.8s-5.244 0.089-5.244 0.089v6.444h-3.244v-16.622h9.644c0 0 4.133-0.222 4.133 4.311s-2.533 4.756-2.533 4.756 2.489 0.089 2.489 3.6z"></path>
<path fill="#444" d="M113.911 10.4h-5.022v11.111c0 0 2.756 0 5.244 0s2.578-3.244 2.578-3.244 0-0.533 0-4.311c0-3.778-2.8-3.556-2.8-3.556z"></path>
<path fill="#444" d="M100.044 3.644v24.667h24.222v-24.667h-24.222zM114.267 24.4c-6.089 0-8.8 0.089-8.8 0.089v-16.844h7.2c0 0 7.422-0.8 7.422 5.867v4.667c-0.044 0 0.267 6.222-5.822 6.222z"></path>
<path fill="#444" d="M3.378 3.644v24.667h24.222v-24.667h-24.222zM22.622 24.267h-4.133l-2.667-12.089-2.889 12.133h-4.089l-3.422-16.667h3.333l2.311 12.667 2.978-12.667 3.644 0.089 2.978 12.8 2.222-12.889h3.2l-3.467 16.622z"></path>
</svg>
