<?xml version="1.0" encoding="utf-8"?>
<!-- Generated by IcoMoon.io -->
<!DOCTYPE svg PUBLIC "-//W3C//DTD SVG 1.1//EN" "http://www.w3.org/Graphics/SVG/1.1/DTD/svg11.dtd">
<svg version="1.1" xmlns="http://www.w3.org/2000/svg" xmlns:xlink="http://www.w3.org/1999/xlink" width="32" height="32" viewBox="0 0 32 32">
<path fill="#fff" d="M16.467 25.189c-0.167 0-0.3-0.133-0.3-0.278 0-0.167 0.111-0.3 0.278-0.333 2.656-0.189 4.889-2.133 5.422-4.733 0.133-0.722 0.167-1.467 0.056-2.189-0.022-0.167 0.078-0.333 0.244-0.356s0.333 0.078 0.356 0.244c0.133 0.8 0.111 1.6-0.056 2.4-0.611 2.889-3.067 5.044-6 5.244v0z"></path>
<path fill="#fff" d="M28.411 7.467h-5.644c0-0.022 0-0.078 0-0.111-0.133-1.356 0.522-1.911 0.911-2.1-0.278-0.111-0.444-0.389-0.411-0.689-0.667 0.356-1.433 1.244-1.267 2.844v0.022h-0.8c-0.167 0-0.411-0.444-0.611-0.744-0.389-0.667-0.889-1.467-1.822-1.467h-5.422c-0.911 0-1.411 0.8-1.822 1.467-0.189 0.3-0.467 0.744-0.611 0.744h-1.778v-0.078c0-0.467-0.667-0.944-1.911-0.944h-0.133c-1.244 0-1.911 0.467-1.911 0.944v0.078h-1.544c-0.778 0-1.378 0.667-1.378 1.467v19.356c0 0.8 0.611 1.467 1.378 1.467h24.778c0.778 0 1.378-0.667 1.378-1.467v-19.322c0-0.8-0.611-1.467-1.378-1.467zM7.089 7.044h0.111c0.856 0 1.244 0.244 1.3 0.356v0.078h-2.711v-0.078c0.089-0.1 0.478-0.356 1.3-0.356zM3.056 8.933c0-0.389 0.278-0.689 0.578-0.689h7.244c0.611 0 0.967-0.578 1.3-1.133 0.389-0.633 0.689-1.078 1.133-1.078h5.422c0.444 0 0.744 0.444 1.133 1.078 0.333 0.556 0.689 1.133 1.3 1.133h0.8c-0.111 0.967-0.611 1.689-0.833 1.967l-0.889-0.611c-0.078-0.056-0.189-0.078-0.3-0.056s-0.189 0.078-0.244 0.167l-0.689 1c-0.411-0.167-0.856-0.278-1.3-0.389-0.556-0.111-1.133-0.167-1.711-0.167-3.156 0-5.967 1.767-7.411 4.456h-5.533v-5.678zM21.222 12.989c1.989 1.822 2.844 4.511 2.3 7.156-0.722 3.544-3.867 6.111-7.489 6.111-0.522 0-1.056-0.056-1.544-0.167-4.122-0.856-6.8-4.889-5.944-9.044 0.722-3.544 3.867-6.111 7.489-6.111 0.522 0 1.056 0.056 1.544 0.167 0.5 0.111 1 0.244 1.467 0.444 0.167 0.078 0.389 0.022 0.467-0.133l0.633-0.944 1.633 1.111-0.611 0.856c-0.111 0.2-0.089 0.422 0.056 0.556zM29.022 28.256c0 0.389-0.278 0.689-0.578 0.689h-24.778c-0.333 0-0.578-0.3-0.578-0.689v-12.856h5.167c-0.189 0.467-0.356 0.967-0.467 1.489-0.944 4.567 2.022 9.044 6.556 9.978 0.556 0.111 1.133 0.167 1.711 0.167v0c3.978 0 7.467-2.844 8.267-6.744 0.356-1.689 0.167-3.378-0.444-4.889h5.144v12.856zM29.022 14.6h-5.533c-0.389-0.722-0.856-1.356-1.467-1.967l0.633-0.911c0.056-0.078 0.078-0.189 0.056-0.3s-0.078-0.189-0.167-0.244l-0.744-0.522c0.278-0.389 0.856-1.244 0.967-2.4h5.644c0.333 0 0.578 0.3 0.578 0.689v5.667h0.033z"></path>
<path fill="#444" d="M23.433 3.867c-0.078 0-0.133-0.022-0.189-0.078l-0.467-0.689c-0.078-0.111-0.056-0.244 0.056-0.3s0.244-0.056 0.3 0.056l0.467 0.689c0.078 0.111 0.056 0.244-0.056 0.3-0.033 0-0.056 0.022-0.111 0.022z"></path>
<path fill="#444" d="M25.178 6.356c-0.078 0-0.133-0.022-0.189-0.078l-0.5-0.722c-0.078-0.111-0.056-0.244 0.056-0.3s0.244-0.056 0.3 0.056l0.5 0.722c0.078 0.111 0.056 0.244-0.056 0.3-0.033 0-0.089 0.022-0.111 0.022z"></path>
<path fill="#444" d="M25.011 4.144c-0.078 0-0.133-0.022-0.189-0.078-0.078-0.111-0.056-0.244 0.056-0.3l0.944-0.667c0.111-0.056 0.244-0.056 0.3 0.056 0.078 0.111 0.056 0.244-0.056 0.3l-0.944 0.667c-0.033 0-0.089 0.022-0.111 0.022z"></path>
<path fill="#444" d="M24.267 3.733h-0.022c-0.111-0.022-0.189-0.133-0.167-0.244l0.189-1c0.022-0.111 0.133-0.189 0.244-0.167s0.189 0.133 0.167 0.244l-0.189 1c-0.033 0.078-0.122 0.167-0.222 0.167z"></path>
<path fill="#444" d="M26.089 5.144h-0.022l-1-0.167c-0.111-0.022-0.189-0.133-0.167-0.244s0.133-0.189 0.244-0.167l1 0.189c0.111 0.022 0.189 0.133 0.167 0.244-0.033 0.056-0.111 0.144-0.222 0.144z"></path>
</svg>
