<?xml version="1.0" encoding="utf-8"?>
<!-- Generated by IcoMoon.io -->
<!DOCTYPE svg PUBLIC "-//W3C//DTD SVG 1.1//EN" "http://www.w3.org/Graphics/SVG/1.1/DTD/svg11.dtd">
<svg version="1.1" xmlns="http://www.w3.org/2000/svg" xmlns:xlink="http://www.w3.org/1999/xlink" width="154" height="32" viewBox="0 0 154 32">
<path fill="#444" d="M5.921 23.181h7.080v2.167h-9.247v-15.017h2.167v12.85z"></path>
<path fill="#444" d="M16.882 10.331v15.017h-2.167v-15.017h2.167z"></path>
<path fill="#444" d="M30.841 15.698c-0.605-2.419-2.923-3.301-4.838-3.301-2.948 0-5.216 2.293-5.216 5.468s2.268 5.518 5.216 5.518c1.839 0 3.83-0.857 4.737-3.049h-5.569v-2.167h8.088c-0.101 1.26-0.227 2.117-0.403 2.595v-0.025c-1.033 2.872-4.132 4.737-6.854 4.737-4.208 0-7.383-3.175-7.383-7.609 0-4.46 3.25-7.635 7.383-7.635 2.872 0 6.35 1.487 7.156 5.468h-2.318z"></path>
<path fill="#444" d="M37.165 16.68h6.35v-6.35h2.192v15.017h-2.192v-6.526h-6.35v6.526h-2.167v-15.017h2.167v6.35z"></path>
<path fill="#444" d="M51.754 25.424v-12.926h-4.561v-2.192h11.263v2.192h-4.535v12.901h-2.167z"></path>
<path fill="#444" d="M66.368 10.331c1.89 0 3.099 1.083 3.654 2.469 0.605 1.487 0.403 3.2-1.083 4.283 1.713 0.731 2.343 2.318 2.343 3.729 0 2.268-1.487 4.535-4.359 4.535h-6.803v-15.017h6.249zM62.261 16.302h4.057c2.368 0 2.419-3.905 0.050-3.905h-4.107v3.905zM62.261 23.257h4.636c1.461 0 2.192-1.235 2.192-2.419s-0.731-2.394-2.192-2.394h-4.636v4.813z"></path>
<path fill="#444" d="M101.77 25.348h-2.167v-15.043h1.764l4.964 7.307 4.964-7.307h1.713v15.043h-2.142v-10.583l-3.931 5.846h-1.235l-3.931-5.846v10.583z"></path>
<path fill="#444" d="M121.373 10.331c1.89 0 3.099 1.083 3.654 2.469 0.605 1.487 0.403 3.2-1.083 4.283 1.713 0.731 2.343 2.318 2.343 3.729 0 2.268-1.487 4.535-4.359 4.535h-6.778v-15.017h6.224zM117.266 16.302h4.057c2.368 0 2.394-3.905 0.050-3.905h-4.107v3.905zM117.266 23.257h4.636c1.461 0 2.192-1.235 2.192-2.419s-0.731-2.394-2.192-2.394h-4.636v4.813z"></path>
<path fill="#444" d="M129.789 23.181h6.98v2.167h-9.172v-15.017h9.146v2.167h-6.954v4.233h6.803v2.192h-6.803v4.258z"></path>
<path fill="#444" d="M141.657 17.739h2.545c1.814 0 2.721-1.31 2.721-2.62 0-1.285-0.907-2.595-2.721-2.595h-3.326v12.85h-2.142v-15.068h5.468c3.276 0 4.888 2.419 4.888 4.787 0 2.117-1.31 4.157-3.88 4.611l4.737 5.644h-2.797l-5.468-6.602v-1.008z"></path>
<path fill="#444" d="M85.644 23.912c-0.151 0-0.277-0.126-0.277-0.252 0-0.151 0.101-0.277 0.252-0.302 2.419-0.176 4.46-1.94 4.939-4.309 0.126-0.655 0.151-1.335 0.050-1.991-0.025-0.151 0.076-0.302 0.227-0.328s0.302 0.076 0.328 0.227c0.126 0.731 0.101 1.461-0.050 2.192-0.554 2.62-2.797 4.586-5.468 4.762 0 0 0 0 0 0z"></path>
<path fill="#444" d="M96.529 7.761h-5.14c0-0.025 0-0.076 0-0.101-0.126-1.235 0.479-1.739 0.832-1.915-0.252-0.101-0.403-0.353-0.378-0.63-0.605 0.328-1.31 1.134-1.159 2.595 0 0 0 0.025 0 0.025h-0.731c-0.151 0-0.378-0.403-0.554-0.68-0.353-0.605-0.806-1.335-1.663-1.335h-4.939c-0.832 0-1.285 0.731-1.663 1.335-0.176 0.277-0.428 0.68-0.554 0.68h-1.613v-0.076c0-0.428-0.605-0.857-1.739-0.857h-0.126c-1.134 0-1.739 0.428-1.739 0.857v0.076h-1.411c-0.706 0-1.26 0.605-1.26 1.335v17.638c0 0.731 0.554 1.335 1.26 1.335h22.576c0.706 0 1.26-0.605 1.26-1.335v-17.613c0-0.731-0.554-1.335-1.26-1.335zM77.102 7.383h0.101c0.781 0 1.134 0.227 1.184 0.328v0.076h-2.469v-0.076c0.076-0.101 0.428-0.328 1.184-0.328zM73.424 9.096c0-0.353 0.252-0.63 0.529-0.63h6.602c0.554 0 0.882-0.529 1.184-1.033 0.353-0.58 0.63-0.983 1.033-0.983h4.939c0.403 0 0.68 0.403 1.033 0.983 0.302 0.504 0.63 1.033 1.184 1.033h0.731c-0.101 0.882-0.554 1.537-0.756 1.789l-0.806-0.554c-0.076-0.050-0.176-0.076-0.277-0.050s-0.176 0.076-0.227 0.151l-0.63 0.907c-0.378-0.151-0.781-0.252-1.184-0.353-0.504-0.101-1.033-0.151-1.562-0.151-2.872 0-5.443 1.613-6.753 4.057h-5.039v-5.165zM89.978 12.8c1.814 1.663 2.595 4.107 2.091 6.526-0.655 3.225-3.528 5.569-6.828 5.569-0.479 0-0.957-0.050-1.411-0.151-3.754-0.781-6.198-4.46-5.417-8.239 0.655-3.225 3.528-5.569 6.828-5.569 0.479 0 0.957 0.050 1.411 0.151s0.907 0.227 1.335 0.403c0.151 0.076 0.353 0.025 0.428-0.126l0.58-0.857 1.487 1.008-0.554 0.781c-0.101 0.176-0.076 0.378 0.050 0.504zM97.083 26.709c0 0.353-0.252 0.63-0.529 0.63h-22.576c-0.302 0-0.529-0.277-0.529-0.63v-11.717h4.712c-0.176 0.428-0.328 0.882-0.428 1.361-0.857 4.157 1.839 8.239 5.972 9.096 0.504 0.101 1.033 0.151 1.562 0.151 0 0 0 0 0 0 3.628 0 6.803-2.595 7.534-6.148 0.328-1.537 0.151-3.074-0.403-4.46h4.687v11.717zM97.083 14.261h-5.039c-0.353-0.655-0.781-1.235-1.335-1.789l0.58-0.832c0.050-0.076 0.076-0.176 0.050-0.277s-0.076-0.176-0.151-0.227l-0.68-0.479c0.252-0.353 0.781-1.134 0.882-2.192h5.14c0.302 0 0.529 0.277 0.529 0.63v5.165z"></path>
<path fill="#444" d="M91.994 4.485c-0.076 0-0.126-0.025-0.176-0.076l-0.428-0.63c-0.076-0.101-0.050-0.227 0.050-0.277s0.227-0.050 0.277 0.050l0.428 0.63c0.076 0.101 0.050 0.227-0.050 0.277-0.025 0-0.050 0.025-0.101 0.025z"></path>
<path fill="#444" d="M93.581 6.753c-0.076 0-0.126-0.025-0.176-0.076l-0.454-0.655c-0.076-0.101-0.050-0.227 0.050-0.277s0.227-0.050 0.277 0.050l0.454 0.655c0.076 0.101 0.050 0.227-0.050 0.277-0.025 0-0.076 0.025-0.101 0.025z"></path>
<path fill="#444" d="M93.43 4.737c-0.076 0-0.126-0.025-0.176-0.076-0.076-0.101-0.050-0.227 0.050-0.277l0.857-0.605c0.101-0.050 0.227-0.050 0.277 0.050 0.076 0.101 0.050 0.227-0.050 0.277l-0.857 0.605c-0.025 0-0.076 0.025-0.101 0.025z"></path>
<path fill="#444" d="M92.75 4.359c0 0-0.025 0-0.025 0-0.101-0.025-0.176-0.126-0.151-0.227l0.176-0.907c0.025-0.101 0.126-0.176 0.227-0.151s0.176 0.126 0.151 0.227l-0.176 0.907c-0.025 0.076-0.101 0.151-0.202 0.151z"></path>
<path fill="#444" d="M94.413 5.644c0 0-0.025 0-0.025 0l-0.907-0.151c-0.101-0.025-0.176-0.126-0.151-0.227s0.126-0.176 0.227-0.151l0.907 0.176c0.101 0.025 0.176 0.126 0.151 0.227-0.025 0.050-0.101 0.126-0.202 0.126z"></path>
</svg>
